<?xml version="1.0" encoding="UTF-8"?>
<svg width="24px" height="24px" viewBox="0 0 24 24" version="1.1" xmlns="http://www.w3.org/2000/svg" xmlns:xlink="http://www.w3.org/1999/xlink">
    <title>5827E37C-D81B-42D2-859C-72E79B83B8E6</title>
    <defs>
        <path d="M24.7570346,16.3221075 C30.1732662,17.6005519 33.9997526,22.4350906 34,28.0000796 L34,30.250156 C34,32.3212941 32.320975,34.0002832 30.2497926,34.0002832 C28.6707308,34.0002832 27.3196097,33.0243739 26.7666937,31.6428075 C25.6715187,33.0757768 23.9433948,34.0002832 21.9993363,34.0002832 C18.6854445,34.0002832 15.9990044,31.3139006 15.9990044,28.0000796 C15.9990044,24.6862587 18.6854445,21.999876 21.9993363,21.999876 C25.2379123,21.999876 27.8772331,24.565538 27.9955294,27.7751337 L27.9996681,28.0000796 L27.9996681,28.0000796 L27.9996681,30.250156 C27.9996681,31.4928388 29.0070832,32.5002323 30.2497926,32.5002323 C31.492502,32.5002323 32.499917,31.4928388 32.499917,30.250156 L32.499917,28.000113 C32.4997006,23.1308347 29.1515649,18.9006637 24.4124186,17.7820382 C19.6732723,16.6634126 14.7868799,18.9499099 12.6092259,23.3051248 C10.4315719,27.6603396 11.5341704,32.9412684 15.2725778,36.061329 C19.0109851,39.1813897 24.4040757,39.3217384 28.2997114,36.4003446 C28.6311116,36.1518228 29.1012357,36.2190033 29.3497628,36.5503964 C29.59829,36.8817895 29.5311081,37.3519035 29.1997078,37.6004254 C24.7474997,40.9392009 18.5838943,40.7788004 14.3113779,37.2129744 C10.0388614,33.6471483 8.77873387,27.6117293 11.2675109,22.6342816 C13.7562879,17.656834 19.3408029,15.043663 24.7570346,16.3221075 Z M21.9993363,23.4999269 C19.5139175,23.4999269 17.4990874,25.5147139 17.4990874,28.0000796 C17.4990874,30.4854453 19.5139175,32.5002323 21.9993363,32.5002323 C24.4847551,32.5002323 26.4995852,30.4854453 26.4995852,28.0000796 C26.4995852,25.5147139 24.4847551,23.4999269 21.9993363,23.4999269 Z" id="path-1"></path>
    </defs>
    <g id="EID---Legacy-Login-/-Register" stroke="none" stroke-width="1" fill="none" fill-rule="evenodd">
        <g id="login-form---Step-1" transform="translate(-567.000000, -304.000000)">
            <g id="form" transform="translate(493.000000, 140.000000)">
                <g id="content" transform="translate(0.000000, 79.000000)">
                    <g id="username-or-pw" transform="translate(64.000000, 40.000000)">
                        <g id="input-field" transform="translate(0.000000, 29.000000)">
                            <mask id="mask-2" fill="white">
                                <use xlink:href="#path-1"></use>
                            </mask>
                            <use id="Combined-Shape" fill="#D2D2D2" fill-rule="nonzero" xlink:href="#path-1"></use>
                        </g>
                    </g>
                </g>
            </g>
        </g>
    </g>
</svg>