<?xml version="1.0" encoding="UTF-8"?>
<svg width="60px" height="60px" viewBox="0 0 60 60" version="1.1" xmlns="http://www.w3.org/2000/svg" xmlns:xlink="http://www.w3.org/1999/xlink">
    <title>878B8179-D5DC-436E-B044-B73B42EF9EB6</title>
    <g id="EID---Legacy-Login-/-Register" stroke="none" stroke-width="1" fill="none" fill-rule="evenodd">
        <g id="login-form---Passwordless---Step-2" transform="translate(-923.000000, -669.000000)">
            <g id="Group" transform="translate(589.000000, 16.000000)">
                <g id="Selectors" transform="translate(30.000000, 173.000000)">
                    <g id="device-reg-copy-3" transform="translate(225.000000, 462.000000)">
                        <g id="icon-fido2" transform="translate(79.000000, 18.000000)">
                            <rect id="Rectangle" fill="#F1F3F5" x="17" y="1" width="35" height="6"></rect>
                            <path d="M47.5710449,35.723877 C54.2644654,35.723877 59.7095642,41.1689759 59.7095642,47.8619385 C59.7095642,54.5549011 54.2644654,60 47.5710449,60 C40.8780823,60 35.4329834,54.5549011 35.4329834,47.8619385 C35.4329834,41.1689759 40.8780823,35.723877 47.5710449,35.723877 Z M47.5710449,37.4816895 C41.8476257,37.4816895 37.1907959,42.1380615 37.1907959,47.8619385 C37.1907959,53.5858154 41.8476257,58.2421875 47.5710449,58.2421875 C53.2949219,58.2421875 57.9517517,53.5858154 57.9517517,47.8619385 C57.9517517,42.1380615 53.2949219,37.4816895 47.5710449,37.4816895 Z M50.3492126,0 C51.7710266,0 52.9277955,1.15676883 52.9277955,2.57858273 L52.9277955,2.57858273 L52.9277955,33.4460449 C52.9277955,33.9317321 52.5345764,34.3249512 52.0488892,34.3249512 C51.5636596,34.3249512 51.169983,33.9317321 51.169983,33.4460449 L51.169983,33.4460449 L51.169983,8.32855219 L17.7578125,8.32855219 L17.7578125,49.8362732 L32.6854858,49.8362732 C33.1707154,49.8362732 33.564392,50.2299499 33.564392,50.7151794 C33.564392,51.2008666 33.1707154,51.5940857 32.6854858,51.5940857 L32.6854858,51.5940857 L17.7578125,51.5940857 L17.7578125,55.5867005 C17.7578125,56.038971 18.1263122,56.4074707 18.5785827,56.4074707 L18.5785827,56.4074707 L35.6929932,56.4074707 C36.1782227,56.4074707 36.5718994,56.8006897 36.5718994,57.286377 C36.5718994,57.7716064 36.1782227,58.1652832 35.6929932,58.1652832 L35.6929932,58.1652832 L18.5785827,58.1652832 C17.1567688,58.1652832 16,57.0085144 16,55.5867005 L16,55.5867005 L16,2.57858273 C16,1.15676883 17.1567688,0 18.5785827,0 L18.5785827,0 Z M47.5710449,39.4839478 C50.1043091,39.4839478 52.1651611,41.5447998 52.1651611,44.0776062 L52.1651611,44.0776062 L52.1651611,45.3817748 L52.2402344,45.3817748 C52.9795227,45.3817748 53.5805664,45.9828186 53.5805664,46.7216491 L53.5805664,46.7216491 L53.5805664,53.4004212 C53.5805664,54.1392517 52.979065,54.7402955 52.2402344,54.7402955 L52.2402344,54.7402955 L42.9023132,54.7402955 C42.1630248,54.7402955 41.5619812,54.1392517 41.5619812,53.4004212 L41.5619812,53.4004212 L41.5619812,46.7216491 C41.5619812,45.9828186 42.1630248,45.3817748 42.9023132,45.3817748 L42.9023132,45.3817748 L42.9773864,45.3817748 L42.9773864,44.0776062 C42.9773864,41.5447998 45.0382386,39.4839478 47.5710449,39.4839478 Z M51.8227539,47.1395873 L43.3197937,47.1395873 L43.3197937,52.982483 L51.8227539,52.982483 L51.8227539,47.1395873 Z M45.1627503,48.6117553 C45.6479798,48.6117553 46.0416565,49.0054322 46.0416565,49.4906616 L46.0416565,49.4906616 L46.0416565,51.0804749 C46.0416565,51.5661621 45.6479798,51.9593811 45.1627503,51.9593811 C44.677063,51.9593811 44.283844,51.5661621 44.283844,51.0804749 L44.283844,51.0804749 L44.283844,49.4906616 C44.283844,49.0049743 44.677063,48.6117553 45.1627503,48.6117553 Z M47.5710449,48.6117553 C48.0567321,48.6117553 48.4499512,49.0054322 48.4499512,49.4906616 L48.4499512,49.4906616 L48.4499512,51.0804749 C48.4499512,51.5661621 48.0567321,51.9593811 47.5710449,51.9593811 C47.0858154,51.9593811 46.6921387,51.5661621 46.6921387,51.0804749 L46.6921387,51.0804749 L46.6921387,49.4906616 C46.6921387,49.0049743 47.0858154,48.6117553 47.5710449,48.6117553 Z M49.9802552,48.6117553 C50.4654846,48.6117553 50.8591614,49.0054322 50.8591614,49.4906616 L50.8591614,49.4906616 L50.8591614,51.0804749 C50.8591614,51.5661621 50.4654846,51.9593811 49.9802552,51.9593811 C49.4945678,51.9593811 49.1013489,51.5661621 49.1013489,51.0804749 L49.1013489,51.0804749 L49.1013489,49.4906616 C49.1013489,49.0049743 49.4945678,48.6117553 49.9802552,48.6117553 Z M47.5710449,41.2417603 C46.0073242,41.2417603 44.7351989,42.5138855 44.7351989,44.0776062 L44.7351989,44.0776062 L44.7351989,45.3817748 L50.4073486,45.3817748 L50.4073486,44.0776062 C50.4073486,42.5138855 49.1352234,41.2417603 47.5710449,41.2417603 Z M46.4513549,19.7044372 C47.5046692,19.7044372 48.3616028,20.5618287 48.3616028,21.6151429 L48.3616028,21.6151429 L48.3616028,31.3352966 C48.3616028,32.3890686 47.5046692,33.2460022 46.4513549,33.2460022 L46.4513549,33.2460022 L22.4768982,33.2460022 C21.423584,33.2460022 20.5666504,32.3890686 20.5666504,31.3352966 L20.5666504,31.3352966 L20.5666504,21.6151429 C20.5666504,20.5618287 21.423584,19.7044372 22.4768982,19.7044372 L22.4768982,19.7044372 Z M46.4508972,21.4622497 L22.4768982,21.4622497 C22.3926696,21.4622497 22.3240052,21.5309143 22.3240052,21.6151429 L22.3240052,21.6151429 L22.3240052,31.3352966 C22.3240052,31.4195251 22.3926696,31.4881897 22.4768982,31.4881897 L22.4768982,31.4881897 L46.4508972,31.4881897 C46.5351257,31.4881897 46.6037903,31.4195251 46.6037903,31.3352966 L46.6037903,31.3352966 L46.6037903,21.6151429 C46.6037903,21.5309143 46.5351257,21.4622497 46.4508972,21.4622497 L46.4508972,21.4622497 Z M28.0405579,23.8371277 C28.3138428,23.8371277 28.5532532,23.9854431 28.5646973,24.3045045 L28.5646973,24.3045045 L28.5079346,25.5807495 L29.7841797,25.1477051 C29.8414001,25.1252747 29.8867188,25.1138306 29.9324951,25.1138306 C30.2401123,25.1138306 30.4451904,25.4328919 30.4451904,25.7176208 C30.4451904,25.9112549 30.3426514,26.1053467 30.1032409,26.1506653 L30.1032409,26.1506653 L28.8723145,26.4587402 L29.7045288,27.6438904 C29.7503052,27.700653 29.7841797,27.8146362 29.7841797,27.9176331 C29.7841797,28.2362366 29.4765625,28.4532165 29.1913757,28.4532165 C29.0778503,28.4532165 28.9295349,28.4303284 28.8155518,28.2591247 L28.8155518,28.2591247 L28.0405579,27.0854187 L27.2541198,28.2705689 C27.1630248,28.4188842 27.048584,28.4532165 26.9121705,28.4532165 C26.6842041,28.4532165 26.2964782,28.2591247 26.2964782,27.9400635 C26.2964782,27.8146362 26.3536987,27.7120971 26.4219055,27.6324463 L26.4219055,27.6324463 L27.2197877,26.5155029 L25.9545288,26.1506653 C25.7265625,26.1053467 25.6240234,25.8998108 25.6240234,25.6608581 C25.6240234,25.3985596 25.8519897,25.1170349 26.1596069,25.1133728 C26.3742981,25.111084 27.5731811,25.5693054 27.5731811,25.5693054 L27.5731811,25.5693054 L27.5159607,24.3045045 C27.5274048,23.9854431 27.7668152,23.8371277 28.0405579,23.8371277 Z M34.901062,23.8371277 C35.1748047,23.8371277 35.4142151,23.9854431 35.4256592,24.3045045 L35.4256592,24.3045045 L35.3684388,25.5807495 L36.6451416,25.1477051 C36.7019043,25.1252747 36.7476807,25.1138306 36.793457,25.1138306 C37.1010742,25.1138306 37.3061523,25.4328919 37.3061523,25.7176208 C37.3061523,25.9112549 37.2036133,26.1053467 36.9642029,26.1506653 L36.9642029,26.1506653 L35.7332764,26.4587402 L36.5650329,27.6438904 C36.6108093,27.700653 36.6451416,27.8146362 36.6451416,27.9176331 C36.6451416,28.2362366 36.3375244,28.4532165 36.0523376,28.4532165 C35.9383545,28.4532165 35.7904968,28.4303284 35.6760559,28.2591247 L35.6760559,28.2591247 L34.901062,27.0854187 L34.114624,28.2705689 C34.023529,28.4188842 33.9095459,28.4532165 33.7726745,28.4532165 C33.545166,28.4532165 33.1574402,28.2591247 33.1574402,27.9400635 C33.1574402,27.8146362 33.2146607,27.7120971 33.2828675,27.6324463 L33.2828675,27.6324463 L34.0807495,26.5155029 L32.8154908,26.1506653 C32.5875244,26.1053467 32.4849854,25.8998108 32.4849854,25.6608581 C32.4849854,25.3985596 32.7129517,25.1133728 33.0205689,25.1133728 C33.0549011,25.1133728 33.1006775,25.1133728 33.1688842,25.1477051 L33.1688842,25.1477051 L34.4341431,25.5693054 L34.3769226,24.3045045 C34.3883666,23.9854431 34.6277771,23.8371277 34.901062,23.8371277 Z M41.762024,23.8371277 C42.0357666,23.8371277 42.275177,23.9854431 42.2866211,24.3045045 L42.2866211,24.3045045 L42.2294007,25.5807495 L43.5061035,25.1477051 C43.5628662,25.1252747 43.6086426,25.1138306 43.6539612,25.1138306 C43.9620361,25.1138306 44.1671143,25.4328919 44.1671143,25.7176208 C44.1671143,25.9112549 44.0645752,26.1053467 43.8251648,26.1506653 L43.8251648,26.1506653 L42.5942383,26.4587402 L43.4259948,27.6438904 C43.4717712,27.700653 43.5061035,27.8146362 43.5061035,27.9176331 C43.5061035,28.2362366 43.1984863,28.4532165 42.9132995,28.4532165 C42.7993164,28.4532165 42.6514587,28.4303284 42.5370179,28.2591247 L42.5370179,28.2591247 L41.762024,27.0854187 L40.9755859,28.2705689 C40.8844909,28.4188842 40.7705078,28.4532165 40.6336364,28.4532165 C40.4056702,28.4532165 40.0184021,28.2591247 40.0184021,27.9400635 C40.0184021,27.8146362 40.0751648,27.7120971 40.1438294,27.6324463 L40.1438294,27.6324463 L40.9417115,26.5155029 L39.6764526,26.1506653 C39.4484863,26.1053467 39.3459473,25.8998108 39.3459473,25.6608581 C39.3459473,25.3985596 39.5739135,25.1133728 39.8815307,25.1133728 C39.915863,25.1133728 39.9611816,25.1133728 40.0298463,25.1477051 L40.0298463,25.1477051 L41.2946472,25.5693054 L41.2378845,24.3045045 C41.2493287,23.9854431 41.488739,23.8371277 41.762024,23.8371277 Z M50.3492126,1.7578125 L18.5785827,1.7578125 C18.1258545,1.7578125 17.7578125,2.12585449 17.7578125,2.57858273 L17.7578125,2.57858273 L17.7578125,6.57073969 L51.169983,6.57073969 L51.169983,2.57858273 C51.169983,2.12585449 50.8019409,1.7578125 50.3492126,1.7578125 L50.3492126,1.7578125 Z M35.8490905,3.14712527 C36.33432,3.14712527 36.7279968,3.5403443 36.7279968,4.02603152 C36.7279968,4.51126102 36.33432,4.90493777 35.8490905,4.90493777 L35.8490905,4.90493777 L32.0990905,4.90493777 C31.6138611,4.90493777 31.2201843,4.51126102 31.2201843,4.02603152 C31.2201843,3.5403443 31.6138611,3.14712527 32.0990905,3.14712527 L32.0990905,3.14712527 Z" id="Combined-Shape" fill="#D2D2D9" fill-rule="nonzero"></path>
                            <path d="M11.875,28 C12.2201875,28 12.5,28.2798125 12.5,28.625 L12.5,28.625 L12.5,38 L13.125,38 C13.4701875,38 13.75,38.2798125 13.75,38.625 L13.75,38.625 L13.75,53.125 C13.75,56.915875 10.665875,60 6.875,60 C3.084125,60 0,56.915875 0,53.125 L0,53.125 L0,38.625 C0,38.2798125 0.2798125,38 0.625,38 L0.625,38 L1.25,38 L1.25,28.625 C1.25,28.2798125 1.5298125,28 1.875,28 L1.875,28 Z M12.5,39.25 L1.25,39.25 L1.25,53.125 C1.25,56.226625 3.773375,58.75 6.875,58.75 C9.976625,58.75 12.5,56.226625 12.5,53.125 L12.5,53.125 L12.5,39.25 Z M6.875,48.75 C9.287375,48.75 11.25,50.712625 11.25,53.125 C11.25,55.537375 9.287375,57.5 6.875,57.5 C4.462625,57.5 2.5,55.537375 2.5,53.125 C2.5,50.712625 4.462625,48.75 6.875,48.75 Z M6.875,50 C5.151875,50 3.75,51.401875 3.75,53.125 C3.75,54.848125 5.151875,56.25 6.875,56.25 C8.598125,56.25 10,54.848125 10,53.125 C10,51.401875 8.598125,50 6.875,50 Z M11.25,29.25 L7.5,29.25 L7.5,38 L11.25,38 L11.25,29.25 Z M6.25,29.25 L2.5,29.25 L2.5,38 L6.25,38 L6.25,29.25 Z" id="Combined-Shape" fill="#D2D2D9" fill-rule="nonzero"></path>
                        </g>
                    </g>
                </g>
            </g>
        </g>
    </g>
</svg>