<?xml version="1.0" encoding="UTF-8"?>
<svg width="102px" height="34px" viewBox="0 0 102 34" version="1.1" xmlns="http://www.w3.org/2000/svg" xmlns:xlink="http://www.w3.org/1999/xlink">
    <title>6B7D2A79-99A5-44F0-A4B0-5E7A3681568C</title>
    <g id="EID---Legacy-Login-/-Register" stroke="none" stroke-width="1" fill="none" fill-rule="evenodd">
        <g id="login-form---Passwordless---Step-2" transform="translate(-676.000000, -530.000000)" stroke="#D2D2D9">
            <g id="Group" transform="translate(589.000000, 16.000000)">
                <g id="Selectors" transform="translate(30.000000, 173.000000)">
                    <g id="device-reg-copy" transform="translate(0.000000, 308.000000)">
                        <g id="DUO-2" transform="translate(58.000000, 34.000000)">
                            <path d="M0,32 L0,17 L32,17 C31.5827829,25.3535322 24.5834858,32 16.0099798,32 L0,32 Z" id="Fill-1" fill="#F1F3F5"></path>
                            <path d="M16.0099798,0 L0,0 L0,15 L32,15 C31.5827829,6.64653285 24.5834858,0 16.0099798,0" id="Fill-3"></path>
                            <path d="M83.9999255,0 C75.4210286,0 68.4172559,6.64653285 68,15 L100,15 C99.5826696,6.64653285 92.5788969,0 83.9999255,0" id="Fill-5"></path>
                            <path d="M83.9999255,32 C75.4210286,32 68.4172559,25.3535322 68,17 L100,17 C99.5826696,25.3535322 92.5788969,32 83.9999255,32" id="Fill-7" fill="#F1F3F5"></path>
                            <path d="M34,0 L34,16.0099054 C34,24.5834858 40.6464678,31.5827829 49,32 L49,0 L34,0" id="Fill-9"></path>
                            <polygon id="Fill-11" points="66 32 51 32 51 0 66 0 66 15.9999628"></polygon>
                        </g>
                    </g>
                </g>
            </g>
        </g>
    </g>
</svg>