<?xml version="1.0" encoding="UTF-8"?>
<svg width="52px" height="62px" viewBox="0 0 52 62" version="1.1" xmlns="http://www.w3.org/2000/svg" xmlns:xlink="http://www.w3.org/1999/xlink">
    <title>028DF90D-B97E-42F9-9DBF-CC963653E0DA</title>
    <g id="EID---Legacy-Login-/-Register" stroke="none" stroke-width="1" fill="none" fill-rule="evenodd" stroke-linecap="round" stroke-linejoin="round">
        <g id="login-form---Passwordless---Step-2" transform="translate(-934.000000, -206.000000)" stroke="#D2D2D9" stroke-width="1.5">
            <g id="Group" transform="translate(589.000000, 16.000000)">
                <g id="Selectors" transform="translate(30.000000, 173.000000)">
                    <g id="eid-auth" transform="translate(225.000000, 0.000000)">
                        <g id="Mobile-Auth" transform="translate(91.000000, 18.000000)">
                            <line x1="33.8793103" y1="49.3965517" x2="0.25862069" y2="49.3965517" id="Path"></line>
                            <path d="M17.0689655,53.9224138 C17.4260462,53.9224138 17.7155172,54.2118849 17.7155172,54.5689655 L17.7155172,54.5689655 C17.7155172,54.9260462 17.4260462,55.2155172 17.0689655,55.2155172 L17.0689655,55.2155172 C16.7118849,55.2155172 16.4224138,54.9260462 16.4224138,54.5689655 L16.4224138,54.5689655 C16.4224138,54.2118849 16.7118849,53.9224138 17.0689655,53.9224138" id="Path"></path>
                            <line x1="17.0689655" y1="53.9224138" x2="17.0689655" y2="53.9224138" id="Path"></line>
                            <path d="M33.8793103,39.0517241 L33.8793103,54.5689655 C33.8793103,57.4256108 31.5635418,59.7413793 28.7068966,59.7413793 L5.43103448,59.7413793 C2.57438923,59.7413793 0.25862069,57.4256108 0.25862069,54.5689655 L0.25862069,5.43103448 C0.25862069,2.57438923 2.57438923,0.25862069 5.43103448,0.25862069 L19.6551724,0.25862069" id="Path"></path>
                            <circle id="Oval" fill="#F1F3F5" cx="33.8793103" cy="15.7758621" r="15.5172414"></circle>
                            <path d="M40.7948276,11.2655172 L33.2948276,21.2818966 C32.9567019,21.7310541 32.4407511,22.0119158 31.879985,22.0520768 C31.3192189,22.0922377 30.7685097,21.8877681 30.3698276,21.4913793 L26.4905172,17.612069" id="Path"></path>
                        </g>
                    </g>
                </g>
            </g>
        </g>
    </g>
</svg>