<?xml version="1.0" encoding="UTF-8"?>
<svg width="41px" height="62px" viewBox="0 0 41 62" version="1.1" xmlns="http://www.w3.org/2000/svg" xmlns:xlink="http://www.w3.org/1999/xlink">
    <title>10492532-1493-4535-B118-8CB7188CA25F</title>
    <g id="EID---Legacy-Login-/-Register" stroke="none" stroke-width="1" fill="none" fill-rule="evenodd" stroke-linecap="round" stroke-linejoin="round">
        <g id="login-form---Passwordless---Step-2" transform="translate(-705.000000, -206.000000)" stroke="#D2D2D9" stroke-width="1.5">
            <g id="Group" transform="translate(589.000000, 16.000000)">
                <g id="Selectors" transform="translate(30.000000, 173.000000)">
                    <g id="Sec-Key" transform="translate(87.000000, 18.000000)">
                        <circle id="Oval" cx="19.5833333" cy="40.4166667" r="19.53125"></circle>
                        <circle id="Oval" fill="#F1F3F5" cx="19.5833333" cy="40.4166667" r="10.4166667"></circle>
                        <line x1="19.5833333" y1="27.3958333" x2="19.5833333" y2="32.6041667" id="Path"></line>
                        <line x1="19.5833333" y1="48.2291667" x2="19.5833333" y2="53.4375" id="Path"></line>
                        <line x1="32.6041667" y1="40.4166667" x2="27.3958333" y2="40.4166667" id="Path"></line>
                        <line x1="11.7708333" y1="40.4166667" x2="6.5625" y2="40.4166667" id="Path"></line>
                        <path d="M19.5833333,39.765625 L19.5833333,39.765625 C19.9428937,39.765625 20.234375,40.0571063 20.234375,40.4166667 L20.234375,40.4166667 C20.234375,40.7762271 19.9428937,41.0677083 19.5833333,41.0677083 L19.5833333,41.0677083 C19.2237729,41.0677083 18.9322917,40.7762271 18.9322917,40.4166667 L18.9322917,40.4166667 C18.9322917,40.0571063 19.2237729,39.765625 19.5833333,39.765625" id="Path"></path>
                        <path d="M33.90625,27.1536458 L33.90625,14.375 C33.90625,6.46467155 27.4936618,0.0520833333 19.5833333,0.0520833333 C11.6730049,0.0520833333 5.26041667,6.46467155 5.26041667,14.375 L5.26041667,27.1536458" id="Path"></path>
                    </g>
                </g>
            </g>
        </g>
    </g>
</svg>