<?xml version="1.0" encoding="UTF-8"?>
<svg width="60px" height="61px" viewBox="0 0 60 61" version="1.1" xmlns="http://www.w3.org/2000/svg" xmlns:xlink="http://www.w3.org/1999/xlink">
    <title>E4471C13-F8CB-4EF6-972F-C9B677787C2F</title>
    <g id="EID---Legacy-Login-/-Register" stroke="none" stroke-width="1" fill="none" fill-rule="evenodd">
        <g id="login-form---Passwordless---Step-2" transform="translate(-697.000000, -668.000000)">
            <g id="Group" transform="translate(589.000000, 16.000000)">
                <g id="Selectors" transform="translate(30.000000, 173.000000)">
                    <g id="device-reg-copy-3" transform="translate(0.000000, 462.000000)">
                        <g id="TOTP" transform="translate(79.000000, 18.000000)">
                            <g id="desktop-lock" transform="translate(0.000000, 1.000000)">
                                <path d="M21.845,57.75 C23.9167311,54.8128024 25.0988293,51.3411484 25.25,47.75" id="Path" stroke="#D2D2D9" stroke-width="1.5" stroke-linecap="round" stroke-linejoin="round"></path>
                                <path d="M36.155,57.75 C34.0832689,54.8128024 32.9011707,51.3411484 32.75,47.75" id="Path" stroke="#D2D2D9" stroke-width="1.5" stroke-linecap="round" stroke-linejoin="round"></path>
                                <line x1="17.75" y1="57.75" x2="40.25" y2="57.75" id="Path" stroke="#D2D2D9" stroke-width="1.5" stroke-linecap="round" stroke-linejoin="round"></line>
                                <path d="M0,40 L58,40 L58,45 C58,46.1045695 57.1045695,47 56,47 L2,47 C0.8954305,47 1.3527075e-16,46.1045695 0,45 L0,40 L0,40 Z" id="Rectangle" fill="#F1F3F5"></path>
                                <line x1="0.25" y1="40.25" x2="57.75" y2="40.25" id="Path" stroke="#D2D2D9" stroke-width="1.5" stroke-linecap="round" stroke-linejoin="round"></line>
                                <path d="M35.25,0.25 L2.75,0.25 C1.36928813,0.25 0.25,1.36928813 0.25,2.75 L0.25,45.25 C0.25,46.6307119 1.36928813,47.75 2.75,47.75 L55.25,47.75 C56.6307119,47.75 57.75,46.6307119 57.75,45.25 L57.75,32.75" id="Path" stroke="#D2D2D9" stroke-width="1.5" stroke-linecap="round" stroke-linejoin="round"></path>
                                <path d="M36.25,27.75 L13.5,27.75 C11.7050746,27.75 10.25,26.6307119 10.25,25.25 L10.25,15.25 C10.25,13.8692881 11.7050746,12.75 13.5,12.75 L36.25,12.75" id="Path" stroke="#D2D2D9" stroke-width="1.5" stroke-linecap="round" stroke-linejoin="round"></path>
                            </g>
                            <g id="mobile-phone-2" transform="translate(42.000000, 0.000000)">
                                <path d="M8.16666667,24.7916667 C8.32774972,24.7916667 8.45833333,24.9222503 8.45833333,25.0833333 L8.45833333,25.0833333 C8.45833333,25.2444164 8.32774972,25.375 8.16666667,25.375 L8.16666667,25.375 C8.00558361,25.375 7.875,25.2444164 7.875,25.0833333 L7.875,25.0833333 C7.875,24.9222503 8.00558361,24.7916667 8.16666667,24.7916667" id="Path" stroke="#D2D2D9" stroke-width="1.5" stroke-linecap="round" stroke-linejoin="round"></path>
                                <rect id="Rectangle" fill="#F1F3F5" x="1" y="1" width="15" height="22"></rect>
                                <line x1="15.75" y1="22.75" x2="0.583333333" y2="22.75" id="Path" stroke="#D2D2D9" stroke-width="1.5" stroke-linecap="round" stroke-linejoin="round"></line>
                                <line x1="8.16666667" y1="24.7916667" x2="8.16666667" y2="24.7916667" id="Path" stroke="#D2D2D9" stroke-width="1.5" stroke-linecap="round" stroke-linejoin="round"></line>
                                <rect id="Rectangle" stroke="#D2D2D9" stroke-width="1.5" stroke-linecap="round" stroke-linejoin="round" x="0.583333333" y="0.583333333" width="15.1666667" height="26.8333333" rx="2.33333333"></rect>
                            </g>
                            <g id="pw" transform="translate(19.000000, 19.000000)" stroke="#D2D2D9" stroke-linecap="round" stroke-linejoin="round">
                                <line x1="1.672" y1="0" x2="1.672" y2="4" id="Path"></line>
                                <line x1="3.345" y1="0.903" x2="-1.00142117e-13" y2="3.097" id="Path"></line>
                                <line x1="3.336" y1="3.11" x2="0.008" y2="0.89" id="Path"></line>
                                <line x1="11.672" y1="0" x2="11.672" y2="4" id="Path"></line>
                                <line x1="13.345" y1="0.903" x2="10" y2="3.097" id="Path"></line>
                                <line x1="13.336" y1="3.11" x2="10.008" y2="0.89" id="Path"></line>
                            </g>
                        </g>
                    </g>
                </g>
            </g>
        </g>
    </g>
</svg>