<?xml version="1.0" encoding="UTF-8"?>
<svg width="60px" height="60px" viewBox="0 0 60 60" version="1.1" xmlns="http://www.w3.org/2000/svg" xmlns:xlink="http://www.w3.org/1999/xlink">
    <title>0CFBEE92-9EFA-4F95-B913-BE3022239132</title>
    <g id="EID---Legacy-Login-/-Register" stroke="none" stroke-width="1" fill="none" fill-rule="evenodd">
        <g id="login-form---Passwordless---Step-2" transform="translate(-698.000000, -823.000000)" fill="#D2D2D9" fill-rule="nonzero">
            <g id="Group" transform="translate(589.000000, 16.000000)">
                <g id="Selectors" transform="translate(30.000000, 173.000000)">
                    <g id="device-reg-copy-3" transform="translate(0.000000, 616.000000)">
                        <g id="Icon-none-Copy" transform="translate(79.000000, 18.000000)">
                            <path d="M29.9839322,-2.41229259e-12 C46.5172881,-2.41229259e-12 59.9680678,13.4507797 59.9680678,29.9837288 C59.9680678,33.711661 59.292,37.3496949 57.9587797,40.7969492 C57.7155254,41.4256271 57.0091525,41.7376271 56.3802712,41.4949831 C55.7515932,41.2517288 55.4391864,40.5451525 55.6822373,39.9164746 C56.9064407,36.751322 57.5271864,33.4094237 57.5271864,29.9839322 C57.5271864,14.7966102 45.1712542,2.44067797 29.9839322,2.44067797 C14.7966102,2.44067797 2.44067797,14.7964068 2.44067797,29.9839322 C2.44067797,45.1714576 14.7966102,57.5273898 29.9841356,57.5271864 C37.1373559,57.5271864 43.9157288,54.7978983 49.0706441,49.8418983 C49.5567458,49.3747119 50.3292203,49.3901695 50.796,49.8758644 C51.2631864,50.3615593 51.2479322,51.1342373 50.7620339,51.6012203 C45.1501017,56.9965424 37.7711186,59.9678644 29.9839322,59.9678644 C13.4507797,59.9678644 3.73034936e-13,46.5170847 3.73034936e-13,29.9839322 C3.73034936e-13,13.4507797 13.4507797,-2.41229259e-12 29.9839322,-2.41229259e-12 Z M32.3662373,32.5879322 C32.8374915,32.1065085 33.6099661,32.0979661 34.092,32.5696271 L34.092,32.5696271 L43.699322,41.9733559 C44.1807458,42.4448136 44.1890847,43.2174915 43.7176271,43.6991186 C43.4786441,43.9431864 43.1621695,44.0658305 42.8454915,44.0658305 C42.5375593,44.0658305 42.2294237,43.9501017 41.9918644,43.7176271 L41.9918644,43.7176271 L32.3845424,34.3136949 C31.9031186,33.8422373 31.8947797,33.0695593 32.3662373,32.5879322 Z M41.9827119,16.2593898 C42.4590508,15.7828475 43.2319322,15.7828475 43.7084746,16.2593898 C44.1850169,16.7361356 44.1850169,17.5086102 43.7084746,17.9853559 L43.7084746,17.9853559 L17.9853559,43.7084746 C17.7469831,43.9466441 17.4347797,44.0658305 17.1223729,44.0658305 C16.8099661,44.0658305 16.4975593,43.9466441 16.2593898,43.7084746 C15.7828475,43.2319322 15.7828475,42.4592542 16.2593898,41.9827119 L16.2593898,41.9827119 Z M16.2595932,16.2593898 C16.7359322,15.7828475 17.5088136,15.7828475 17.9853559,16.2593898 L17.9853559,16.2593898 L27.1858983,25.4599322 C27.6624407,25.9364746 27.6624407,26.7091525 27.1858983,27.1856949 C26.9475254,27.4238644 26.635322,27.5430508 26.3229153,27.5430508 C26.0105085,27.5430508 25.6981017,27.4238644 25.4599322,27.1856949 L25.4599322,27.1856949 L16.2595932,17.9851525 C15.7830508,17.5086102 15.7830508,16.7359322 16.2595932,16.2593898 Z" id="Combined-Shape"></path>
                        </g>
                    </g>
                </g>
            </g>
        </g>
    </g>
</svg>