<?xml version="1.0" encoding="UTF-8"?>
<svg width="62px" height="62px" viewBox="0 0 62 62" version="1.1" xmlns="http://www.w3.org/2000/svg" xmlns:xlink="http://www.w3.org/1999/xlink">
    <title>304BA11A-2999-47DF-B295-F6FE13B04E29</title>
    <g id="EID---Legacy-Login-/-Register" stroke="none" stroke-width="1" fill="none" fill-rule="evenodd" stroke-linecap="round" stroke-linejoin="round">
        <g id="login-form---Passwordless---Step-2" transform="translate(-699.000000, -360.000000)" stroke="#D2D2D9" stroke-width="1.5">
            <g id="Group" transform="translate(589.000000, 16.000000)">
                <g id="Selectors" transform="translate(30.000000, 173.000000)">
                    <g id="device-reg" transform="translate(0.000000, 154.000000)">
                        <g id="Device-Reg" transform="translate(81.000000, 18.000000)">
                            <rect id="Rectangle" fill="#F1F3F5" x="36.5104167" y="39.1171875" width="23.4375" height="20.8307292" rx="2.60416667"></rect>
                            <circle id="Oval" cx="48.2291667" cy="49.6953125" r="3.25520833"></circle>
                            <path d="M54.7395833,35.2083333 C54.7395833,31.6127296 51.8247704,28.6979169 48.2291667,28.6979169 C44.6335629,28.6979169 41.71875,31.6127296 41.71875,35.2083333 L41.71875,39.1145833 L54.7395833,39.1145833 L54.7395833,35.2083333 Z" id="Path"></path>
                            <line x1="13.0729167" y1="44.3229167" x2="31.3020833" y2="44.3229167" id="Path"></line>
                            <line x1="0.0520833333" y1="28.6979167" x2="36.5104167" y2="28.6979167" id="Path"></line>
                            <path d="M20.8854167,36.5104167 L20.8854167,40.4166667 C20.8854167,42.574029 19.136529,44.3229167 16.9791667,44.3229167" id="Path"></path>
                            <path d="M31.3020833,36.5104167 L2.65625,36.5104167 C1.21800846,36.5104167 0.0520833333,35.3444915 0.0520833333,33.90625 L0.0520833333,2.65625 C0.0520833333,1.21800846 1.21800846,0.0520833333 2.65625,0.0520833333 L49.53125,0.0520833333 C50.9694915,0.0520833333 52.1354167,1.21800846 52.1354167,2.65625 L52.1354167,23.4895833" id="Path"></path>
                        </g>
                    </g>
                </g>
            </g>
        </g>
    </g>
</svg>