<?xml version="1.0" encoding="UTF-8"?>
<svg width="62px" height="62px" viewBox="0 0 62 62" version="1.1" xmlns="http://www.w3.org/2000/svg" xmlns:xlink="http://www.w3.org/1999/xlink">
    <title>8BA7D192-1255-4C80-8028-46F07F45C140</title>
    <g id="EID---Legacy-Login-/-Register" stroke="none" stroke-width="1" fill="none" fill-rule="evenodd" stroke-linecap="round" stroke-linejoin="round">
        <g id="login-form---Passwordless---Step-2" transform="translate(-920.000000, -360.000000)" stroke="#848992" stroke-width="1.5">
            <g id="Group" transform="translate(589.000000, 16.000000)">
                <g id="Selectors" transform="translate(30.000000, 173.000000)">
                    <g id="one-time-pw" transform="translate(225.000000, 154.000000)">
                        <g id="OTP" transform="translate(77.000000, 18.000000)">
                            <path d="M23.4895833,49.53125 L5.26041667,49.53125 C2.38393359,49.53125 0.0520833333,47.1993997 0.0520833333,44.3229167 L0.0520833333,5.26041667 C0.0520833333,2.38393359 2.38393359,0.0520833333 5.26041667,0.0520833333 L54.7395833,0.0520833333 C57.6160664,0.0520833333 59.9479167,2.38393359 59.9479167,5.26041667 L59.9479167,23.4895833" id="Path"></path>
                            <path d="M48.3541667,45.4739583 L59.9479167,33.90625 L59.9479167,28.6979167 L54.7395833,28.6979167 L42.828125,39.9505208 C38.2373924,38.005631 32.9122097,39.58638 30.1261517,43.7210267 C27.3400937,47.8556733 27.8744394,53.3847613 31.4007079,56.909368 C34.9269764,60.4339747 40.4563155,60.9657141 44.5896485,58.1777075 C48.7229814,55.3897009 50.3012202,50.0637736 48.3541667,45.4739583 L48.3541667,45.4739583 Z" id="Path" fill="#F1F3F5"></path>
                            <line x1="0.0520833333" y1="13.0729167" x2="59.9479167" y2="13.0729167" id="Path"></line>
                            <path d="M9.16666667,5.91145833 C9.52622705,5.91145833 9.81770833,6.20293962 9.81770833,6.5625 C9.81770833,6.92206038 9.52622705,7.21354167 9.16666667,7.21354167 C8.80710628,7.21354167 8.515625,6.92206038 8.515625,6.5625 C8.515625,6.20293962 8.80710628,5.91145833 9.16666667,5.91145833" id="Path"></path>
                            <path d="M16.9791667,5.91145833 C17.3387271,5.91145833 17.6302083,6.20293962 17.6302083,6.5625 C17.6302083,6.92206038 17.3387271,7.21354167 16.9791667,7.21354167 C16.6196063,7.21354167 16.328125,6.92206038 16.328125,6.5625 C16.328125,6.20293962 16.6196063,5.91145833 16.9791667,5.91145833" id="Path"></path>
                            <path d="M24.7916667,5.91145833 C25.1512271,5.91145833 25.4427083,6.20293962 25.4427083,6.5625 C25.4427083,6.92206038 25.1512271,7.21354167 24.7916667,7.21354167 C24.4321063,7.21354167 24.140625,6.92206038 24.140625,6.5625 C24.140625,6.20293962 24.4321063,5.91145833 24.7916667,5.91145833" id="Path"></path>
                            <path d="M27.3958333,36.5104167 L9.16666667,36.5104167 C8.4475459,36.5104167 7.86458333,35.9274541 7.86458333,35.2083333 L7.86458333,27.3958333 C7.86458333,26.6767126 8.4475459,26.09375 9.16666667,26.09375 L46.9270833,26.09375" id="Path"></path>
                            <path d="M41.4713542,51.4348958 C40.2000277,52.7058872 38.1390998,52.705706 36.8679967,51.4344912 C35.5968937,50.1632764 35.5968937,48.1023486 36.8679967,46.8311338 C38.1390998,45.559919 40.2000277,45.5597378 41.4713542,46.8307292 C42.7415598,48.1026315 42.7415598,50.1629935 41.4713542,51.4348958 Z" id="Path"></path>
                        </g>
                    </g>
                </g>
            </g>
        </g>
    </g>
</svg>