<?xml version="1.0" encoding="UTF-8"?>
<svg width="16px" height="15px" viewBox="0 0 16 15" version="1.1" xmlns="http://www.w3.org/2000/svg" xmlns:xlink="http://www.w3.org/1999/xlink">
    <title>14504C11-C484-4803-AF9E-88EB0DAE639B</title>
    <g id="EID---Legacy-Login-/-Register" stroke="none" stroke-width="1" fill="none" fill-rule="evenodd">
        <g id="login-form---Step-3" transform="translate(-523.000000, -173.000000)" fill="#544E52">
            <g id="form" transform="translate(493.000000, 140.000000)">
                <g id="back" transform="translate(30.000000, 32.000000)">
                    <g id="arrow-back" transform="translate(0.000000, 1.000000)">
                        <path d="M15.4285714,7.80952381 L0.571428571,7.80952381 C0.256,7.80952381 0,7.55352381 0,7.23809524 C0,6.92266667 0.256,6.66666667 0.571428571,6.66666667 L15.4285714,6.66666667 C15.744,6.66666667 16,6.92266667 16,7.23809524 C16,7.55352381 15.744,7.80952381 15.4285714,7.80952381" id="Fill-1"></path>
                        <path d="M6.85714286,14.0952381 C6.71085714,14.0952381 6.56457143,14.0392381 6.45257143,13.928381 L0.166857143,7.64266667 C-0.056,7.41866667 -0.056,7.05752381 0.166857143,6.83352381 L6.45257143,0.547809524 C6.67657143,0.324952381 7.03771429,0.324952381 7.26171429,0.547809524 C7.48457143,0.771809524 7.48457143,1.13295238 7.26171429,1.35695238 L1.37942857,7.23809524 L7.26171429,13.1192381 C7.48457143,13.3432381 7.48457143,13.704381 7.26171429,13.928381 C7.14971429,14.0392381 7.00342857,14.0952381 6.85714286,14.0952381" id="Fill-3"></path>
                    </g>
                </g>
            </g>
        </g>
    </g>
</svg>