<?xml version="1.0" encoding="UTF-8"?>
<svg width="30px" height="30px" viewBox="0 0 30 30" version="1.1" xmlns="http://www.w3.org/2000/svg" xmlns:xlink="http://www.w3.org/1999/xlink">
    <title>77A1248B-BE0E-4E0C-A25E-48BBB59877B0</title>
    <g id="EID---Legacy-Login-/-Register" stroke="none" stroke-width="1" fill="none" fill-rule="evenodd">
        <g id="login-form---Step-1" transform="translate(-669.000000, -761.000000)" fill="#307FC1">
            <g id="form" transform="translate(493.000000, 140.000000)">
                <g id="footer-chat" transform="translate(0.000000, 606.000000)">
                    <g id="chat-icon" transform="translate(176.000000, 15.000000)">
                        <path d="M3.92001424,9.03 C4.19601424,8.994 4.44901424,9.189 4.48501424,9.465 C4.52101424,9.741 4.32601424,9.994 4.05001424,10.03 C2.30601424,10.256 1.00051424,11.7415 1.00000711,13.5 L1.00000711,13.5 L1.00000711,21.5 C1.00000711,23.433 2.56701424,25 4.50000711,25 L4.50000711,25 L9.84501424,25 C10.0295142,25.0005 10.1985142,25.1025 10.2850142,25.265 L10.2850142,25.265 L12.0000071,28.445 L13.7150142,25.265 C13.8015142,25.1025 13.9705142,25.0005 14.1550142,25 L14.1550142,25 L19.5000071,25 C21.4330142,25 23.0000071,23.433 23.0000071,21.5 L23.0000071,21.5 L23.0000071,19 C23.0000071,18.724 23.2235142,18.5 23.5000071,18.5 C23.7765142,18.5 24.0000071,18.724 24.0000071,19 L24.0000071,19 L24.0000071,21.5 C24.0000071,23.985 21.9855142,26 19.5000071,26 L19.5000071,26 L14.4250142,26 L12.4250142,29.735 C12.3785142,29.821 12.3085142,29.8915 12.2225142,29.9375 C11.9795142,30.0685 11.6765142,29.9785 11.5450142,29.735 L11.5450142,29.735 L9.54501424,26 L4.50000711,26 C2.01451424,26 7.10661734e-06,23.985 7.10661734e-06,21.5 L7.10661734e-06,21.5 L7.10661734e-06,13.5 C-0.00398576138,11.236 1.67501424,9.322 3.92001424,9.03 Z M25.5000142,-3.69482223e-13 C27.9855142,-3.69482223e-13 30.0000142,2.015 30.0000142,4.5 L30.0000142,4.5 L30.0000142,12.5 C30.0000142,14.9855 27.9855142,17 25.5000142,17 L25.5000142,17 L20.4250142,17 L18.4250142,20.735 C18.3790142,20.821 18.3080142,20.8915 18.2225142,20.9375 C17.9795142,21.0685 17.6765142,20.9785 17.5450142,20.735 L17.5450142,20.735 L15.5450142,17 L10.5000142,17 C8.01451424,17 6.00001424,14.9855 6.00001424,12.5 L6.00001424,12.5 L6.00001424,4.5 C6.00001424,2.015 8.01451424,-3.69482223e-13 10.5000142,-3.69482223e-13 L10.5000142,-3.69482223e-13 Z M12.5000142,6.5 C11.6715142,6.5 11.0000142,7.1715 11.0000142,8 C11.0000142,8.8285 11.6715142,9.5 12.5000142,9.5 C13.3285142,9.5 14.0000142,8.8285 14.0000142,8 C14.0000142,7.1715 13.3285142,6.5 12.5000142,6.5 Z M18.0000142,6.5 C17.1715142,6.5 16.5000142,7.1715 16.5000142,8 C16.5000142,8.8285 17.1715142,9.5 18.0000142,9.5 C18.8285142,9.5 19.5000142,8.8285 19.5000142,8 C19.5000142,7.1715 18.8285142,6.5 18.0000142,6.5 Z M23.5000142,6.5 C22.6715142,6.5 22.0000142,7.1715 22.0000142,8 C22.0000142,8.8285 22.6715142,9.5 23.5000142,9.5 C24.3285142,9.5 25.0000142,8.8285 25.0000142,8 C25.0000142,7.1715 24.3285142,6.5 23.5000142,6.5 Z" id="chat"></path>
                    </g>
                </g>
            </g>
        </g>
    </g>
</svg>