<?xml version="1.0" encoding="UTF-8"?>
<svg width="20px" height="21px" viewBox="0 0 20 21" version="1.1" xmlns="http://www.w3.org/2000/svg" xmlns:xlink="http://www.w3.org/1999/xlink">
    <title>2F47C6E7-4B36-4ADA-AAC9-2255C6FFAD9D</title>
    <g id="EID---Legacy-Login-/-Register" stroke="none" stroke-width="1" fill="none" fill-rule="evenodd">
        <g id="login-form---Step-1" transform="translate(-741.000000, -621.000000)" fill="#3B5998" fill-rule="nonzero">
            <g id="form" transform="translate(493.000000, 140.000000)">
                <g id="content" transform="translate(0.000000, 79.000000)">
                    <g id="social" transform="translate(25.000000, 392.000000)">
                        <g id="buttons/outline/small/social-login/left/normal" transform="translate(208.000000, 0.000000)">
                            <g id="facebook" transform="translate(15.000000, 10.029895)">
                                <path d="M19.1670588,0 L0.834117647,0 C0.373906241,0 0.000649099304,0.372730228 0,0.832941176 L0,19.1670588 C0,19.6270588 0.372941176,20 0.834117647,20 L10.6258824,20 L10.6258824,12.5 L8.12588235,12.5 L8.12588235,9.37529412 L10.6258824,9.37529412 L10.6258824,6.87529412 C10.6258824,4.29176471 12.2611765,3.02117647 14.5647059,3.02117647 C15.6682353,3.02117647 16.6176471,3.10352941 16.8941176,3.13882353 L16.8941176,5.83882353 L15.2964706,5.83882353 C14.0423529,5.83882353 13.7505882,6.43529412 13.7505882,7.30941176 L13.7505882,9.37529412 L16.8752941,9.37529412 L16.2505882,12.5 L13.7505882,12.5 L13.8,20 L19.1670588,20 C19.6270795,20 20,19.6270795 20,19.1670588 L20,0.832941176 C20,0.372920467 19.6270795,0 19.1670588,0" id="Path"></path>
                            </g>
                        </g>
                    </g>
                </g>
            </g>
        </g>
    </g>
</svg>