<?xml version="1.0" encoding="UTF-8"?>
<svg width="40px" height="48px" viewBox="0 0 40 48" version="1.1" xmlns="http://www.w3.org/2000/svg" xmlns:xlink="http://www.w3.org/1999/xlink">
    <title>EB52372A-BBFA-42F7-8150-348AC64295C1</title>
    <g id="EID---Legacy-Login-/-Register" stroke="none" stroke-width="1" fill="none" fill-rule="evenodd">
        <g id="login-form---Passwordless---Biometrics" transform="translate(-755.000000, -468.000000)" fill="#FFFFFF">
            <g id="Group-Copy-2" transform="translate(658.000000, 403.000000)">
                <g id="Group-2" transform="translate(26.000000, 26.000000)">
                    <path d="M80.4965064,61.9612453 C84.3066734,56.0773648 89.7494393,54.8186287 94.0772806,57.8515369 C98.2924406,60.8054793 99.7741059,66.69751 97.0275711,72.1041007 C94.2567336,77.5583939 91.2782993,81.3874258 88.295203,83.8745343 C87.2545171,84.7421893 86.2885828,85.3803434 85.4225358,85.8242963 C85.1962655,85.940287 84.9893563,86.0363888 84.8031457,86.1144502 L84.5474258,86.2153586 L84.3831293,86.2717989 L84.2248876,86.3108953 C83.6392541,86.4189292 83.1703682,86.081269 83.0105691,85.5125197 C82.8506583,84.9433732 83.0742749,84.4057572 83.6252619,84.1869442 L83.9194545,84.0885821 L84.1395882,84.002289 L84.1395882,84.002289 L84.4276035,83.8700593 C84.8790925,83.6528534 85.3817791,83.3574982 85.9290408,82.9722727 L86.2063556,82.7721164 L86.4516737,82.5868608 L86.7091529,82.3844043 C89.4590211,80.1798929 92.3163436,76.5324739 95.0827322,71.0871742 C97.2233841,66.8733003 96.1835767,62.1515916 93.0204729,59.7859019 C89.7732548,57.357303 85.6000564,58.3343565 82.5045089,62.9155971 L82.3304537,63.1787632 L82.0970886,63.5378651 L81.6343835,64.2387886 L81.1925247,64.8902496 C79.2434207,67.7178557 77.7727362,69.191311 74.6908392,71.3123101 L73.9902132,71.7869767 L73.879071,71.8539161 C73.3581777,72.1333851 72.8120115,71.9554581 72.4901469,71.4634642 C72.1448035,70.9355812 72.228853,70.3073387 72.7826283,69.936391 L73.1254326,69.7054854 L73.1254326,69.7054854 L73.4548933,69.4801547 L74.0763104,69.0437999 C76.4583603,67.3378977 77.7493084,65.9904515 79.3889324,63.6234789 L79.6148139,63.2942611 L80.0444428,62.6528811 L80.4965064,61.9612453 Z M84.160311,53.0091875 C91.5692353,50.5127001 99.216796,54.1216461 101.647696,61.5063111 C103.105577,65.9354002 102.362859,70.6055254 99.9578203,75.3151696 C98.393459,78.3785654 96.3249478,81.1057907 94.2144827,83.3202375 L93.8183916,83.729394 L93.4264786,84.1203085 L93.0683138,84.4605186 C92.5756429,84.9141003 91.9550763,84.8426334 91.5344708,84.3749635 C91.1413146,83.9378144 91.1045974,83.3561904 91.5009489,82.9126492 L91.5925379,82.8198211 L91.7819392,82.6424875 L92.1525993,82.2799046 L92.5367058,81.8887732 L92.94764,81.4544795 C93.9526802,80.3730605 94.9570531,79.1559372 95.8948141,77.8286727 C99.5017713,72.7235486 101.138343,67.5067159 99.698273,62.6007779 L99.5976983,62.2741806 L99.4762848,61.9162172 C97.3294289,55.8910712 91.0048232,53.0359093 84.8447729,55.1109633 C82.8514076,55.7830294 81.5428187,56.9364141 79.7091328,59.3158978 L79.4770997,59.619773 L78.6545633,60.7130725 L78.0175682,61.5428052 L77.7525144,61.874533 C76.7087907,63.1629969 75.7665867,64.1084722 74.6660812,64.9028756 L74.3618233,65.1159297 L74.0742527,65.3056148 L73.968636,65.3645739 C73.473347,65.6088993 72.8649546,65.441544 72.564819,64.9588453 C72.2426065,64.4405083 72.3963166,63.7555024 72.907945,63.4290046 C74.48264,62.4151781 75.576188,61.2846909 77.1093353,59.2710574 L78.0683131,57.9927538 C80.2625541,55.0938285 81.6557732,53.8534124 84.160311,53.0091875 Z M83.6932551,64.4079192 C85.6802939,60.2907044 89.0236879,59.2169779 91.7440037,61.1245999 C94.5140814,63.0671176 95.2555703,67.1329748 92.9377586,70.9251865 L92.5474751,71.5564672 L92.5474751,71.5564672 L92.1548795,72.177907 L91.6280864,72.9904271 L91.3633636,73.3895092 L90.8314915,74.1726676 C87.4532974,79.0676666 83.8986124,82.7067327 80.5813623,83.9012119 C79.9555024,84.1245143 79.4101262,83.8145521 79.2020626,83.2178163 C78.9938053,82.620525 79.2267469,82.031546 79.8537783,81.8076162 C82.8771158,80.7182552 86.3664359,76.9208108 89.5958136,72.0842627 L90.1034493,71.3122053 L90.5939331,70.5437304 C90.756576,70.2852146 90.9183346,70.0244167 91.0791105,69.7615626 C92.5891555,67.29099 92.3360229,64.4953085 90.7693021,63.128155 C89.1740077,61.7360676 87.0588657,62.5105445 85.6704214,65.3651084 L85.4290368,65.8793903 L85.2752883,66.1906968 C83.3700003,69.9509443 79.3214143,74.5618544 76.1229134,76.3663011 L75.8584036,76.5100969 L75.616758,76.6310268 L75.4970413,76.6817516 C74.9407259,76.8854733 74.4229156,76.6315116 74.1717281,76.0975244 C73.9022613,75.524678 74.0731691,74.9129291 74.6747025,74.6229412 C77.5843032,73.2208985 81.7407619,68.4616644 83.4469604,64.932748 L83.6932551,64.4079192 Z M87.7439724,65.8328545 C87.9556384,65.274503 88.4828256,65.0452535 89.0436949,65.2020532 C89.645136,65.3701953 89.9886747,65.899465 89.8115911,66.5478493 C89.0244844,69.3963556 86.5553798,72.723111 83.0047384,76.2162544 C81.9641447,77.2399971 80.890542,78.2177704 79.8275663,79.1283633 L79.0293823,79.8013678 L78.5676269,80.1809179 L78.1575377,80.5118938 L77.5113358,81.0162684 C76.9789799,81.4201803 76.3689593,81.2902392 75.9950063,80.7855464 C75.6454684,80.3138045 75.6637578,79.7323101 76.099448,79.3291324 L76.1992171,79.2455715 L76.7853256,78.7893318 L77.2012154,78.4556944 L77.6620034,78.0784179 L78.1632169,77.659875 C79.1201554,76.8530297 80.0771262,76.0007912 81.0025686,75.1189775 L81.6902458,74.452319 L82.0138955,74.130237 L82.3303289,73.8097437 C85.041132,71.0391801 86.9252677,68.4538355 87.6282834,66.215143 L87.7439724,65.8328545 Z M72.0318076,55.4033799 C77.698883,50.2745108 84.0413437,47.5513239 90.3821053,48.1061212 C99.8790964,48.9381453 107.279046,57.4141426 106.593371,66.9137496 C106.574002,67.1823356 106.549974,67.4494812 106.520999,67.7165967 L106.47379,68.1174237 L106.388587,68.7208932 C106.240813,69.6728625 106.026674,70.6464933 105.733397,71.7041219 L105.580104,72.2402246 L105.365368,72.9455164 C105.264946,73.265171 105.157806,73.5934335 105.04366,73.9317142 L104.867149,74.4468251 L104.582204,75.2499815 L104.272391,76.092899 L103.849043,77.2078983 L103.849043,77.2078983 L103.384269,78.3975744 C103.137392,79.0214821 102.548368,79.2315079 101.969389,78.9967847 C101.389664,78.761759 101.106138,78.1966513 101.353699,77.5711687 L101.535946,77.1080314 L102.044245,75.7905214 L102.20115,75.3739243 L102.56683,74.3778449 L102.56683,74.3778449 L102.895607,73.4414126 L103.132966,72.7308207 L103.243327,72.3872257 L103.243327,72.3872257 L103.348259,72.0508737 L103.542176,71.3982251 L103.631335,71.0810919 L103.631335,71.0810919 L103.715408,70.7695286 L103.868644,70.1614377 C104.15558,68.9636309 104.326677,67.8693798 104.406766,66.7582146 C104.99947,58.5435883 98.6655361,51.2264995 90.4895374,50.3503053 L90.1932261,50.3214502 L89.8098962,50.2923902 L89.4265818,50.2722585 C84.0604625,50.0526488 78.7098602,52.4413799 73.8344105,56.7427821 L73.4869784,57.0532685 L73.3879531,57.1363348 C72.9133494,57.4884964 72.3488371,57.3926286 71.9609366,56.9539817 C71.5447133,56.4833067 71.5379731,55.8506581 72.0318076,55.4033799 Z M77.3152692,46.6350511 C82.584646,43.7267939 89.3156532,43.0796578 95.1544661,44.8718634 C102.374707,47.0886607 107.607013,52.6547872 110.437678,60.5333031 C110.644,61.1087992 110.349771,61.7448756 109.78153,61.9534908 C109.21439,62.1617321 108.587116,61.8646166 108.380846,61.2892637 C105.841247,54.2208921 101.259653,49.2005172 94.8979505,47.1110488 L94.5216815,46.9915261 L94.1035472,46.8683188 L93.6700095,46.7511191 C88.8827757,45.5149938 83.5070742,46.0290615 79.1336679,48.1782081 L78.738891,48.3780863 L78.4677165,48.521149 L78.3599155,48.5805766 L78.2435107,48.6376483 C77.7008845,48.871026 77.1722266,48.6469215 76.8937435,48.1295414 C76.5949772,47.5744783 76.7322599,46.9565106 77.3152692,46.6350511 Z M83.4245349,40.3376784 C90.288476,38.96692 96.2686841,39.9173305 101.358711,42.5233064 C103.200308,43.4661615 104.813918,44.5738101 106.197513,45.7630614 C106.445753,45.976433 106.676524,46.1834141 106.889838,46.3823645 L107.097333,46.5785773 L107.477417,46.9534835 C107.715296,47.1951487 107.922159,47.4196213 108.098031,47.6230136 L108.278899,47.8383246 L108.35992,47.9495579 C108.659621,48.4180159 108.56836,49.0506632 108.130279,49.4111276 C107.662562,49.7965863 106.974111,49.7246971 106.593385,49.2504642 L106.563608,49.2134977 L106.411451,49.0342769 L106.170415,48.7667161 L106.034023,48.6217886 L106.034023,48.6217886 L105.887016,48.4698467 L105.7153,48.2973231 L105.470053,48.0581444 C100.606939,43.3862003 93.3894125,40.6123484 83.8430027,42.5192648 C83.1907709,42.6479474 82.6953796,42.2601658 82.5756406,41.6381333 C82.4558266,41.0157109 82.7715766,40.4668344 83.4245349,40.3376784 Z" id="Shape"></path>
                </g>
            </g>
        </g>
    </g>
</svg>