<?xml version="1.0" encoding="UTF-8"?>
<svg width="23px" height="24px" viewBox="0 0 23 24" version="1.1" xmlns="http://www.w3.org/2000/svg" xmlns:xlink="http://www.w3.org/1999/xlink">
    <!-- Generator: sketchtool 62 (101010) - https://sketch.com -->
    <title>961AF952-0505-4062-9965-67BE216B40BD</title>
    <desc>Created with sketchtool.</desc>
    <defs>
        <path d="M0.073005698,11.9462251 C0.073005698,18.0929487 5.05519943,23.0751425 11.2010328,23.0751425 L11.2010328,23.0751425 C17.3477564,23.0751425 22.3299501,18.0929487 22.3299501,11.9462251 L22.3299501,11.9462251 C22.3299501,5.80039174 17.3477564,0.818198006 11.2010328,0.818198006 L11.2010328,0.818198006 C5.05519943,0.818198006 0.073005698,5.80039174 0.073005698,11.9462251" id="path-1"></path>
        <path d="M0.073005698,11.9462251 C0.073005698,18.0929487 5.05519943,23.0751425 11.2010328,23.0751425 L11.2010328,23.0751425 C17.3477564,23.0751425 22.3299501,18.0929487 22.3299501,11.9462251 L22.3299501,11.9462251 C22.3299501,5.80039174 17.3477564,0.818198006 11.2010328,0.818198006 L11.2010328,0.818198006 C5.05519943,0.818198006 0.073005698,5.80039174 0.073005698,11.9462251" id="path-3"></path>
        <path d="M0.073005698,11.9462251 C0.073005698,18.0929487 5.05519943,23.0751425 11.2010328,23.0751425 L11.2010328,23.0751425 C17.3477564,23.0751425 22.3299501,18.0929487 22.3299501,11.9462251 L22.3299501,11.9462251 C22.3299501,5.80039174 17.3477564,0.818198006 11.2010328,0.818198006 L11.2010328,0.818198006 C5.05519943,0.818198006 0.073005698,5.80039174 0.073005698,11.9462251 L0.073005698,11.9462251 Z" id="path-5"></path>
    </defs>
    <g id="EID---Legacy-Login-/-Register" stroke="none" stroke-width="1" fill="none" fill-rule="evenodd">
        <g id="Languages" transform="translate(-124.000000, -92.000000)">
            <g id="Group-10" transform="translate(124.000000, 92.000000)">
                <g id="Group-3" transform="translate(0.000000, 0.145210)">
                    <mask id="mask-2" fill="white">
                        <use xlink:href="#path-1"></use>
                    </mask>
                    <g id="Clip-2"></g>
                    <path d="M11.2014779,0.745014245 C6.3332443,0.745014245 2.18260328,3.86823362 0.641470798,8.21296296 L21.761485,8.21296296 C20.2203526,3.86823362 16.0697115,0.745014245 11.2014779,0.745014245" id="Fill-1" fill="#AE1C28" mask="url(#mask-2)"></path>
                </g>
                <g id="Group-6" transform="translate(0.000000, 0.145210)">
                    <mask id="mask-4" fill="white">
                        <use xlink:href="#path-3"></use>
                    </mask>
                    <g id="Clip-5"></g>
                    <path d="M22.403401,11.9465812 C22.403401,10.6396011 22.1763711,9.38247863 21.761485,8.21260684 L0.641470798,8.21260684 C0.226584758,9.38247863 0.000445156695,10.6396011 0.000445156695,11.9465812 C0.000445156695,13.2571225 0.226584758,14.514245 0.641470798,15.6805556 L21.761485,15.6805556 C22.1763711,14.514245 22.403401,13.2571225 22.403401,11.9465812" id="Fill-4" fill="#FFFFFF" mask="url(#mask-4)"></path>
                </g>
                <g id="Group-9" transform="translate(0.000000, 0.145210)">
                    <mask id="mask-6" fill="white">
                        <use xlink:href="#path-5"></use>
                    </mask>
                    <g id="Clip-8"></g>
                    <path d="M0.641203704,15.6803775 C2.18233618,20.0277778 6.33386752,23.1483262 11.2012108,23.1483262 C16.0694444,23.1483262 20.2200855,20.0277778 21.7621083,15.6803775 L0.641203704,15.6803775 Z" id="Fill-7" fill="#21468B" mask="url(#mask-6)"></path>
                </g>
            </g>
        </g>
    </g>
</svg>