<?xml version="1.0" encoding="UTF-8"?>
<svg width="25px" height="25px" viewBox="0 0 25 25" version="1.1" xmlns="http://www.w3.org/2000/svg" xmlns:xlink="http://www.w3.org/1999/xlink">
    <!-- Generator: sketchtool 62 (101010) - https://sketch.com -->
    <title>0245FE93-AD9C-4D42-BA35-13AE089431DF</title>
    <desc>Created with sketchtool.</desc>
    <defs>
        <path d="M0.1,13.525 C0.1,20.35 5.65,25.9 12.5,25.9 L12.5,25.9 C19.35,25.9 24.9,20.35 24.9,13.525 L24.9,13.525 C24.9,6.65 19.35,1.075 12.5,1.075 L12.5,1.075 C5.65,1.075 0.1,6.65 0.1,13.525" id="path-1"></path>
        <path d="M0.1,13.525 C0.1,20.35 5.65,25.9 12.5,25.9 L12.5,25.9 C19.35,25.9 24.9,20.35 24.9,13.525 L24.9,13.525 C24.9,6.65 19.35,1.075 12.5,1.075 L12.5,1.075 C5.65,1.075 0.1,6.65 0.1,13.525 L0.1,13.525 Z" id="path-3"></path>
        <path d="M0.1,13.525 C0.1,20.35 5.65,25.9 12.5,25.9 L12.5,25.9 C19.35,25.9 24.9,20.35 24.9,13.525 L24.9,13.525 C24.9,6.65 19.35,1.075 12.5,1.075 L12.5,1.075 C5.65,1.075 0.1,6.65 0.1,13.525 L0.1,13.525 Z" id="path-5"></path>
        <path d="M0.1,13.525 C0.1,20.35 5.65,25.9 12.5,25.9 L12.5,25.9 C19.35,25.9 24.9,20.35 24.9,13.525 L24.9,13.525 C24.9,6.65 19.35,1.075 12.5,1.075 L12.5,1.075 C5.65,1.075 0.1,6.65 0.1,13.525 L0.1,13.525 Z" id="path-7"></path>
        <path d="M0.1,13.525 C0.1,20.35 5.65,25.9 12.5,25.9 L12.5,25.9 C19.35,25.9 24.9,20.35 24.9,13.525 L24.9,13.525 C24.9,6.65 19.35,1.075 12.5,1.075 L12.5,1.075 C5.65,1.075 0.1,6.65 0.1,13.525 L0.1,13.525 Z" id="path-9"></path>
        <path d="M0.1,13.525 C0.1,20.35 5.65,25.9 12.5,25.9 L12.5,25.9 C19.35,25.9 24.9,20.35 24.9,13.525 L24.9,13.525 C24.9,6.65 19.35,1.075 12.5,1.075 L12.5,1.075 C5.65,1.075 0.1,6.65 0.1,13.525 L0.1,13.525 Z" id="path-11"></path>
    </defs>
    <g id="EID---Legacy-Login-/-Register" stroke="none" stroke-width="1" fill="none" fill-rule="evenodd">
        <g id="Languages" transform="translate(-195.000000, -17.000000)">
            <g id="Group-19" transform="translate(195.000000, 16.000000)">
                <g id="Group-3">
                    <mask id="mask-2" fill="white">
                        <use xlink:href="#path-1"></use>
                    </mask>
                    <g id="Clip-2"></g>
                    <path d="M12.5125,26.005 C5.6125,26.005 0.0125,20.38 0.0125,13.505 C0.0125,6.605 5.6125,1.005 12.5125,1.005 C19.3875,1.005 25.0125,6.605 25.0125,13.505 C25.0125,20.38 19.3875,26.005 12.5125,26.005" id="Fill-1" fill="#DD2911" mask="url(#mask-2)"></path>
                </g>
                <g id="Group-6">
                    <mask id="mask-4" fill="white">
                        <use xlink:href="#path-3"></use>
                    </mask>
                    <g id="Clip-5"></g>
                    <polygon id="Fill-4" fill="#FEDD19" mask="url(#mask-4)" points="7.14 5.4975 7.865 7.7225 10.215 7.7225 8.315 9.0975 9.04 11.2975 7.14 9.9475 5.265 11.2975 5.99 9.0975 4.09 7.7225 6.44 7.7225"></polygon>
                </g>
                <g id="Group-9">
                    <mask id="mask-6" fill="white">
                        <use xlink:href="#path-5"></use>
                    </mask>
                    <g id="Clip-8"></g>
                    <polygon id="Fill-7" fill="#FEDD19" mask="url(#mask-6)" points="12.8775 4.5325 12.8025 5.3075 13.5025 5.6075 12.7525 5.7825 12.7025 6.5575 12.3025 5.8825 11.5275 6.0575 12.0525 5.4825 11.6525 4.8075 12.3525 5.1075"></polygon>
                </g>
                <g id="Group-12">
                    <mask id="mask-8" fill="white">
                        <use xlink:href="#path-7"></use>
                    </mask>
                    <g id="Clip-11"></g>
                    <polygon id="Fill-10" fill="#FEDD19" mask="url(#mask-8)" points="15.3675 6.9 14.9925 7.6 15.5425 8.15 14.7925 8 14.4175 8.7 14.2925 7.925 13.5425 7.8 14.2425 7.45 14.1175 6.7 14.6675 7.25"></polygon>
                </g>
                <g id="Group-15">
                    <mask id="mask-10" fill="white">
                        <use xlink:href="#path-9"></use>
                    </mask>
                    <g id="Clip-14"></g>
                    <polygon id="Fill-13" fill="#FEDD19" mask="url(#mask-10)" points="15.5875 10.4775 14.9875 10.9525 15.2375 11.6775 14.6125 11.2525 14.0125 11.7275 14.1875 10.9775 13.5625 10.5275 14.3375 10.5025 14.5625 9.7775 14.8375 10.5025"></polygon>
                </g>
                <g id="Group-18">
                    <mask id="mask-12" fill="white">
                        <use xlink:href="#path-11"></use>
                    </mask>
                    <g id="Clip-17"></g>
                    <polygon id="Fill-16" fill="#FEDD19" mask="url(#mask-12)" points="13.5375 13.0275 12.7875 13.2275 12.7625 14.0025 12.3125 13.3525 11.5875 13.5525 12.0625 12.9525 11.6375 12.3025 12.3625 12.5775 12.8625 11.9775 12.8125 12.7525"></polygon>
                </g>
            </g>
        </g>
    </g>
</svg>