<?xml version="1.0" encoding="UTF-8"?>
<svg width="23px" height="24px" viewBox="0 0 23 24" version="1.1" xmlns="http://www.w3.org/2000/svg" xmlns:xlink="http://www.w3.org/1999/xlink">
    <!-- Generator: sketchtool 62 (101010) - https://sketch.com -->
    <title>8C7DE051-BEA0-4400-896F-17EBC1E349F6</title>
    <desc>Created with sketchtool.</desc>
    <defs>
        <path d="M0.073005698,11.9462251 C0.073005698,18.0929487 5.05519943,23.0751425 11.2010328,23.0751425 L11.2010328,23.0751425 C17.3477564,23.0751425 22.3299501,18.0929487 22.3299501,11.9462251 L22.3299501,11.9462251 C22.3299501,5.80039174 17.3477564,0.817307692 11.2010328,0.817307692 L11.2010328,0.817307692 C5.05519943,0.817307692 0.073005698,5.80039174 0.073005698,11.9462251" id="path-1"></path>
        <path d="M0.073005698,11.9462251 C0.073005698,18.0929487 5.05519943,23.0751425 11.2010328,23.0751425 L11.2010328,23.0751425 C17.3477564,23.0751425 22.3299501,18.0929487 22.3299501,11.9462251 L22.3299501,11.9462251 C22.3299501,5.80039174 17.3477564,0.817307692 11.2010328,0.817307692 L11.2010328,0.817307692 C5.05519943,0.817307692 0.073005698,5.80039174 0.073005698,11.9462251" id="path-3"></path>
        <path d="M0.073005698,11.9462251 C0.073005698,18.0929487 5.05519943,23.0751425 11.2010328,23.0751425 L11.2010328,23.0751425 C17.3477564,23.0751425 22.3299501,18.0929487 22.3299501,11.9462251 L22.3299501,11.9462251 C22.3299501,5.80039174 17.3477564,0.817307692 11.2010328,0.817307692 L11.2010328,0.817307692 C5.05519943,0.817307692 0.073005698,5.80039174 0.073005698,11.9462251 L0.073005698,11.9462251 Z" id="path-5"></path>
    </defs>
    <g id="EID---Legacy-Login-/-Register" stroke="none" stroke-width="1" fill="none" fill-rule="evenodd">
        <g id="Languages" transform="translate(-88.000000, -92.000000)">
            <g id="Group-10" transform="translate(88.000000, 92.000000)">
                <g id="Group-3" transform="translate(0.000000, 0.145210)">
                    <mask id="mask-2" fill="white">
                        <use xlink:href="#path-1"></use>
                    </mask>
                    <g id="Clip-2"></g>
                    <path d="M11.2014779,0.745014245 C6.3332443,0.745014245 2.18260328,3.86556268 0.641470798,8.21296296 L21.761485,8.21296296 C20.2203526,3.86556268 16.0697115,0.745014245 11.2014779,0.745014245" id="Fill-1" fill="#FFFFFF" mask="url(#mask-2)"></path>
                </g>
                <g id="Group-6" transform="translate(0.000000, 0.145210)">
                    <mask id="mask-4" fill="white">
                        <use xlink:href="#path-3"></use>
                    </mask>
                    <g id="Clip-5"></g>
                    <path d="M22.403401,11.9464922 C22.403401,10.6368412 22.1763711,9.3823896 21.761485,8.21251781 L0.641470798,8.21251781 C0.226584758,9.3823896 0.000445156695,10.6368412 0.000445156695,11.9464922 C0.000445156695,13.2543625 0.226584758,14.511485 0.641470798,15.6804665 L21.761485,15.6804665 C22.1763711,14.511485 22.403401,13.2543625 22.403401,11.9464922" id="Fill-4" fill="#05539D" mask="url(#mask-4)"></path>
                </g>
                <g id="Group-9" transform="translate(0.000000, -0.000000)">
                    <mask id="mask-6" fill="white">
                        <use xlink:href="#path-5"></use>
                    </mask>
                    <g id="Clip-8"></g>
                    <path d="M0.641114672,15.6803775 C2.18224715,20.0251068 6.33377849,23.1483262 11.2011218,23.1483262 C16.0693554,23.1483262 20.2199964,20.0251068 21.7620192,15.6803775 L0.641114672,15.6803775 Z" id="Fill-7" fill="#DF3A3D" mask="url(#mask-6)"></path>
                </g>
            </g>
        </g>
    </g>
</svg>