<?xml version="1.0" encoding="UTF-8"?>
<svg width="23px" height="24px" viewBox="0 0 23 24" version="1.1" xmlns="http://www.w3.org/2000/svg" xmlns:xlink="http://www.w3.org/1999/xlink">
    <!-- Generator: sketchtool 62 (101010) - https://sketch.com -->
    <title>130CA7CB-F85A-4044-90E8-E19A8BE46981</title>
    <desc>Created with sketchtool.</desc>
    <defs>
        <path d="M0.073005698,11.9462251 C0.073005698,18.0929487 5.05430912,23.0760328 11.2019231,23.0760328 L11.2019231,23.0760328 C17.3477564,23.0760328 22.3308405,18.0929487 22.3308405,11.9462251 L22.3308405,11.9462251 C22.3308405,5.80039174 17.3477564,0.817307692 11.2019231,0.817307692 L11.2019231,0.817307692 C5.05430912,0.817307692 0.073005698,5.80039174 0.073005698,11.9462251" id="path-1"></path>
        <path d="M0.073005698,11.9462251 C0.073005698,18.0929487 5.05430912,23.0760328 11.2019231,23.0760328 L11.2019231,23.0760328 C17.3477564,23.0760328 22.3308405,18.0929487 22.3308405,11.9462251 L22.3308405,11.9462251 C22.3308405,5.80039174 17.3477564,0.817307692 11.2019231,0.817307692 L11.2019231,0.817307692 C5.05430912,0.817307692 0.073005698,5.80039174 0.073005698,11.9462251 L0.073005698,11.9462251 Z" id="path-3"></path>
    </defs>
    <g id="EID---Legacy-Login-/-Register" stroke="none" stroke-width="1" fill="none" fill-rule="evenodd">
        <g id="Languages" transform="translate(-160.000000, -92.000000)">
            <g id="Group-7" transform="translate(160.000000, 92.000000)">
                <g id="Group-3" transform="translate(0.000000, 0.145210)">
                    <mask id="mask-2" fill="white">
                        <use xlink:href="#path-1"></use>
                    </mask>
                    <g id="Clip-2"></g>
                    <path d="M11.201834,23.1479701 C5.02573006,23.1479701 -8.9031339e-05,18.1212607 -8.9031339e-05,11.946047 C-8.9031339e-05,5.76816239 5.02573006,0.745014245 11.201834,0.745014245 C17.3788283,0.745014245 22.4028668,5.76816239 22.4028668,11.946047 C22.4028668,18.1212607 17.3788283,23.1479701 11.201834,23.1479701" id="Fill-1" fill="#D52B1E" mask="url(#mask-2)"></path>
                </g>
                <g id="Group-6" transform="translate(0.000000, 0.145210)">
                    <mask id="mask-4" fill="white">
                        <use xlink:href="#path-3"></use>
                    </mask>
                    <g id="Clip-5"></g>
                    <polygon id="Fill-4" fill="#FFFFFF" mask="url(#mask-4)" points="18.3573718 14.0940171 18.3573718 9.7991453 13.3484687 9.7991453 13.3484687 4.79113248 9.05448718 4.79113248 9.05448718 9.7991453 4.04558405 9.7991453 4.04558405 14.0940171 9.05448718 14.0940171 9.05448718 19.1020299 13.3484687 19.1020299 13.3484687 14.0940171"></polygon>
                </g>
            </g>
        </g>
    </g>
</svg>