<?xml version="1.0" encoding="UTF-8"?>
<svg width="25px" height="25px" viewBox="0 0 25 25" version="1.1" xmlns="http://www.w3.org/2000/svg" xmlns:xlink="http://www.w3.org/1999/xlink">
    <title>8B5D197C-8DA1-4AF0-A41E-4AE6276F9B9F</title>
    <g id="EID---Legacy-Login-/-Register" stroke="none" stroke-width="1" fill="none" fill-rule="evenodd">
        <g id="login-form---Step-2" transform="translate(-1060.000000, -446.000000)">
            <g id="Language" transform="translate(993.000000, 233.000000)">
                <g id="🇹🇫-select-language" transform="translate(40.957118, 0.000000)">
                    <g id="lang" transform="translate(10.042882, 5.213203)">
                        <g id="Others" transform="translate(0.000000, 199.786797)">
                            <g id="generic" transform="translate(16.000000, 8.000000)">
                                <path d="M12.0004769,24 C5.3840957,24 0,18.6149505 0,11.9995231 C0,5.38123435 5.3840957,0 12.0004769,0 C18.6178119,0 24,5.38123435 24,11.9995231 C24,18.6149505 18.6178119,24 12.0004769,24" id="Fill-1" fill="#307FC1"></path>
                                <path d="M17.0444907,7.61661169 C17.3180152,7.6158124 17.5725338,7.75828545 17.7169381,7.99306499 C17.870473,8.22006871 17.8978155,8.51083413 17.7890906,8.76287097 L17.7890906,8.76287097 L16.0495406,12.4824711 L17.7724171,16.2245961 C17.8813405,16.4707132 17.8598536,16.7560105 17.7152012,16.9827634 C17.5705985,17.2096668 17.3222828,17.3470228 17.0553583,17.3482268 L17.0553583,17.3482268 L9.12999757,17.3482268 C8.8460522,17.3482268 8.58379229,17.194968 8.44167073,16.946493 C8.2997973,16.6978173 8.2997973,16.3915002 8.44167073,16.1430252 C8.58374266,15.8943495 8.8460522,15.7412913 9.12999757,15.7412913 L9.12999757,15.7412913 L15.7993888,15.7412913 L14.4322132,12.8251589 C14.332619,12.6078374 14.332619,12.3570045 14.4322132,12.139683 L14.4322132,12.139683 L15.7993888,9.22355056 L8.53550867,9.22355056 C8.11390787,9.22355056 7.70957602,9.39286272 7.41163685,9.69426346 C7.1135488,9.99561403 6.94606967,10.4044214 6.94606967,10.8304359 L6.94606967,10.8304359 L6.94509075,22.8821076 C6.39130443,22.6237565 5.860358,22.324343 5.35619207,21.9878106 L5.35653142,10.8304359 C5.35787125,9.9785574 5.693425,9.16199618 6.28930335,8.55959603 C6.8851817,7.95719589 7.69295217,7.61817023 8.5355583,7.61661169 L8.5355583,7.61661169 Z" id="Combined-Shape" fill="#FFFFFF"></path>
                                <path d="M11.2752979,10.8304733 L11.2752979,14.0978993 M9.64158487,12.4641863 L12.9090108,12.4641863" id="Combined-Shape" stroke="#FFFFFF" stroke-width="1.39267337" stroke-linecap="round"></path>
                            </g>
                        </g>
                    </g>
                </g>
            </g>
        </g>
    </g>
</svg>