<?xml version="1.0" encoding="UTF-8"?>
<svg width="25px" height="25px" viewBox="0 0 25 25" version="1.1" xmlns="http://www.w3.org/2000/svg" xmlns:xlink="http://www.w3.org/1999/xlink">
    <!-- Generator: sketchtool 62 (101010) - https://sketch.com -->
    <title>66C7BF31-9404-4469-AB12-42CDBEE92FA7</title>
    <desc>Created with sketchtool.</desc>
    <defs>
        <path d="M0.1,12.5 C0.1,19.35 5.65,24.9 12.5,24.9 L12.5,24.9 C19.35,24.9 24.9,19.35 24.9,12.5 L24.9,12.5 C24.9,5.65 19.35,0.1 12.5,0.1 L12.5,0.1 C5.65,0.1 0.1,5.65 0.1,12.5 L0.1,12.5 Z" id="path-1"></path>
        <path d="M0.1,12.5 C0.1,19.35 5.65,24.9 12.5,24.9 L12.5,24.9 C19.35,24.9 24.9,19.35 24.9,12.5 L24.9,12.5 C24.9,5.65 19.35,0.1 12.5,0.1 L12.5,0.1 C5.65,0.1 0.1,5.65 0.1,12.5 L0.1,12.5 Z" id="path-3"></path>
        <path d="M0.1,12.5 C0.1,19.35 5.65,24.9 12.5,24.9 L12.5,24.9 C19.35,24.9 24.9,19.35 24.9,12.5 L24.9,12.5 C24.9,5.65 19.35,0.1 12.5,0.1 L12.5,0.1 C5.65,0.1 0.1,5.65 0.1,12.5 L0.1,12.5 Z" id="path-5"></path>
        <path d="M0.1,12.5 C0.1,19.35 5.65,24.9 12.5,24.9 L12.5,24.9 C19.35,24.9 24.9,19.35 24.9,12.5 L24.9,12.5 C24.9,5.65 19.35,0.1 12.5,0.1 L12.5,0.1 C5.65,0.1 0.1,5.65 0.1,12.5 L0.1,12.5 Z" id="path-7"></path>
        <path d="M0.1,12.5 C0.1,19.35 5.65,24.9 12.5,24.9 L12.5,24.9 C19.35,24.9 24.9,19.35 24.9,12.5 L24.9,12.5 C24.9,5.65 19.35,0.1 12.5,0.1 L12.5,0.1 C5.65,0.1 0.1,5.65 0.1,12.5" id="path-9"></path>
        <path d="M0.1,12.5 C0.1,19.35 5.65,24.9 12.5,24.9 L12.5,24.9 C19.35,24.9 24.9,19.35 24.9,12.5 L24.9,12.5 C24.9,5.65 19.35,0.1 12.5,0.1 L12.5,0.1 C5.65,0.1 0.1,5.65 0.1,12.5" id="path-11"></path>
        <path d="M0.1,12.5 C0.1,19.35 5.65,24.9 12.5,24.9 L12.5,24.9 C19.35,24.9 24.9,19.35 24.9,12.5 L24.9,12.5 C24.9,5.65 19.35,0.1 12.5,0.1 L12.5,0.1 C5.65,0.1 0.1,5.65 0.1,12.5" id="path-13"></path>
        <path d="M0.1,12.5 C0.1,19.35 5.65,24.9 12.5,24.9 L12.5,24.9 C19.35,24.9 24.9,19.35 24.9,12.5 L24.9,12.5 C24.9,5.65 19.35,0.1 12.5,0.1 L12.5,0.1 C5.65,0.1 0.1,5.65 0.1,12.5" id="path-15"></path>
        <path d="M0.1,12.5 C0.1,19.35 5.65,24.9 12.5,24.9 L12.5,24.9 C19.35,24.9 24.9,19.35 24.9,12.5 L24.9,12.5 C24.9,5.65 19.35,0.1 12.5,0.1 L12.5,0.1 C5.65,0.1 0.1,5.65 0.1,12.5" id="path-17"></path>
    </defs>
    <g id="EID---Legacy-Login-/-Register" stroke="none" stroke-width="1" fill="none" fill-rule="evenodd">
        <g id="Languages" transform="translate(-159.000000, -16.000000)">
            <g id="Group-28" transform="translate(159.000000, 16.000000)">
                <g id="Group-3">
                    <mask id="mask-2" fill="white">
                        <use xlink:href="#path-1"></use>
                    </mask>
                    <g id="Clip-2"></g>
                    <path d="M24.9125,13.89 C24.9125,14.015 24.8875,14.14 24.8625,14.265 C24.8625,14.315 24.8625,14.39 24.8375,14.415 L24.7625,14.915 C24.7625,14.94 24.7625,14.94 24.7375,14.965 L24.7375,15.04 C24.6125,15.59 24.4625,16.14 24.2875,16.665 L0.7125,16.665 C0.5375,16.19 0.4125,15.69 0.3125,15.19 C0.2875,15.165 0.2875,15.14 0.2875,15.115 C0.2875,15.09 0.2625,15.065 0.2625,15.04 C0.1875,14.665 0.1125,14.29 0.0875,13.89 L24.9125,13.89 Z" id="Fill-1" fill="#D91219" mask="url(#mask-2)"></path>
                </g>
                <g id="Group-6">
                    <mask id="mask-4" fill="white">
                        <use xlink:href="#path-3"></use>
                    </mask>
                    <g id="Clip-5"></g>
                    <path d="M24.2775,16.6625 C24.0275,17.3875 23.7275,18.0875 23.3275,18.7375 C23.1775,18.9875 23.0275,19.2125 22.8775,19.4375 L2.1025,19.4375 C1.9525,19.2125 1.8275,18.9875 1.6775,18.7375 C1.2775,18.0875 0.9525,17.3875 0.7275,16.6625 L24.2775,16.6625 Z" id="Fill-4" fill="#FBDC1D" mask="url(#mask-4)"></path>
                </g>
                <g id="Group-9">
                    <mask id="mask-6" fill="white">
                        <use xlink:href="#path-5"></use>
                    </mask>
                    <g id="Clip-8"></g>
                    <path d="M22.8875,19.445 C22.6875,19.745 22.4625,20.02 22.2625,20.32 C21.6875,21.02 21.0625,21.645 20.3375,22.22 L4.6625,22.22 C3.9375,21.645 3.3125,21.02 2.7375,20.32 C2.5375,20.02 2.3125,19.745 2.1125,19.445 L22.8875,19.445 Z" id="Fill-7" fill="#D91219" mask="url(#mask-6)"></path>
                </g>
                <g id="Group-12">
                    <mask id="mask-8" fill="white">
                        <use xlink:href="#path-7"></use>
                    </mask>
                    <g id="Clip-11"></g>
                    <path d="M20.3475,22.2175 C18.1975,23.9675 15.4725,24.9925 12.5225,24.9925 C9.5225,24.9925 6.7975,23.9675 4.6475,22.2175 L20.3475,22.2175 Z" id="Fill-10" fill="#FBDC1D" mask="url(#mask-8)"></path>
                </g>
                <g id="Group-15">
                    <mask id="mask-10" fill="white">
                        <use xlink:href="#path-9"></use>
                    </mask>
                    <g id="Clip-14"></g>
                    <path d="M22.8875,5.555 L2.1125,5.555 C2.3125,5.255 2.5375,4.98 2.7375,4.68 C3.3125,3.98 3.9375,3.355 4.6625,2.78 L20.3375,2.78 C21.0625,3.355 21.6875,3.98 22.2625,4.68 C22.4625,4.98 22.6875,5.255 22.8875,5.555" id="Fill-13" fill="#D91219" mask="url(#mask-10)"></path>
                </g>
                <g id="Group-18">
                    <mask id="mask-12" fill="white">
                        <use xlink:href="#path-11"></use>
                    </mask>
                    <g id="Clip-17"></g>
                    <path d="M20.3475,2.7825 L4.6475,2.7825 C6.7975,1.0325 9.5225,0.0075 12.5225,0.0075 C15.4725,0.0075 18.1975,1.0325 20.3475,2.7825" id="Fill-16" fill="#FBDC1D" mask="url(#mask-12)"></path>
                </g>
                <g id="Group-21">
                    <mask id="mask-14" fill="white">
                        <use xlink:href="#path-13"></use>
                    </mask>
                    <g id="Clip-20"></g>
                    <path d="M24.2775,8.3375 L0.7275,8.3375 C0.9525,7.6125 1.2775,6.9125 1.6775,6.2625 L2.1025,5.5625 L22.8775,5.5625 L23.3275,6.2625 C23.7275,6.9125 24.0275,7.6125 24.2775,8.3375" id="Fill-19" fill="#FBDC1D" mask="url(#mask-14)"></path>
                </g>
                <g id="Group-24">
                    <mask id="mask-16" fill="white">
                        <use xlink:href="#path-15"></use>
                    </mask>
                    <g id="Clip-23"></g>
                    <path d="M24.9125,11.1075 L0.0875,11.1075 L0.0875,11.0825 L0.0875,11.0575 C0.1875,10.1075 0.4125,9.2075 0.7125,8.3325 L24.2875,8.3325 C24.4375,8.7575 24.5625,9.2075 24.6625,9.6575 C24.6625,9.6575 24.6625,9.6825 24.6875,9.6825 L24.6875,9.7325 C24.7625,10.0075 24.8125,10.3075 24.8625,10.5825 L24.8625,10.6075 L24.8625,10.6575 C24.8875,10.8075 24.9125,10.9575 24.9125,11.1075" id="Fill-22" fill="#D91219" mask="url(#mask-16)"></path>
                </g>
                <g id="Group-27">
                    <mask id="mask-18" fill="white">
                        <use xlink:href="#path-17"></use>
                    </mask>
                    <g id="Clip-26"></g>
                    <path d="M25.01,12.5 C25.01,12.55 25.01,12.625 24.985,12.675 L24.985,12.725 L24.985,12.775 L24.985,12.775 L24.985,12.825 C24.985,13.175 24.96,13.55 24.91,13.9 L0.085,13.9 C0.06,13.825 0.06,13.75 0.06,13.675 C0.06,13.625 0.035,13.575 0.035,13.55 C0.01,13.3 0.01,13.05 0.01,12.825 L0.01,12.775 L0.01,12.75 L0.01,12.575 L0.01,12.55 L0.01,12.5 L0.01,12.25 L0.01,12.225 L0.01,12.2 C0.01,11.95 0.01,11.675 0.035,11.45 L0.035,11.4 C0.035,11.4 0.06,11.375 0.06,11.375 C0.06,11.3 0.06,11.2 0.085,11.125 L0.085,11.1 L24.91,11.1 C24.96,11.45 24.985,11.825 24.985,12.2 L24.985,12.225 L24.985,12.25 C24.985,12.325 25.01,12.425 25.01,12.5" id="Fill-25" fill="#FBDC1D" mask="url(#mask-18)"></path>
                </g>
            </g>
        </g>
    </g>
</svg>