<?xml version="1.0" encoding="UTF-8"?>
<svg width="25px" height="25px" viewBox="0 0 25 25" version="1.1" xmlns="http://www.w3.org/2000/svg" xmlns:xlink="http://www.w3.org/1999/xlink">
    <!-- Generator: sketchtool 62 (101010) - https://sketch.com -->
    <title>E09F22CE-B181-4FFB-BC29-0F048BD0CE73</title>
    <desc>Created with sketchtool.</desc>
    <defs>
        <path d="M0.1,12.5 C0.1,19.35 5.625,24.9 12.475,24.9 L12.475,24.9 C19.35,24.9 24.9,19.35 24.9,12.5 L24.9,12.5 C24.9,5.625 19.35,0.1 12.475,0.1 L12.475,0.1 C5.625,0.1 0.1,5.625 0.1,12.5" id="path-1"></path>
        <path d="M0.1,12.5 C0.1,19.35 5.625,24.9 12.475,24.9 L12.475,24.9 C19.35,24.9 24.9,19.35 24.9,12.5 L24.9,12.5 C24.9,5.625 19.35,0.1 12.475,0.1 L12.475,0.1 C5.625,0.1 0.1,5.625 0.1,12.5 L0.1,12.5 Z" id="path-3"></path>
        <path d="M0.1,12.5 C0.1,19.35 5.625,24.9 12.475,24.9 L12.475,24.9 C19.35,24.9 24.9,19.35 24.9,12.5 L24.9,12.5 C24.9,5.625 19.35,0.1 12.475,0.1 L12.475,0.1 C5.625,0.1 0.1,5.625 0.1,12.5" id="path-5"></path>
        <path d="M0.1,12.5 C0.1,19.35 5.625,24.9 12.475,24.9 L12.475,24.9 C19.35,24.9 24.9,19.35 24.9,12.5 L24.9,12.5 C24.9,5.625 19.35,0.1 12.475,0.1 L12.475,0.1 C5.625,0.1 0.1,5.625 0.1,12.5" id="path-7"></path>
    </defs>
    <g id="EID---Legacy-Login-/-Register" stroke="none" stroke-width="1" fill="none" fill-rule="evenodd">
        <g id="Languages" transform="translate(-123.000000, -16.000000)">
            <g id="Group-13" transform="translate(123.000000, 16.000000)">
                <g id="Group-3">
                    <mask id="mask-2" fill="white">
                        <use xlink:href="#path-1"></use>
                    </mask>
                    <g id="Clip-2"></g>
                    <path d="M8.705,0.5975 L8.705,24.3975 C3.655,22.7975 -0.02,18.0725 -0.02,12.4975 C-0.02,6.9225 3.655,2.1975 8.705,0.5975" id="Fill-1" fill="#FF0000" mask="url(#mask-2)"></path>
                </g>
                <g id="Group-6">
                    <mask id="mask-4" fill="white">
                        <use xlink:href="#path-3"></use>
                    </mask>
                    <g id="Clip-5"></g>
                    <path d="M24.2825,16.6725 C22.5825,21.5225 17.9325,24.9975 12.4825,24.9975 C11.1825,24.9975 9.9075,24.7975 8.7075,24.3975 L8.7075,16.6725 L24.2825,16.6725 Z" id="Fill-4" fill="#000000" mask="url(#mask-4)"></path>
                </g>
                <g id="Group-9">
                    <mask id="mask-6" fill="white">
                        <use xlink:href="#path-5"></use>
                    </mask>
                    <g id="Clip-8"></g>
                    <path d="M24.2825,8.335 L8.7075,8.335 L8.7075,0.585 C9.9075,0.21 11.1825,0.01 12.4825,0.01 C17.9325,0.01 22.5825,3.485 24.2825,8.335" id="Fill-7" fill="#00732F" mask="url(#mask-6)"></path>
                </g>
                <g id="Group-12">
                    <mask id="mask-8" fill="white">
                        <use xlink:href="#path-7"></use>
                    </mask>
                    <g id="Clip-11"></g>
                    <path d="M24.99,12.4975 C24.99,13.9725 24.74,15.3725 24.29,16.6725 L8.715,16.6725 L8.715,8.3225 L24.29,8.3225 C24.74,9.6475 24.99,11.0225 24.99,12.4975" id="Fill-10" fill="#FFFFFF" mask="url(#mask-8)"></path>
                </g>
            </g>
        </g>
    </g>
</svg>