<?xml version="1.0" encoding="UTF-8"?>
<svg width="70px" height="26px" viewBox="0 0 70 26" version="1.1" xmlns="http://www.w3.org/2000/svg" xmlns:xlink="http://www.w3.org/1999/xlink">
    <title>61B8CDB6-6445-4559-99E2-0053FBA4014F</title>
    <g id="EID---Legacy-Login-/-Register" stroke="none" stroke-width="1" fill="none" fill-rule="evenodd">
        <g id="login-form---Passwordless---Security-Key" transform="translate(-862.000000, -462.000000)">
            <g id="flash" transform="translate(863.500000, 463.500000)">
                <g id="flash-drive" transform="translate(34.000000, 11.500000) rotate(-90.000000) translate(-34.000000, -11.500000) translate(22.500000, -22.500000)" stroke="#307FC1" stroke-linecap="round" stroke-linejoin="round" stroke-width="1.5">
                    <path d="M18.7916667,10.4583333 L4.20833333,10.4583333 L4.20833333,2.125 C4.20833333,0.974406771 5.14107344,0.0416666667 6.29166667,0.0416666667 L16.7083333,0.0416666667 C17.8589266,0.0416666667 18.7916667,0.974406771 18.7916667,2.125 L18.7916667,10.4583333 Z" id="Path"></path>
                    <line x1="8.375" y1="4.20833333" x2="8.375" y2="6.29166667" id="Path"></line>
                    <line x1="14.625" y1="4.20833333" x2="14.625" y2="6.29166667" id="Path"></line>
                    <path d="M20.875,10.4583333 C22.0255932,10.4583333 22.9583333,11.8760983 22.9583333,13.625 L22.9583333,54.7916667 C22.944605,61.7786118 19.2216744,67.4374663 14.625,67.4583333 L8.375,67.4583333 C3.77832556,67.4374663 0.0553950046,61.7786118 0.0416666667,54.7916667 L0.0416666667,13.625 C0.0416666667,11.8760983 0.974406771,10.4583333 2.125,10.4583333 L20.875,10.4583333 Z" id="Path" fill="#FFFFFF"></path>
                    <line x1="4.20833333" y1="14.625" x2="18.7916667" y2="14.625" id="Path"></line>
                </g>
                <g id="logo-empowerid" transform="translate(30.500000, 4.500000)" fill="#307FC1">
                    <path d="M11.1672473,0 C12.7317551,0 14,1.26824167 14,2.83274551 L14,2.83274551 L14,11.1672899 C14,12.7317229 12.7317551,14 11.1672473,14 L11.1672473,14 L2.83271724,14 C1.26824489,14 0,12.7317229 0,11.1672899 L0,11.1672899 L0,2.83274551 C0,1.26824167 1.26824489,0 2.83271724,0 L2.83271724,0 Z M2.62666599,2.53609344 C2.12924347,2.53609344 1.84123962,2.8502561 1.84123962,3.37387236 L1.84123962,3.37387236 L1.84123962,10.6260922 C1.84123962,11.1497439 2.12924347,11.4639066 2.62666599,11.4639066 C3.11104416,11.4639066 3.399048,11.1497439 3.399048,10.6260922 L3.399048,10.6260922 L3.399048,3.37387236 C3.399048,2.8502561 3.11104416,2.53609344 2.62666599,2.53609344 Z M7.84189285,2.53360211 L5.22373405,2.53360211 C4.70008102,2.53360211 4.38591756,2.85006943 4.38591756,3.37737215 L4.38591756,3.37737215 L4.38591756,10.5230006 C4.38591756,11.050339 4.70008102,11.3667349 5.22373405,11.3667349 L5.22373405,11.3667349 L7.84189285,11.3667349 C10.8395787,11.3667349 12.5937614,9.73199295 12.5937614,6.95018637 C12.5937614,4.16845119 10.8395787,2.53360211 7.84189285,2.53360211 L7.84189285,2.53360211 Z M7.95593919,3.95693136 C9.86010817,3.95693136 11,5.08618778 11,6.99513421 C11,8.90415344 9.86010817,10.0334099 7.95593919,10.0334099 L7.95593919,10.0334099 L6,10.0334099 L6,3.95693136 Z" id="Combined-Shape-Copy"></path>
                </g>
            </g>
        </g>
    </g>
</svg>