<?xml version="1.0" encoding="UTF-8"?>
<svg width="22px" height="22px" viewBox="0 0 22 22" version="1.1" xmlns="http://www.w3.org/2000/svg" xmlns:xlink="http://www.w3.org/1999/xlink">
    <title>EA5D7619-48CE-464E-A6E1-DEE135B6EF1C</title>
    <g id="EID---Legacy-Login-/-Register" stroke="none" stroke-width="1" fill="none" fill-rule="evenodd">
        <g id="login-form---change-password" transform="translate(-904.000000, -506.000000)" fill="#D2D2D2" fill-rule="nonzero">
            <g id="Group-3" transform="translate(493.000000, 33.000000)">
                <g id="content" transform="translate(0.000000, 79.000000)">
                    <g id="account-copy-3" transform="translate(40.000000, 347.000000)">
                        <g id="pw" transform="translate(0.000000, 24.000000)">
                            <g id="Group-2" transform="translate(344.000000, 0.000000)">
                                <g id="voice-id-lock" transform="translate(27.000000, 23.000000)">
                                    <path d="M0.916666667,2.29166667 C0.410405646,2.29166667 0,2.70207231 0,3.20833333 L0,16.0416667 C0,16.5479277 0.410405646,16.9583333 0.916666667,16.9583333 C1.42292769,16.9583333 1.83333333,16.5479277 1.83333333,16.0416667 L1.83333333,3.20833333 C1.83333333,2.70207231 1.42292769,2.29166667 0.916666667,2.29166667 Z" id="Path"></path>
                                    <path d="M4.125,5.95833333 C3.61873898,5.95833333 3.20833333,6.36873898 3.20833333,6.875 L3.20833333,12.375 C3.20833333,12.881261 3.61873898,13.2916667 4.125,13.2916667 C4.63126102,13.2916667 5.04166667,12.881261 5.04166667,12.375 L5.04166667,6.875 C5.04166667,6.36873898 4.63126102,5.95833333 4.125,5.95833333 Z" id="Path"></path>
                                    <path d="M7.33333333,4.58333333 C6.82707231,4.58333333 6.41666667,4.99373898 6.41666667,5.5 L6.41666667,13.75 C6.41666667,14.256261 6.82707231,14.6666667 7.33333333,14.6666667 C7.83959435,14.6666667 8.25,14.256261 8.25,13.75 L8.25,5.5 C8.25,4.99373898 7.83959435,4.58333333 7.33333333,4.58333333 Z" id="Path"></path>
                                    <path d="M10.5416667,0 C10.0354056,0 9.625,0.410405646 9.625,0.916666667 L9.625,18.3333333 C9.625,18.8395944 10.0354056,19.25 10.5416667,19.25 C11.0479277,19.25 11.4583333,18.8395944 11.4583333,18.3333333 L11.4583333,0.916666667 C11.4583333,0.410405646 11.0479277,0 10.5416667,0 Z" id="Path"></path>
                                    <path d="M19.3985,8.998 C19.7253624,9.12909074 20.0335615,9.3026068 20.3151667,9.51408333 C20.3825638,9.56404928 20.4718775,9.57319163 20.548,9.53791667 C20.8737829,9.3904065 21.0831523,9.06595562 21.0833333,8.70833333 L21.0833333,3.20833333 C21.0833333,2.70207231 20.6729277,2.29166667 20.1666667,2.29166667 C19.6604056,2.29166667 19.25,2.70207231 19.25,3.20833333 L19.25,8.70833333 C19.25,8.74041667 19.25,8.77433333 19.25,8.80733333 C19.2592421,8.89394589 19.3167872,8.967831 19.3985,8.998 Z" id="Path"></path>
                                    <path d="M16.3625,8.75508333 C16.5596711,8.724695 16.7588356,8.70906825 16.9583333,8.70833333 L17.6,8.70833333 C17.6952985,8.70874202 17.7808208,8.64989979 17.8145,8.56075 C17.8536044,8.46176841 17.8741143,8.3564224 17.875,8.25 L17.875,6.875 C17.875,6.36873898 17.4645944,5.95833333 16.9583333,5.95833333 C16.4520723,5.95833333 16.0416667,6.36873898 16.0416667,6.875 L16.0416667,8.25 C16.0418781,8.37602641 16.0674408,8.50072238 16.1168333,8.61666667 C16.1575434,8.71345817 16.25862,8.770408 16.3625,8.75508333 L16.3625,8.75508333 Z" id="Path"></path>
                                    <path d="M13.36225,10.45 C13.4613598,10.495645 13.5789001,10.4653984 13.6436667,10.3775833 C13.9015222,10.0275718 14.2141487,9.72144555 14.5695,9.471 C14.6293989,9.42899287 14.6655313,9.36081848 14.6666667,9.28766667 L14.6666667,5.5 C14.6666667,4.99373898 14.256261,4.58333333 13.75,4.58333333 C13.243739,4.58333333 12.8333333,4.99373898 12.8333333,5.5 L12.8333333,9.625 C12.8341543,9.97947132 13.0404783,10.3012938 13.36225,10.45 L13.36225,10.45 Z" id="Path"></path>
                                    <path d="M20.8211667,14.2220833 C20.7084683,14.2060836 20.6247842,14.1094949 20.625,13.9956667 L20.625,13.0625 C20.6249999,11.2905865 19.1885802,9.85416676 17.4166667,9.85416676 C15.6447531,9.85416676 14.2083334,11.2905865 14.2083333,13.0625 L14.2083333,13.9956667 C14.2085491,14.1094949 14.1248651,14.2060836 14.0121667,14.2220833 C13.3354286,14.3196291 12.8331766,14.8996013 12.8333333,15.5833333 L12.8333333,20.625 C12.8333333,21.3843915 13.4489418,22 14.2083333,22 L20.625,22 C21.3843915,22 22,21.3843915 22,20.625 L22,15.5833333 C22.0001567,14.8996013 21.4979047,14.3196291 20.8211667,14.2220833 Z M17.4166667,19.4791667 C16.9104056,19.4791667 16.5,19.068761 16.5,18.5625 C16.5,18.056239 16.9104056,17.6458333 17.4166667,17.6458333 C17.9229277,17.6458333 18.3333333,18.056239 18.3333333,18.5625 C18.3333333,19.068761 17.9229277,19.4791667 17.4166667,19.4791667 Z M18.7916667,13.9791667 C18.7916667,14.1057319 18.6890653,14.2083333 18.5625,14.2083333 L16.2708333,14.2083333 C16.1442681,14.2083333 16.0416667,14.1057319 16.0416667,13.9791667 L16.0416667,13.0625 C16.0416667,12.3031085 16.6572751,11.6875 17.4166667,11.6875 C18.1760582,11.6875 18.7916667,12.3031085 18.7916667,13.0625 L18.7916667,13.9791667 Z" id="Shape"></path>
                                </g>
                            </g>
                        </g>
                    </g>
                </g>
            </g>
        </g>
    </g>
</svg>