<?xml version="1.0" encoding="UTF-8"?>
<svg width="20px" height="21px" viewBox="0 0 20 21" version="1.1" xmlns="http://www.w3.org/2000/svg" xmlns:xlink="http://www.w3.org/1999/xlink">
    <title>4571F377-1C74-44ED-91A5-7FF2488F71A8</title>
    <g id="EID---Legacy-Login-/-Register" stroke="none" stroke-width="1" fill="none" fill-rule="evenodd">
        <g id="login-form---Step-1" transform="translate(-533.000000, -621.000000)" fill-rule="nonzero">
            <g id="form" transform="translate(493.000000, 140.000000)">
                <g id="content" transform="translate(0.000000, 79.000000)">
                    <g id="social" transform="translate(25.000000, 392.000000)">
                        <g id="google" transform="translate(15.000000, 10.029895)">
                            <path d="M20,10.0892562 C20,9.36438768 19.9364706,8.66836965 19.8176471,8 L10.4,8 L10.4,11.9513148 L15.7823529,11.9513148 C15.5573188,13.2150656 14.8359142,14.3296542 13.7858824,15.0359128 L13.7858824,17.6 L17.0176471,17.6 C18.9094118,15.8208866 20,13.2123216 20,10.098873 L20,10.0892562 Z" id="Path" fill="#4285F4"></path>
                            <path d="M10.3330157,20 C12.9715453,20 15.184691,19.1169205 16.8,17.6063904 L13.6418123,15.1291211 C12.7680508,15.7217137 11.6482566,16.0702975 10.3330157,16.0702975 C7.78761062,16.0702975 5.63309886,14.3343499 4.86510854,12 L1.6,12 L1.6,14.5586055 C3.25874056,17.8954405 6.63813282,20.0010826 10.3330157,20 Z" id="Path" fill="#34A853"></path>
                            <path d="M4.8,11.8616715 C4.58205138,11.2737752 4.45769246,10.6455331 4.45769246,10 C4.45769246,9.35446686 4.58205138,8.72622478 4.8,8.13832853 L4.8,5.6 L1.15897596,5.6 C0.395865296,6.96518502 -0.00105747936,8.47208719 0,10 C0,11.5815562 0.420514751,13.0778098 1.15897596,14.4 L4.8,11.8616715 L4.8,11.8616715 Z" id="Path" fill="#FBBC05"></path>
                            <path d="M9.94974027,3.92737869 C11.4530151,3.92737869 12.802108,4.42701554 13.8645186,5.40537421 L16.8,2.57254946 C15.0269066,0.978359324 12.7081533,0 9.94974027,0 C6.07846429,-0.00135347002 2.53767746,2.10436923 0.8,5.44139454 L4.22091395,8 C5.02555146,5.66448821 7.28287284,3.92854064 9.94974027,3.92854064 L9.94974027,3.92737869 Z" id="Path" fill="#EA4335"></path>
                        </g>
                    </g>
                </g>
            </g>
        </g>
    </g>
</svg>