<?xml version="1.0" encoding="UTF-8"?>
<svg width="18px" height="18px" viewBox="0 0 18 18" version="1.1" xmlns="http://www.w3.org/2000/svg" xmlns:xlink="http://www.w3.org/1999/xlink">
    <title>D3C3F6E5-4074-4BC6-8883-7E93233D190D</title>
    <g id="EID---Legacy-Login-/-Register" stroke="none" stroke-width="1" fill="none" fill-rule="evenodd">
        <g id="login-form---Login-as" transform="translate(-1074.000000, -95.000000)" fill="#307FC1">
            <g id="EID/Legacy/Login/User-Select-card" transform="translate(685.000000, 73.000000)">
                <g id="name" transform="translate(114.000000, 20.000000)">
                    <path d="M283.625,9.125 C284.453,9.125 285.125,9.797 285.125,10.625 L285.125,14.1875 C285.125,14.291 285.209,14.375 285.3125,14.375 L285.875,14.375 C286.28975,14.375 286.625,14.71025 286.625,15.125 C286.625,15.53975 286.28975,15.875 285.875,15.875 L282.875,15.875 C282.461,15.875 282.125,15.53975 282.125,15.125 C282.125,14.71025 282.461,14.375 282.875,14.375 L283.4375,14.375 C283.541,14.375 283.625,14.291 283.625,14.1875 L283.625,10.8125 C283.625,10.709 283.541,10.625 283.4375,10.625 L282.875,10.625 C282.461,10.625 282.125,10.289 282.125,9.875 C282.125,9.461 282.461,9.125 282.875,9.125 L283.625,9.125 Z M284.1875,5.75 C284.8085,5.75 285.3125,6.25325 285.3125,6.875 C285.3125,7.49675 284.8085,8 284.1875,8 C283.56575,8 283.0625,7.49675 283.0625,6.875 C283.0625,6.25325 283.56575,5.75 284.1875,5.75 Z M284,2 C279.02975,2 275,6.02975 275,11 C275,15.97025 279.02975,20 284,20 C288.97025,20 293,15.97025 293,11 C292.99475,6.03125 288.968,2.00525 284,2" id="Fill-1"></path>
                </g>
            </g>
        </g>
    </g>
</svg>