<?xml version="1.0" encoding="UTF-8"?>
<svg width="18px" height="18px" viewBox="0 0 18 18" version="1.1" xmlns="http://www.w3.org/2000/svg" xmlns:xlink="http://www.w3.org/1999/xlink">
    <title>4B6E486E-C5B4-498A-ADF7-F66541721849</title>
    <defs>
        <polygon id="path-1" points="0.000128571429 0 18 0 18 17.9999036 0.000128571429 17.9999036"></polygon>
    </defs>
    <g id="EID---Legacy-Login-/-Register" stroke="none" stroke-width="1" fill="none" fill-rule="evenodd">
        <g id="login-form---Step-1" transform="translate(-1000.000000, -257.000000)">
            <g id="Language" transform="translate(993.000000, 250.000000)">
                <g id="globe" transform="translate(7.000000, 7.000000)">
                    <mask id="mask-2" fill="white">
                        <use xlink:href="#path-1"></use>
                    </mask>
                    <g id="Clip-2"></g>
                    <path d="M10.6683429,16.530975 C11.7223071,15.2677607 12.4985571,13.797225 12.9472714,12.2141893 L16.0101643,12.2141893 C14.9995929,14.4082607 13.0224857,16.004475 10.6648071,16.530975 L10.6683429,16.530975 Z M1.98977143,12.2141893 L5.05298571,12.2141893 C5.50073571,13.7978679 6.27859286,15.2690464 7.33480714,16.530975 C4.97745,16.004475 3.00066429,14.4082607 1.98977143,12.2141893 L1.98977143,12.2141893 Z M7.33480714,1.46883214 C6.27987857,2.731725 5.50234286,4.20258214 5.05298571,5.78561786 L1.98977143,5.78561786 C3.00066429,3.59186786 4.97745,1.99533214 7.33480714,1.46883214 L7.33480714,1.46883214 Z M13.2330214,7.07133214 L16.4701286,7.07133214 C16.7957357,8.336475 16.7957357,9.66333214 16.4701286,10.928475 L13.2330214,10.928475 C13.4432357,9.65143929 13.4432357,8.34836786 13.2330214,7.07133214 L13.2330214,7.07133214 Z M9.00012857,1.57490357 C9.01137857,1.570725 9.02391429,1.570725 9.03516429,1.57490357 C10.2157714,2.75293929 11.0964857,4.19679643 11.6033786,5.78561786 L6.39623571,5.78561786 C6.90602143,4.20129643 7.78802143,2.76193929 8.96766429,1.58776071 C8.97666429,1.579725 8.98791429,1.575225 9.00012857,1.57490357 L9.00012857,1.57490357 Z M1.28583445,8.99990357 C1.28487857,8.34933214 1.36684286,7.70133214 1.52980714,7.07133214 L4.76691429,7.07133214 C4.55702143,8.34836786 4.55702143,9.65143929 4.76691429,10.928475 L1.52980714,10.928475 C1.36684286,10.2987964 1.28487857,9.65079643 1.28583445,8.99990357 L1.28583445,8.99990357 Z M6.07191429,10.928475 C5.83598571,9.65368929 5.83598571,8.34643929 6.07191429,7.07133214 L11.9283429,7.07133214 C12.16395,8.34643929 12.16395,9.65368929 11.9283429,10.928475 L6.07191429,10.928475 Z M8.96477143,16.4120464 L8.96477143,16.4120464 C7.78577143,15.2378679 6.90537857,13.7985107 6.39623571,12.2141893 L11.6033786,12.2141893 C11.0935929,13.7988321 10.2119143,15.2381893 9.03227143,16.4120464 C9.01202143,16.4268321 8.9847,16.4268321 8.96477143,16.4120464 L8.96477143,16.4120464 Z M16.0101643,5.78561786 L12.9472714,5.78561786 C12.4988786,4.20226071 11.7213429,2.73076071 10.6648071,1.46883214 C13.0224857,1.99533214 14.9995929,3.59186786 16.0101643,5.78561786 L16.0101643,5.78561786 Z M9.00012857,-9.64285714e-05 C4.02955714,-9.64285714e-05 0.000128571429,4.02933214 0.000128571429,8.99990357 C0.000128571429,13.970475 4.02955714,17.9999036 9.00012857,17.9999036 C13.9703786,17.9999036 18.0001286,13.970475 18.0001286,8.99990357 C18.0001286,4.02933214 13.9703786,-9.64285714e-05 9.00012857,-9.64285714e-05 L9.00012857,-9.64285714e-05 Z" id="Fill-1" fill="#FFFFFF" mask="url(#mask-2)"></path>
                </g>
            </g>
        </g>
    </g>
</svg>