<?xml version="1.0" encoding="UTF-8"?>
<svg width="20px" height="21px" viewBox="0 0 20 21" version="1.1" xmlns="http://www.w3.org/2000/svg" xmlns:xlink="http://www.w3.org/1999/xlink">
    <title>6930F223-5461-493D-9FBC-67B84AB0AB26</title>
    <g id="EID---Legacy-Login-/-Register" stroke="none" stroke-width="1" fill="none" fill-rule="evenodd">
        <g id="login-form---Step-1" transform="translate(-753.000000, -676.000000)" fill="#0078B5">
            <g id="form" transform="translate(493.000000, 140.000000)">
                <g id="content" transform="translate(0.000000, 79.000000)">
                    <g id="social" transform="translate(25.000000, 392.000000)">
                        <g id="buttons/outline/small/social-login/left/normal" transform="translate(220.000000, 55.082212)">
                            <g id="Group-3" transform="translate(15.000000, 10.029895)">
                                <path d="M16.03552,15.7692 L13.64192,15.7692 L13.64192,12.0204 C13.64192,11.1268 13.62512,9.978 12.39712,9.978 C11.15072,9.978 10.95952,10.9516 10.95952,11.9564 L10.95952,15.7692 L8.56592,15.7692 L8.56592,8.062 L10.86352,8.062 L10.86352,9.1156 L10.89552,9.1156 C11.21552,8.5092 11.99632,7.87 13.16192,7.87 C15.58752,7.87 16.03552,9.4668 16.03552,11.542 L16.03552,15.7692 Z M5.86592,7.0084 C5.09872,7.0084 4.47712,6.386 4.47712,5.6188 C4.47712,4.8532 5.09872,4.2308 5.86592,4.2308 C6.63232,4.2308 7.25392,4.8532 7.25392,5.6188 C7.25392,6.386 6.63232,7.0084 5.86592,7.0084 L5.86592,7.0084 Z M4.66832,15.7692 L7.06352,15.7692 L7.06352,8.062 L4.66832,8.062 L4.66832,15.7692 Z M18,-8.52651283e-15 C19.1045695,-8.72941895e-15 20,0.8954305 20,2 L20,18 C20,19.1045695 19.1045695,20 18,20 L2,20 C0.8954305,20 -6.47879704e-13,19.1045695 -6.48014975e-13,18 L-6.48014975e-13,2 C-6.48150246e-13,0.8954305 0.8954305,-8.3236067e-15 2,-8.52651283e-15 L18,-8.52651283e-15 Z" id="Fill-1"></path>
                            </g>
                        </g>
                    </g>
                </g>
            </g>
        </g>
    </g>
</svg>