<?xml version="1.0" encoding="UTF-8"?>
<svg width="19px" height="24px" viewBox="0 0 19 24" version="1.1" xmlns="http://www.w3.org/2000/svg" xmlns:xlink="http://www.w3.org/1999/xlink">
    <title>1BF1D037-0BD3-4282-AF07-91B8F994209B</title>
    <defs>
        <path d="M9.12,0 C12.5662568,0 15.36,2.45603794 15.36,5.48571429 L15.36,8.64 L15.96,8.64 C17.2192092,8.64 18.24,9.67153594 18.24,10.944 L18.24,21.696 C18.24,22.9684641 17.2192092,24 15.96,24 L2.28,24 C1.02079077,24 0,22.9684641 0,21.696 L0,10.944 C0,9.67153594 1.02079077,8.64 2.28,8.64 L2.88,8.64 L2.88,5.48571429 C2.88,2.45603794 5.67374316,0 9.12,0 Z M15.96,10.176 L2.28,10.176 C1.86026359,10.176 1.52,10.5198453 1.52,10.944 L1.52,21.696 C1.52,22.1201547 1.86026359,22.464 2.28,22.464 L15.96,22.464 C16.3797364,22.464 16.72,22.1201547 16.72,21.696 L16.72,10.944 C16.72,10.5198453 16.3797364,10.176 15.96,10.176 Z M8.64,13.44 C10.2305801,13.44 11.52,14.7294199 11.52,16.32 C11.52,17.9105801 10.2305801,19.2 8.64,19.2 C7.04941992,19.2 5.76,17.9105801 5.76,16.32 C5.76,14.7294199 7.04941992,13.44 8.64,13.44 Z M8.64,14.88 C7.84470996,14.88 7.2,15.52471 7.2,16.32 C7.2,17.11529 7.84470996,17.76 8.64,17.76 C9.43529004,17.76 10.08,17.11529 10.08,16.32 C10.08,15.52471 9.43529004,14.88 8.64,14.88 Z M9.12,1.37142857 C6.53530737,1.37142857 4.44,3.21345703 4.44,5.48571429 L4.44,8.64 L13.8,8.64 L13.8,5.48571429 C13.8,3.21345703 11.7046926,1.37142857 9.12,1.37142857 Z" id="path-1"></path>
    </defs>
    <g id="EID---Legacy-Login-/-Register" stroke="none" stroke-width="1" fill="none" fill-rule="evenodd">
        <g id="login-form---Step-3" transform="translate(-576.000000, -304.000000)">
            <g id="form" transform="translate(493.000000, 140.000000)">
                <g id="content" transform="translate(0.000000, 79.000000)">
                    <g id="username-or-pw" transform="translate(64.000000, 40.000000)">
                        <g id="password" transform="translate(0.000000, 29.000000)">
                            <g id="Field-Icon" transform="translate(19.408696, 16.000000)">
                                <mask id="mask-2" fill="white">
                                    <use xlink:href="#path-1"></use>
                                </mask>
                                <use id="Combined-Shape" fill="#D2D2D2" fill-rule="nonzero" xlink:href="#path-1"></use>
                            </g>
                        </g>
                    </g>
                </g>
            </g>
        </g>
    </g>
</svg>