<?xml version="1.0" encoding="UTF-8"?>
<svg width="25px" height="24px" viewBox="0 0 25 24" version="1.1" xmlns="http://www.w3.org/2000/svg" xmlns:xlink="http://www.w3.org/1999/xlink">
    <title>155787BE-29B0-4E74-881D-FE914DCBAF23</title>
    <g id="EID---Legacy-Login-/-Register" stroke="none" stroke-width="1" fill="none" fill-rule="evenodd">
        <g id="login-form---Step-1" transform="translate(-523.000000, -168.000000)" fill="#307FC1">
            <g id="form" transform="translate(493.000000, 140.000000)">
                <g id="logo-empowerid" transform="translate(30.000000, 28.000000)">
                    <path d="M19.7553923,0 C22.5230811,0 24.7666667,2.17412858 24.7666667,4.85613516 L24.7666667,4.85613516 L24.7666667,19.1439256 C24.7666667,21.8258106 22.5230811,24 19.7553923,24 L19.7553923,24 L5.01121168,24 C2.2435856,24 0,21.8258106 0,19.1439256 L0,19.1439256 L0,4.85613516 C0,2.17412858 2.2435856,0 5.01121168,0 L5.01121168,0 Z M4.64669722,4.34758875 C3.76673309,4.34758875 3.25724056,4.88615332 3.25724056,5.78378118 L3.25724056,5.78378118 L3.25724056,18.2161581 C3.25724056,19.1138467 3.76673309,19.6524113 4.64669722,19.6524113 C5.50358526,19.6524113 6.01307778,19.1138467 6.01307778,18.2161581 L6.01307778,18.2161581 L6.01307778,5.78378118 C6.01307778,4.88615332 5.50358526,4.34758875 4.64669722,4.34758875 Z M13.8726819,4.48206279 L9.24103428,4.48206279 C8.31466714,4.48206279 7.75889702,5.02074888 7.75889702,5.91831599 L7.75889702,5.91831599 L7.75889702,18.0815017 C7.75889702,18.9791296 8.31466714,19.5176942 9.24103428,19.5176942 L9.24103428,19.5176942 L13.8726819,19.5176942 C19.1757309,19.5176942 22.2789636,16.7350599 22.2789636,11.9999089 C22.2789636,7.26487932 19.1757309,4.48206279 13.8726819,4.48206279 L13.8726819,4.48206279 Z M14.0744353,7 C17.4430009,7 19.4595238,8.91150333 19.4595238,12.1427955 C19.4595238,15.374211 17.4430009,17.2857143 14.0744353,17.2857143 L14.0744353,17.2857143 L10.6142857,17.2857143 L10.6142857,7 Z" id="Combined-Shape-Copy"></path>
                </g>
            </g>
        </g>
    </g>
</svg>