<?xml version="1.0" encoding="UTF-8"?>
<svg width="24px" height="24px" viewBox="0 0 24 24" version="1.1" xmlns="http://www.w3.org/2000/svg" xmlns:xlink="http://www.w3.org/1999/xlink">
    <title>54AD1642-7B64-484E-869C-97C3FBFE990E</title>
    <g id="EID---Legacy-Login-/-Register" stroke="none" stroke-width="1" fill="none" fill-rule="evenodd">
        <g id="login-form---Step-2.5---Passwordless" transform="translate(-732.000000, -438.000000)">
            <g id="ðŸ¾--select-register" transform="translate(716.000000, 416.000000)">
                <g id="consumer" transform="translate(0.000000, 14.000000)">
                    <g id="icon-fido" transform="translate(16.000000, 8.000000)">
                        <circle id="Oval" fill="#F1F1F1" cx="12" cy="12" r="12"></circle>
                        <g id="password" transform="translate(4.000000, 3.786797)" fill="#000000" fill-rule="nonzero">
                            <path d="M15.2693218,3.35622541 L12.6446512,0.734595315 C11.6635842,-0.245312841 10.0678382,-0.24481284 9.08742772,0.735782817 L1.62065948,8.20379734 C1.37671344,8.44779781 1.37665092,8.84323608 1.62059696,9.08726781 L2.49585186,9.96292576 L0.185866639,12.2433677 C0.0669882694,12.3607429 0,12.520837 0,12.6878686 C0,12.8549001 0.0668319739,13.0149942 0.185616566,13.1324632 L2.90472093,15.8195309 C3.02650639,15.9398749 3.18536516,16 3.34419266,16 C3.50417675,16 3.66416084,15.9389374 3.78622764,15.8169684 L6.06748574,13.5363702 L6.90729281,14.3765906 C7.02451445,14.4938721 7.18362329,14.5597784 7.34945283,14.5597784 C7.34973416,14.5597784 7.35004675,14.5597784 7.35029683,14.5597784 C7.51643896,14.5595597 7.67567283,14.4931846 7.79283195,14.3753718 L13.0388284,9.09795533 C13.2821806,8.85314235 13.2809302,8.45748533 13.0360464,8.21423486 C12.7911938,7.97098439 12.3954223,7.97217189 12.1520702,8.21701612 L7.34823372,13.049588 L6.46113163,12.1620238 L7.82455994,10.7989899 C7.88204543,10.8083024 7.94096884,10.8133649 8.0010801,10.8133649 C8.60522479,10.8133649 9.09496116,10.323739 9.09496116,9.71980029 C9.09496116,9.11583036 8.60522479,8.62623566 8.0010801,8.62623566 C7.39693541,8.62623566 6.90719904,9.11586161 6.90719904,9.71980029 C6.90719904,9.79120668 6.91426359,9.86089431 6.9273299,9.92848819 L5.5774993,11.2779283 L4.64532158,10.3453015 L7.38365029,7.62638997 L10.1889047,7.62638997 C10.3566411,7.62638997 10.5173754,7.55898359 10.6349409,7.4393271 L11.8217865,6.2310435 C11.8901502,6.24441853 11.9606707,6.25160604 12.0329105,6.25160604 C12.6370552,6.25160604 13.1267916,5.76201134 13.1267916,5.15804142 C13.1267916,4.55407149 12.6370552,4.06447679 12.0329105,4.06447679 C11.4287658,4.06447679 10.9390294,4.55407149 10.9390294,5.15804142 C10.9390294,5.21719778 10.9438746,5.27519789 10.9529085,5.331823 L9.92667212,6.37660629 L7.12601276,6.37660629 C6.96099595,6.37660629 6.80263734,6.44185641 6.68550948,6.55813789 L3.76165799,9.46123728 L2.94651435,8.64564195 L9.97165397,1.61928454 C10.4648288,1.12603358 11.2675939,1.12578358 11.7611126,1.61869078 L14.3857832,4.24032088 C14.8716435,4.72560308 14.8721749,5.51576086 14.3869711,6.00176181 C14.1430875,6.24601228 14.1434626,6.64170055 14.3877838,6.88548228 C14.6321049,7.1293265 15.0278765,7.1289515 15.27176,6.88466977 C16.2436993,5.91119913 16.2426052,4.3283523 15.2693218,3.35622541 Z M3.37907782,10.8474587 C3.38017189,10.8482712 3.38126596,10.8490837 3.38232877,10.849865 L5.18379089,12.6522435 L3.34162942,14.4939346 L1.51440979,12.6882748 L3.37907782,10.8474587 Z" id="Shape"></path>
                        </g>
                    </g>
                </g>
            </g>
        </g>
    </g>
</svg>