<?xml version="1.0" encoding="UTF-8"?>
<svg width="24px" height="24px" viewBox="0 0 24 24" version="1.1" xmlns="http://www.w3.org/2000/svg" xmlns:xlink="http://www.w3.org/1999/xlink">
    <title>6D45D07E-8BC2-4502-A19F-78EB6370E697</title>
    <g id="EID---Legacy-Login-/-Register" stroke="none" stroke-width="1" fill="none" fill-rule="evenodd">
        <g id="login-form---Step-2.5---Passwordless" transform="translate(-732.000000, -478.000000)">
            <g id="ðŸ¾--select-register" transform="translate(716.000000, 416.000000)">
                <g id="partner" transform="translate(0.000000, 54.000000)">
                    <g id="icon-empowerid" transform="translate(16.000000, 8.000000)">
                        <circle id="Oval" fill="#F1F1F1" cx="12" cy="12" r="12"></circle>
                        <g id="logo-empowerid" transform="translate(5.000000, 5.000000)" fill="#000000">
                            <path d="M11.1672473,0 C12.7317551,0 14,1.26824167 14,2.83274551 L14,2.83274551 L14,11.1672899 C14,12.7317229 12.7317551,14 11.1672473,14 L11.1672473,14 L2.83271724,14 C1.26824489,14 0,12.7317229 0,11.1672899 L0,11.1672899 L0,2.83274551 C0,1.26824167 1.26824489,0 2.83271724,0 L2.83271724,0 Z M2.62666599,2.53609344 C2.12924347,2.53609344 1.84123962,2.8502561 1.84123962,3.37387236 L1.84123962,3.37387236 L1.84123962,10.6260922 C1.84123962,11.1497439 2.12924347,11.4639066 2.62666599,11.4639066 C3.11104416,11.4639066 3.399048,11.1497439 3.399048,10.6260922 L3.399048,10.6260922 L3.399048,3.37387236 C3.399048,2.8502561 3.11104416,2.53609344 2.62666599,2.53609344 Z M7.84189285,2.53360211 L5.22373405,2.53360211 C4.70008102,2.53360211 4.38591756,2.85006943 4.38591756,3.37737215 L4.38591756,3.37737215 L4.38591756,10.5230006 C4.38591756,11.050339 4.70008102,11.3667349 5.22373405,11.3667349 L5.22373405,11.3667349 L7.84189285,11.3667349 C10.8395787,11.3667349 12.5937614,9.73199295 12.5937614,6.95018637 C12.5937614,4.16845119 10.8395787,2.53360211 7.84189285,2.53360211 L7.84189285,2.53360211 Z M7.95593919,3.95693136 C9.86010817,3.95693136 11,5.08618778 11,6.99513421 C11,8.90415344 9.86010817,10.0334099 7.95593919,10.0334099 L7.95593919,10.0334099 L6,10.0334099 L6,3.95693136 Z" id="Combined-Shape-Copy"></path>
                        </g>
                    </g>
                </g>
            </g>
        </g>
    </g>
</svg>