<?xml version="1.0" encoding="UTF-8"?>
<svg width="24px" height="25px" viewBox="0 0 24 25" version="1.1" xmlns="http://www.w3.org/2000/svg" xmlns:xlink="http://www.w3.org/1999/xlink">
    <title>E9704A11-4014-4EE4-ABFA-25D5E39CBEB3</title>
    <g id="EID---Legacy-Login-/-Register" stroke="none" stroke-width="1" fill="none" fill-rule="evenodd">
        <g id="login-form---Step-3" transform="translate(-712.000000, -298.000000)">
            <g id="form" transform="translate(493.000000, 140.000000)">
                <g id="Register" transform="translate(203.000000, 31.000000)">
                    <g id="ðŸ¾--select-register" transform="translate(0.000000, 25.000000)">
                        <g id="supplier" transform="translate(0.000000, 94.213203)">
                            <g id="Group-3" transform="translate(16.000000, 8.000000)">
                                <circle id="Oval" fill="#F1F1F1" cx="12" cy="12" r="12"></circle>
                                <path d="M13.75,16.0833333 C14.5554153,16.0833333 15.2083333,16.7362514 15.2083333,17.5416667 C15.2083333,18.3470819 14.5554153,19 13.75,19 C12.9445847,19 12.2916667,18.3470819 12.2916667,17.5416667 C12.2916667,16.7362514 12.9445847,16.0833333 13.75,16.0833333 Z M5.59966667,16.4088333 C6.01794803,15.9910088 6.61891571,15.8126274 7.19741667,15.9345833 L7.19741667,15.9345833 L11.25975,16.78975 C11.5420763,16.8482563 11.7366458,17.1078492 11.7135833,17.39525 L11.7135833,17.4069167 C11.7020517,17.5730364 11.6193042,17.7260713 11.4866136,17.8266792 C11.353923,17.927287 11.1842327,17.965654 11.0211667,17.9319167 L11.0211667,17.9319167 L6.95591667,17.0755833 C6.76316969,17.0352896 6.56310313,17.0949585 6.42391667,17.23425 L6.42391667,17.23425 L5.99575,17.663 C5.7676564,17.8907714 5.39810477,17.8905103 5.17033333,17.6624167 C4.9425619,17.4343231 4.94282306,17.0647714 5.17091667,16.837 L5.17091667,16.837 Z M8.77859407,5.72242982 L8.87216667,5.73791667 L10.1438333,6.05583333 C10.1812038,6.06564684 10.2133686,6.08945712 10.2336667,6.12233333 C10.2535275,6.15567348 10.2593988,6.19551458 10.25,6.23316667 L10.25,6.23316667 L9.83583333,7.89741667 C9.8114495,7.99538811 9.8394661,8.09900235 9.90989927,8.17133591 C9.98033244,8.24366947 10.0831642,8.2744341 10.18175,8.25266667 L10.18175,8.25266667 L10.9231667,8.08816667 C10.967966,8.0782527 11.014822,8.08991273 11.04975,8.11966667 L11.04975,8.11966667 L11.6266667,8.61375 C11.7033868,8.67940157 11.8086063,8.70070056 11.9048193,8.67005492 C12.0010324,8.63940927 12.07455,8.56117922 12.0991667,8.46325 L12.0991667,8.46325 L12.5174167,6.79783333 C12.5265283,6.76053862 12.5500906,6.72839513 12.5829142,6.70848214 C12.6157378,6.68856915 12.6551306,6.6825199 12.6924167,6.69166667 L12.6924167,6.69166667 L13.9675833,7.01133333 C14.2797923,7.08963544 14.4695742,7.4060257 14.3916667,7.71833333 L14.3916667,7.71833333 L12.4095,15.6411667 C12.3720298,15.7913406 12.2764131,15.9204667 12.1437018,16.0001154 C12.0109904,16.0797641 11.8520652,16.1034051 11.7019167,16.0658333 L11.7019167,16.0658333 L6.60883333,14.7924167 C6.45865939,14.7549465 6.3295333,14.6593298 6.24988459,14.5266184 C6.17023588,14.393907 6.1465949,14.2349819 6.18416667,14.0848333 L6.18416667,14.0848333 L8.16516667,6.162 C8.24346877,5.84979105 8.55985903,5.6600091 8.87216667,5.73791667 Z M18.4166667,5 C18.7388328,5 19,5.26116723 19,5.58333333 C19,5.90549944 18.7388328,6.16666667 18.4166667,6.16666667 L18.4166667,6.16666667 L17.3083333,6.16666667 C17.0354498,6.16631831 16.7994091,6.35665807 16.7419167,6.62341667 L16.7419167,6.62341667 L14.856,15.1115 C14.7914826,15.4185179 14.4905469,15.6153137 14.1834167,15.5513333 L14.1834167,15.5513333 L14.1676667,15.5478333 C14.0159928,15.5170063 13.8829642,15.4267615 13.798252,15.2972274 C13.7135397,15.1676933 13.6841903,15.0096447 13.71675,14.8583333 L13.71675,14.8583333 L15.6003333,6.37025 C15.7782871,5.56972731 16.4882699,5.00014073 17.3083333,5 L17.3083333,5 Z" id="supplier" fill="#000000" fill-rule="nonzero"></path>
                            </g>
                        </g>
                    </g>
                </g>
            </g>
        </g>
    </g>
</svg>