<?xml version="1.0" encoding="UTF-8"?>
<svg width="24px" height="24px" viewBox="0 0 24 24" version="1.1" xmlns="http://www.w3.org/2000/svg" xmlns:xlink="http://www.w3.org/1999/xlink">
    <title>6AAFB21A-A006-4252-AA8A-209A12A192F8</title>
    <g id="EID---Legacy-Login-/-Register" stroke="none" stroke-width="1" fill="none" fill-rule="evenodd">
        <g id="login-form---Step-3" transform="translate(-712.000000, -258.000000)">
            <g id="form" transform="translate(493.000000, 140.000000)">
                <g id="Register" transform="translate(203.000000, 31.000000)">
                    <g id="ðŸ¾--select-register" transform="translate(0.000000, 25.000000)">
                        <g id="partner" transform="translate(0.000000, 54.000000)">
                            <g id="Group-2" transform="translate(16.000000, 8.000000)">
                                <circle id="Oval" fill="#F1F1F1" cx="12" cy="12" r="12"></circle>
                                <path d="M18.4166667,9.39591667 L17.2138333,9.39591667 C17.0318188,9.39706557 16.8523924,9.43913107 16.6888333,9.519 C16.6522093,9.53654575 16.6099278,9.53802561 16.5721667,9.52308333 L14.0638333,8.5635 L14.0638333,8.5635 C13.5724908,8.38818632 13.0312328,8.41825621 12.5623333,8.64691667 L12.5623333,8.64691667 L11.3239167,9.24775 C11.2792295,9.27010212 11.2262289,9.26812284 11.1833333,9.2425 C10.7163086,8.96482537 10.1462648,8.92165658 9.64275,9.12583333 L9.64275,9.12583333 L7.89683333,9.87016667 C7.83832272,9.89539892 7.77019857,9.87955059 7.72883333,9.83108333 C7.49352091,9.55495285 7.14896134,9.39589256 6.78616667,9.39591667 L5.58333333,9.39591667 C5.34170876,9.39591667 5.14583333,9.59179209 5.14583333,9.83341667 L5.14583333,15.3750833 C5.14583333,15.6167079 5.34170876,15.8125833 5.58333333,15.8125833 L6.78616667,15.8125833 C7.1872753,15.81234 7.56340109,15.6177547 7.79533333,15.2905 C7.82244338,15.2528923 7.86564944,15.2302091 7.912,15.22925 L8.45508333,15.22925 C8.4878022,15.2293311 8.51958155,15.2401976 8.5455,15.2601667 L10.1753333,16.5435 L10.1881667,16.5545833 C10.5998146,16.9654932 11.2562323,16.9965468 11.7048333,16.6263333 L13.4880833,15.1633333 C13.5066989,15.148173 13.5287195,15.1377633 13.55225,15.133 L15.8243333,14.6785833 C15.8628337,14.6710092 15.9027631,14.6792052 15.9351667,14.7013333 C15.9673531,14.7236817 15.9893762,14.75787 15.9964167,14.7964167 C16.1016538,15.3854162 16.6143401,15.8140073 17.2126667,15.8131667 L18.4166667,15.8131667 C18.6582912,15.8131667 18.8541671,15.6172912 18.8541671,15.3756667 L18.8541671,9.834 C18.8543215,9.71786675 18.8082963,9.60643699 18.7262323,9.52426362 C18.6441684,9.44209025 18.5328,9.39591656 18.4166667,9.39591667 Z M13.624,13.5451667 L12.9630833,14.0975833 L12.9496667,14.1075 C12.9241502,14.1248895 12.9001482,14.1444033 12.8779167,14.1658333 L12.8726667,14.1705 L11.1005,15.65275 C11.053507,15.6905998 10.986493,15.6905998 10.9395,15.65275 L9.07283333,14.1821667 C8.96982112,14.1014117 8.84264234,14.0576491 8.71175,14.0579167 L8.17216667,14.0579167 C8.1334417,14.0580725 8.09625781,14.042758 8.0688749,14.0153751 C8.04149199,13.9879922 8.0261775,13.9508083 8.02633216,13.9120833 L8.02633216,11.1791667 C8.02625472,11.1208353 8.06121609,11.0681632 8.115,11.0455833 L10.0855,10.2061667 L10.089,10.2061667 C10.1350574,10.18801 10.1874127,10.1973142 10.2243943,10.2302278 C10.2613759,10.2631415 10.276691,10.3140639 10.264,10.3619167 C10.1803526,10.6793969 10.2007996,11.0153413 10.3223333,11.3203333 C10.4736931,11.7026915 10.7705399,12.0093983 11.14775,12.1731667 C11.3409409,12.2566295 11.549218,12.2995159 11.7596667,12.2991667 C11.957961,12.2991262 12.1544722,12.2617237 12.3389167,12.1889167 L12.3389167,12.1889167 L12.4310833,12.151 C12.4879572,12.1278069 12.5532666,12.1427348 12.5944167,12.1883333 L13.6374167,13.3380833 C13.6643479,13.3673576 13.6780949,13.4063958 13.675449,13.4460855 C13.672803,13.4857752 13.6539955,13.5226431 13.6234167,13.5480833 L13.624,13.5451667 Z M15.9736667,13.33925 C15.9736667,13.40856 15.9249097,13.4683047 15.857,13.4821667 L15.0916667,13.635 C15.0481587,13.6440328 15.0029205,13.6324002 14.9691667,13.6035 C14.9348497,13.5746574 14.9157046,13.5316346 14.91725,13.4868333 C14.9229829,13.2106571 14.8319833,12.9411664 14.66,12.725 L14.6524167,12.7156667 L13.11475,11.024 C12.9440988,10.8521539 12.6895045,10.7944155 12.4614167,10.8758333 L12.4614167,10.8758333 L11.9025833,11.1050833 L11.9025833,11.1050833 C11.8089904,11.1421392 11.7045036,11.1404576 11.6121516,11.1004092 C11.5197995,11.0603608 11.4471627,10.9852329 11.41025,10.8915833 C11.3373597,10.7121957 11.4132365,10.5068226 11.58525,10.4179167 L11.58525,10.4179167 L13.07625,9.69166667 L13.07625,9.69166667 C13.2566819,9.60491892 13.4637775,9.5917401 13.65375,9.65491667 L13.65375,9.65491667 L15.89375,10.5124167 C15.9398884,10.5296506 15.9702343,10.5740023 15.9695833,10.62325 L15.9736667,13.33925 Z" id="partner" fill="#000000" fill-rule="nonzero"></path>
                            </g>
                        </g>
                    </g>
                </g>
            </g>
        </g>
    </g>
</svg>