<?xml version="1.0" encoding="UTF-8"?>
<svg width="24px" height="25px" viewBox="0 0 24 25" version="1.1" xmlns="http://www.w3.org/2000/svg" xmlns:xlink="http://www.w3.org/1999/xlink">
    <title>C8B3A99A-37CF-43AC-B5F1-FE9472609E6A</title>
    <g id="EID---Legacy-Login-/-Register" stroke="none" stroke-width="1" fill="none" fill-rule="evenodd">
        <g id="login-form---Step-3" transform="translate(-712.000000, -218.000000)">
            <g id="form" transform="translate(493.000000, 140.000000)">
                <g id="Register" transform="translate(203.000000, 31.000000)">
                    <g id="ðŸ¾--select-register" transform="translate(0.000000, 25.000000)">
                        <g id="consumer" transform="translate(0.000000, 14.213203)">
                            <g id="Group" transform="translate(16.000000, 8.000000)">
                                <circle id="Oval" fill="#F1F1F1" cx="12" cy="12" r="12"></circle>
                                <path d="M15.6367528,17.5831657 C15.8741091,17.3456425 16.2311884,17.2745171 16.5414409,17.402964 C16.8516934,17.5314109 17.054,17.8341262 17.054,18.1699167 C17.0536788,18.6279982 16.6825812,18.9993567 16.2245,19.0000002 C15.8887096,19.000236 15.5858522,18.7981423 15.4571872,18.4879802 C15.3285223,18.1778181 15.3993966,17.8206888 15.6367528,17.5831657 Z M14.0644167,17.3334167 C14.522859,17.3334167 14.8945,17.7050576 14.8945,18.1635 C14.8945,18.6219424 14.522859,18.9935833 14.0644167,18.9935833 C13.6061076,18.9932616 13.2346551,18.621809 13.2343333,18.1635 C13.2343333,17.7050576 13.6059743,17.3334167 14.0644167,17.3334167 Z M18.3282177,11.3167687 C18.4320304,11.2648623 18.5522616,11.256517 18.66225,11.2935833 C18.7728272,11.3295907 18.8644872,11.4081952 18.916932,11.5119901 C18.9693769,11.6157849 18.9782789,11.736205 18.9416667,11.8465833 L18.9416667,11.8465833 L17.4413333,16.739 C17.4060549,16.8648084 17.2914111,16.9518042 17.16075,16.9519167 L17.16075,16.9519167 L13.526,16.9519167 C13.4006681,16.9519167 13.2893555,16.871826 13.2495,16.753 L13.2495,16.753 L12.1720833,13.5446667 C12.1422404,13.4556923 12.1570325,13.3577934 12.2118305,13.2816081 C12.2666285,13.2054227 12.3547375,13.1602585 12.4485833,13.16025 L12.4485833,13.16025 L17.3684167,13.16025 C17.4941178,13.1604059 17.6057785,13.0800103 17.6455,12.96075 L17.6455,12.96075 L18.10925,11.5700833 C18.14559,11.4598528 18.2244049,11.3686751 18.3282177,11.3167687 Z M9.242,11.125 C10.1768244,11.1297015 11.0851726,11.4359621 11.832,11.99825 C11.9090486,12.0554302 11.9530462,12.1468472 11.9496674,12.242736 C11.9462885,12.3386247 11.8959655,12.4267181 11.8150833,12.4783333 C11.6929555,12.5558363 11.5868178,12.6560335 11.5024167,12.7735 C11.283875,13.0776501 11.2246374,13.4682275 11.3431667,13.8235 L11.3431667,13.8235 L11.4831667,14.2405833 C11.5130096,14.3295577 11.4982175,14.4274566 11.4434195,14.5036419 C11.3886215,14.5798273 11.3005125,14.625 11.2066667,14.625 L11.2066667,14.625 L5.33016667,14.625 C5.23805314,14.625 5.15136293,14.5814454 5.09633406,14.5075758 C5.04130519,14.4337061 5.02440553,14.3381826 5.05075,14.2499167 C5.61066736,12.4013617 7.31052842,11.1339774 9.242,11.125 Z M9.12183333,5 C10.7326639,5 12.0385,6.30583615 12.0385,7.91666667 C12.0385,9.52749719 10.7326639,10.8333333 9.12183333,10.8333333 C7.51180233,10.8314048 6.20709523,9.52669767 6.20516667,7.91666667 C6.20516667,6.30583615 7.51100281,5 9.12183333,5 Z M7.86241667,7.30825 C7.78383758,7.26097088 7.68759772,7.25340228 7.60259399,7.28781674 C7.51759027,7.32223121 7.45372216,7.39462084 7.43016667,7.48325 C7.39166182,7.62451109 7.37204664,7.77025193 7.37183333,7.91666667 C7.37853099,8.8219683 8.07460456,9.57271022 8.97681941,9.64770541 C9.87903425,9.7227006 10.6895068,9.09718795 10.8455833,8.20541667 C10.8585738,8.11421335 10.8277125,8.02223386 10.7623417,7.95732266 C10.696971,7.89241146 10.6047761,7.86219974 10.5136667,7.87583333 C10.3348563,7.90267444 10.1543134,7.91632239 9.9735,7.91666667 C9.22725876,7.91176043 8.49681045,7.70124438 7.86241667,7.30825 Z" id="consumer" fill="#000000" fill-rule="nonzero"></path>
                            </g>
                        </g>
                    </g>
                </g>
            </g>
        </g>
    </g>
</svg>