<?xml version="1.0" encoding="UTF-8"?>
<svg width="19px" height="19px" viewBox="0 0 19 19" version="1.1" xmlns="http://www.w3.org/2000/svg" xmlns:xlink="http://www.w3.org/1999/xlink">
    <title>75A8799D-AFC9-4E69-8CE5-634BBBFDE445</title>
    <g id="EID---Legacy-Login-/-Register" stroke="none" stroke-width="1" fill="none" fill-rule="evenodd">
        <g id="login-form---Passwordless---Mobile-Authentication" transform="translate(-782.000000, -602.000000)" fill="#FFFFFF">
            <g id="Group-2" transform="translate(523.000000, 584.000000)">
                <g id="Group" transform="translate(162.000000, 18.000000)">
                    <path d="M110.277939,7.18744619 C110.427463,6.99489787 110.394537,6.71616126 110.204235,6.56517892 C110.040212,6.43497958 109.808225,6.43956407 109.64964,6.57618168 L101.795894,13.3367672 L97.6485126,11.7138599 C97.1280509,11.5121426 96.8676691,10.9222723 97.0670334,10.395668 C97.1534246,10.1673607 97.3180512,9.97756304 97.5307064,9.86172842 L114.748533,0.102890536 C115.161156,-0.122054803 115.676181,0.0341232789 115.8982,0.451616938 C115.977946,0.601071111 116.011778,0.771308277 115.996372,0.940322913 L114.486036,16.869876 C114.432269,17.4496604 113.92389,17.8757118 113.35117,17.8213092 C113.251186,17.8118346 113.153316,17.7876897 113.059978,17.7500969 L108.012436,15.7726562 L104.843752,18.7767156 C104.513592,19.0893774 103.995547,19.0713451 103.686835,18.7372891 C103.543655,18.5823335 103.464815,18.3778656 103.466326,18.1654511 L103.466326,15.8062758 L110.277939,7.18744619 Z" id="Fill-1"></path>
                </g>
            </g>
        </g>
    </g>
</svg>