<?xml version="1.0" encoding="UTF-8"?>
<svg width="25px" height="15px" viewBox="0 0 25 15" version="1.1" xmlns="http://www.w3.org/2000/svg" xmlns:xlink="http://www.w3.org/1999/xlink">
    <title>F2CFEBF7-FA85-4C9D-A649-F6D16ABCF627</title>
    <defs>
        <path d="M12.4992727,0.00096386341 C17.0842429,-0.0618699366 21.6556666,3.0554973 24.4118589,6.00463211 C25.1948513,6.85410969 25.1961975,8.14023828 24.414985,8.99126451 C21.6879698,11.9099959 17.1821945,15 12.6524524,15 L12.6524524,15 L12.3315044,15 C7.81739286,15 3.31057555,11.9099959 0.586686432,8.99227796 C-0.195562144,8.14169323 -0.195562144,6.85521684 0.586686432,6.00463211 C3.34287875,3.05651075 7.91430246,-0.062883385 12.4992727,0.00096386341 Z M12.4992727,2.83861935 C9.85196313,2.83861935 7.70589472,4.92580632 7.70589472,7.50048193 C7.70589472,10.0751575 9.85196313,12.1623445 12.4992727,12.1623445 C15.1465822,12.1623445 17.2926506,10.0751575 17.2926506,7.50048193 C17.2926506,4.92580632 15.1465822,2.83861935 12.4992727,2.83861935 Z M12.4992727,5.47358516 C13.6502768,5.47358516 14.58335,6.38105775 14.58335,7.50048193 C14.58335,8.61990611 13.6502768,9.52737871 12.4992727,9.52737871 C11.3482685,9.52737871 10.4151953,8.61990611 10.4151953,7.50048193 C10.4151953,6.38105775 11.3482685,5.47358516 12.4992727,5.47358516 Z" id="path-1"></path>
    </defs>
    <g id="EID---Legacy-Login-/-Register" stroke="none" stroke-width="1" fill="none" fill-rule="evenodd">
        <g id="login-form---change-password" transform="translate(-914.000000, -403.000000)">
            <g id="Group-3" transform="translate(493.000000, 33.000000)">
                <g id="content" transform="translate(0.000000, 79.000000)">
                    <g id="account-copy-2" transform="translate(40.000000, 243.000000)">
                        <g id="pw" transform="translate(0.000000, 24.000000)">
                            <g id="Group-4" transform="translate(379.000000, 6.000000)">
                                <g id="Secondary-Icon-Right" transform="translate(2.000000, 18.000000)">
                                    <mask id="mask-2" fill="white">
                                        <use xlink:href="#path-1"></use>
                                    </mask>
                                    <use id="Combined-Shape" fill="#D2D2D2" fill-rule="nonzero" xlink:href="#path-1"></use>
                                </g>
                            </g>
                        </g>
                    </g>
                </g>
            </g>
        </g>
    </g>
</svg>