<?xml version="1.0" encoding="UTF-8"?>
<svg width="24px" height="24px" viewBox="0 0 24 24" version="1.1" xmlns="http://www.w3.org/2000/svg" xmlns:xlink="http://www.w3.org/1999/xlink">
    <title>DDBB0A3D-40ED-48B8-B91B-BEB6FC83E39E</title>
    <g id="EID---Legacy-Login-/-Register" stroke="none" stroke-width="1" fill="none" fill-rule="evenodd">
        <g id="login-form---Step-1" transform="translate(-731.000000, -375.000000)" fill="#D0D9E2" fill-rule="nonzero">
            <g id="form" transform="translate(493.000000, 140.000000)">
                <g id="content" transform="translate(0.000000, 79.000000)">
                    <g id="username-or-pw" transform="translate(64.000000, 40.000000)">
                        <g id="button-next-copy" transform="translate(159.000000, 100.000000)">
                            <g id="touch-id-approved" transform="translate(15.000000, 16.000000)">
                                <path d="M10.557,21.65 L10.551,21.65 L10.54,21.65 C10.1546059,21.7102097 9.7650678,21.7399684 9.375,21.739 C8.96078644,21.739 8.625,22.0747864 8.625,22.489 C8.625,22.9032136 8.96078644,23.2390015 9.375,23.2390015 C9.96696244,23.2393356 10.5576174,23.1834176 11.139,23.072 C11.2262811,23.0553345 11.2981569,22.9935925 11.3277952,22.9098231 C11.3574335,22.8260538 11.3403796,22.7328477 11.283,22.665 C11.0144684,22.3464531 10.7717027,22.0070492 10.557,21.65 L10.557,21.65 Z" id="Path"></path>
                                <path d="M17.125,9.267 C17.1255505,9.38811194 17.2238868,9.48600125 17.345,9.486 L17.375,9.486 C17.6989186,9.48529454 18.0225598,9.50500025 18.344,9.545 C18.4152462,9.55357699 18.4867564,9.53124905 18.5404647,9.48365699 C18.594173,9.43606494 18.6249426,9.36776058 18.625,9.296 L18.625,9.267 C18.6328463,7.22114471 17.9551221,5.23162802 16.7,3.616 C16.5793456,3.4581162 16.4008282,3.35472884 16.203839,3.32865123 C16.0068499,3.30257362 15.80758,3.35594913 15.65,3.477 C15.491707,3.59749172 15.388678,3.77671399 15.3642117,3.97413825 C15.3397454,4.17156251 15.3959083,4.37051304 15.52,4.526 C16.5655934,5.88480996 17.1301576,7.5524728 17.125,9.267 Z" id="Path"></path>
                                <path d="M6.361,21.129 C3.48787107,19.9190563 1.62108322,17.1035019 1.62499411,13.986 L1.62499411,12.1 C1.62499411,11.6857864 1.28921356,11.35 0.875,11.35 C0.460786442,11.35 0.124994106,11.6857864 0.124994106,12.1 L0.124994106,13.988 C0.120812079,17.7077021 2.34866799,21.0668295 5.777,22.51 C5.86932744,22.5492576 5.96867351,22.5693309 6.069,22.569004 C6.42503094,22.5680824 6.73135195,22.3169829 6.80210731,21.9680523 C6.87286268,21.6191217 6.68855073,21.2685327 6.361,21.129 L6.361,21.129 Z" id="Path"></path>
                                <path d="M0.847,9.542 L0.889,9.542 C1.28694398,9.54153386 1.61524599,9.23034921 1.637,8.833 C1.78713043,6.14501759 3.32128674,3.72746118 5.68946941,2.44703181 C8.05765209,1.16660243 10.9206235,1.20671915 13.252,2.553 C13.6088009,2.7411916 14.0505463,2.61345256 14.2518416,2.26387685 C14.4531369,1.91430114 14.3418695,1.46812207 14,1.254 C11.2170772,-0.351516861 7.80047023,-0.398347231 4.97458849,1.13029149 C2.14870675,2.65893021 0.31817469,5.54415955 0.139,8.752 C0.128093446,8.95065524 0.196565867,9.14550406 0.329348209,9.29366515 C0.46213055,9.44182624 0.648341239,9.53115772 0.847,9.542 L0.847,9.542 Z" id="Path"></path>
                                <path d="M14.4,9.944 C14.4669783,9.99144513 14.5530927,10.0026775 14.63,9.974 C14.9854971,9.84173107 15.3496949,9.73414237 15.72,9.652 C15.762699,9.64259751 15.7930002,9.60472185 15.7930002,9.561 L15.7930002,9.267 C15.7932744,7.20886459 14.8066348,5.27540967 13.1399237,4.06793485 C11.4732125,2.86046004 9.32857949,2.52541578 7.373,3.167 C7.18246061,3.22803188 7.02436816,3.36294838 6.93414063,3.54152369 C6.84391311,3.720099 6.82909282,3.92740564 6.893,4.117 C7.02431474,4.50544177 7.44134413,4.71839294 7.833,4.597 C8.32896969,4.42905171 8.84937164,4.34457087 9.373,4.347 C12.0906922,4.34864818 14.2944879,6.54931289 14.3,9.267 L14.3,9.739 C14.2982361,9.81948055 14.3354889,9.89584872 14.4,9.944 Z" id="Path"></path>
                                <path d="M5.705,5.986 C5.84003993,5.83932886 5.91075181,5.64470668 5.90135803,5.44555858 C5.89196426,5.24641049 5.80324652,5.05930857 5.655,4.926 C5.34489105,4.65224232 4.87223567,4.6789964 4.595,4.986 C3.53846696,6.16153586 2.9542915,7.68644753 2.95499936,9.267 L2.95499936,13.986 C2.95885794,17.5300689 5.83093115,20.4021421 9.375,20.406 C9.443,20.406 9.513,20.406 9.584,20.406 C9.66317242,20.4025961 9.73604252,20.3618571 9.78040873,20.2961951 C9.82477495,20.2305331 9.83538267,20.1477249 9.809,20.073 C9.69122631,19.7355787 9.59831135,19.3899885 9.531,19.039 C9.51662431,18.9641771 9.45119131,18.9100691 9.375,18.91 C6.65981337,18.9050468 4.45995323,16.7051866 4.45499936,13.99 L4.45499936,9.267 C4.45676992,8.05733689 4.90143031,6.8901923 5.705,5.986 Z" id="Path"></path>
                                <path d="M9.294,17.5660063 C9.31539005,17.5662674 9.33599621,17.557957 9.3512161,17.5429251 C9.36643599,17.5278931 9.37500167,17.5073917 9.375,17.486 C9.37295897,17.0504689 9.4080864,16.6155579 9.48,16.186 C9.48496341,16.1551601 9.47620251,16.1236912 9.45601676,16.0998527 C9.435831,16.0760143 9.40623619,16.062187 9.375,16.062 C8.2295325,16.0597973 7.3016508,15.1314684 7.29999652,13.986 C7.29999652,13.5717864 6.96421356,13.236 6.55,13.236 C6.13578644,13.236 5.79999652,13.5717864 5.79999652,13.986 C5.79731309,15.9309399 7.34956957,17.5214031 9.294,17.5660063 L9.294,17.5660063 Z" id="Path"></path>
                                <path d="M11.607,11.731 C11.6986921,11.7702068 11.804932,11.7509262 11.877,11.682 C12.1789412,11.3962663 12.5029456,11.134789 12.846,10.9 C12.9141006,10.8530676 12.9548368,10.7757062 12.955,10.693 L12.955,9.267 C12.955,7.98798918 12.2726559,6.80613443 11.165,6.16662901 C10.0573442,5.52712359 8.69265585,5.52712359 7.58499998,6.16662901 C6.47734412,6.80613443 5.795,7.98798918 5.795,9.267 L5.795,10.676 C5.795,11.0902136 6.13078644,11.426 6.545,11.426 C6.95921356,11.426 7.295,11.0902136 7.295,10.676 L7.295,9.267 C7.295,8.11824772 8.22624772,7.18699995 9.375,7.18699995 C10.5237523,7.18699995 11.455,8.11824772 11.455,9.267 L11.455,11.5 C11.4548604,11.6004838 11.5146623,11.691367 11.607,11.731 Z" id="Path"></path>
                                <path d="M10.125,13.514 L10.125,10.681 C10.125,10.2667864 9.78921356,9.931 9.375,9.931 C8.96078644,9.931 8.625,10.2667864 8.625,10.681 L8.625,13.514 C8.625,13.9282136 8.96078644,14.264 9.375,14.264 C9.78921356,14.264 10.125,13.9282136 10.125,13.514 Z" id="Path"></path>
                                <path d="M17.375,10.986 C13.7851491,10.986 10.875,13.8961491 10.875,17.486 C10.875,21.0758509 13.7851491,23.986 17.375,23.986 C20.9648509,23.986 23.875,21.0758509 23.875,17.486 C23.8705921,13.8979765 20.9630235,10.9904079 17.375,10.986 Z M20.849,16.341 L17.944,20.215 C17.6392085,20.6212206 17.1730651,20.8751002 16.6664695,20.9107922 C16.1598738,20.9464842 15.662738,20.760472 15.304,20.401 L13.804,18.901 C13.4132586,18.5105347 13.4130347,17.8772415 13.8035,17.4865 C14.1939653,17.0957586 14.8272585,17.0955347 15.218,17.486 L16.312,18.581 C16.3634371,18.6319858 16.4343905,18.6582682 16.5066301,18.6530945 C16.5788697,18.6479209 16.6453536,18.6117955 16.689,18.554 L19.248,15.142 C19.4623594,14.8561875 19.8129147,14.7064453 20.1676152,14.7491797 C20.5223158,14.7919141 20.8272741,15.0206328 20.9676152,15.3491797 C21.1079564,15.6777266 21.0623594,16.0561875 20.848,16.342 L20.849,16.341 Z" id="Shape"></path>
                            </g>
                        </g>
                    </g>
                </g>
            </g>
        </g>
    </g>
</svg>