<?xml version="1.0" encoding="UTF-8"?>
<svg width="24px" height="24px" viewBox="0 0 24 24" version="1.1" xmlns="http://www.w3.org/2000/svg" xmlns:xlink="http://www.w3.org/1999/xlink">
    <!-- Generator: sketchtool 62 (101010) - https://sketch.com -->
    <title>1D19A308-A73A-4AF4-9454-03775AFA658F</title>
    <desc>Created with sketchtool.</desc>
    <defs>
        <polygon id="path-1" points="0.612 0.1531 13.39 0.1531 13.39 2 0.612 2"></polygon>
        <polygon id="path-3" points="0.6141 0 13.3871 0 13.3871 1.8455 0.6141 1.8455"></polygon>
        <polygon id="path-5" points="0.0003 0.0763 24 0.0763 24 1.9223 0.0003 1.9223"></polygon>
        <polygon id="path-7" points="0.0004 0 11.9984 0 11.9984 12.9218 0.0004 12.9218"></polygon>
        <polygon id="path-9" points="1 0.0968 1.8085 0.0968 1.8085 1.0968 1 1.0968"></polygon>
    </defs>
    <g id="EID---Legacy-Login-/-Register" stroke="none" stroke-width="1" fill="none" fill-rule="evenodd">
        <g id="Languages" transform="translate(-16.000000, -16.000000)">
            <g id="US" transform="translate(15.000000, 16.000000)">
                <path d="M24.0755,16.6157 C23.8065,17.2617 23.4815,17.8787 23.1085,18.4607 L2.8915,18.4607 C2.5185,17.8787 2.1935,17.2617 1.9245,16.6157 L24.0755,16.6157 Z" id="Fill-1" fill="#FFFFFF"></path>
                <path d="M24.6771,14.769 C24.5281,15.406 24.3241,16.022 24.0751,16.616 L1.9241,16.616 C1.6751,16.022 1.4741,15.406 1.3231,14.769 L24.6771,14.769 Z" id="Fill-3" fill="#B12233"></path>
                <path d="M24.9652,12.9223 C24.9162,13.5523 24.8192,14.1693 24.6772,14.7693 L1.3222,14.7693 C1.1802,14.1693 1.0832,13.5523 1.0342,12.9223 L24.9652,12.9223 Z" id="Fill-5" fill="#FFFFFF"></path>
                <path d="M23.1087,18.4609 C22.6827,19.1249 22.1947,19.7429 21.6507,20.3079 L4.3487,20.3079 C3.8067,19.7429 3.3177,19.1249 2.8917,18.4609 L23.1087,18.4609 Z" id="Fill-7" fill="#B12233"></path>
                <g id="Group-11" transform="translate(6.000000, 22.000200)">
                    <mask id="mask-2" fill="white">
                        <use xlink:href="#path-1"></use>
                    </mask>
                    <g id="Clip-10"></g>
                    <path d="M13.39,0.1531 C11.539,1.3221 9.348,2.0001 7,2.0001 C4.654,2.0001 2.462,1.3221 0.612,0.1531 L13.39,0.1531 Z" id="Fill-9" fill="#B12233" mask="url(#mask-2)"></path>
                </g>
                <path d="M21.6507,20.3081 C20.9767,21.0111 20.2167,21.6321 19.3897,22.1531 L6.6117,22.1531 C5.7847,21.6321 5.0247,21.0111 4.3487,20.3081 L21.6507,20.3081 Z" id="Fill-12" fill="#FFFFFF"></path>
                <path d="M21.6507,3.6923 L4.3487,3.6923 C5.0247,2.9893 5.7847,2.3683 6.6137,1.8453 L19.3867,1.8453 C20.2147,2.3673 20.9757,2.9893 21.6507,3.6923" id="Fill-14" fill="#FFFFFF"></path>
                <g id="Group-18" transform="translate(6.000000, 0.000200)">
                    <mask id="mask-4" fill="white">
                        <use xlink:href="#path-3"></use>
                    </mask>
                    <g id="Clip-17"></g>
                    <path d="M13.3871,1.8455 L0.6141,1.8455 C0.9941,1.6045 1.3901,1.3845 1.7991,1.1855 C1.8361,1.1685 1.8741,1.1505 1.9131,1.1335 C2.0521,1.0675 2.1931,1.0045 2.3341,0.9435 C2.3971,0.9175 2.4591,0.8915 2.5241,0.8665 C3.9071,0.3085 5.4171,-0.0005 6.9981,-0.0005 L7.0001,-0.0005 C9.3471,-0.0005 11.5361,0.6765 13.3871,1.8455" id="Fill-16" fill="#B12233" mask="url(#mask-4)"></path>
                </g>
                <path d="M23.1087,5.538 L2.8917,5.538 C2.9997,5.372 3.1087,5.209 3.2237,5.049 C3.2337,5.036 3.2427,5.023 3.2537,5.01 C3.5867,4.545 3.9537,4.104 4.3487,3.692 L21.6507,3.692 C22.1947,4.258 22.6827,4.876 23.1087,5.538" id="Fill-19" fill="#B12233"></path>
                <path d="M24.6771,9.2299 L1.3231,9.2299 C1.4741,8.5949 1.6751,7.9779 1.9241,7.3839 L24.0771,7.3839 C24.3241,7.9779 24.5281,8.5949 24.6771,9.2299" id="Fill-21" fill="#B12233"></path>
                <path d="M24.0775,7.3842 L1.9245,7.3842 C1.9735,7.2652 2.0245,7.1462 2.0795,7.0282 C2.2085,6.7452 2.3485,6.4672 2.5005,6.1962 C2.6245,5.9722 2.7555,5.7522 2.8915,5.5382 L23.1085,5.5382 C23.4815,6.1212 23.8065,6.7382 24.0775,7.3842" id="Fill-23" fill="#FFFFFF"></path>
                <path d="M24.9652,11.0766 L1.0342,11.0766 C1.0412,10.9996 1.0472,10.9236 1.0562,10.8476 C1.0762,10.6226 1.1052,10.3986 1.1392,10.1766 C1.1872,9.8576 1.2492,9.5406 1.3222,9.2296 L24.6772,9.2296 C24.8192,9.8296 24.9162,10.4466 24.9652,11.0766" id="Fill-25" fill="#FFFFFF"></path>
                <g id="Group-29" transform="translate(1.000000, 11.000200)">
                    <mask id="mask-6" fill="white">
                        <use xlink:href="#path-5"></use>
                    </mask>
                    <g id="Clip-28"></g>
                    <path d="M24.0003,0.9993 C24.0003,1.3103 23.9883,1.6173 23.9653,1.9223 L0.0343,1.9223 C0.0123,1.6173 0.0003,1.3103 0.0003,0.9993 C0.0003,0.6883 0.0123,0.3813 0.0343,0.0763 L23.9653,0.0763 C23.9883,0.3813 24.0003,0.6883 24.0003,0.9993" id="Fill-27" fill="#B12233" mask="url(#mask-6)"></path>
                </g>
                <g id="Group-32" transform="translate(1.000000, 0.000200)">
                    <mask id="mask-8" fill="white">
                        <use xlink:href="#path-7"></use>
                    </mask>
                    <g id="Clip-31"></g>
                    <path d="M11.9984,-0.0002 L11.9984,12.9218 L0.0344,12.9218 C0.0124,12.6178 0.0004,12.3108 0.0004,11.9998 C0.0004,11.6878 0.0124,11.3808 0.0344,11.0768 C0.0414,10.9998 0.0474,10.9228 0.0564,10.8478 C0.0764,10.6228 0.1044,10.3988 0.1394,10.1768 C0.1864,9.8568 0.2494,9.5408 0.3224,9.2298 C0.4744,8.5948 0.6754,7.9778 0.9244,7.3838 C0.9734,7.2658 1.0244,7.1458 1.0794,7.0278 C1.2084,6.7448 1.3494,6.4668 1.5004,6.1958 C1.6244,5.9718 1.7554,5.7518 1.8924,5.5378 C1.9994,5.3718 2.1084,5.2088 2.2244,5.0488 C2.2334,5.0358 2.2424,5.0228 2.2534,5.0098 C2.5864,4.5448 2.9534,4.1038 3.3494,3.6918 C4.0244,2.9888 4.7844,2.3688 5.6134,1.8458 C5.9944,1.6038 6.3904,1.3848 6.7994,1.1858 C6.8364,1.1688 6.8744,1.1498 6.9134,1.1328 C7.0524,1.0668 7.1924,1.0048 7.3344,0.9438 C7.3964,0.9168 7.4594,0.8918 7.5234,0.8668 C8.9064,0.3088 10.4174,-0.0002 11.9984,-0.0002" id="Fill-30" fill="#3C3B6D" mask="url(#mask-8)"></path>
                </g>
                <polygon id="Fill-33" fill="#FFFFFF" points="11.4798 0.6142 11.6488 1.1342 12.1948 1.1342 11.7528 1.4542 11.9218 1.9732 11.4798 1.6532 11.0388 1.9732 11.2078 1.4542 10.7648 1.1342 11.3108 1.1342"></polygon>
                <path d="M8.8421,1.8457 L8.8831,1.9737 L8.7071,1.8457 L8.4421,1.6527 L8.1761,1.8457 L8.0001,1.9737 L8.0411,1.8457 L8.1681,1.4547 L7.7991,1.1857 C7.8361,1.1687 7.8741,1.1507 7.9131,1.1337 L8.2731,1.1337 L8.3341,0.9437 C8.3971,0.9177 8.4591,0.8917 8.5241,0.8667 L8.6111,1.1337 L9.1561,1.1337 L8.7151,1.4547 L8.8421,1.8457 Z" id="Fill-35" fill="#FFFFFF"></path>
                <polygon id="Fill-37" fill="#FFFFFF" points="11.4798 3.1977 11.6488 3.7177 12.1948 3.7177 11.7528 4.0377 11.9218 4.5577 11.4798 4.2367 11.0388 4.5577 11.2078 4.0377 10.7648 3.7177 11.3108 3.7177"></polygon>
                <polygon id="Fill-39" fill="#FFFFFF" points="8.4417 3.1977 8.6107 3.7177 9.1567 3.7177 8.7147 4.0377 8.8827 4.5577 8.4417 4.2367 8.0007 4.5577 8.1697 4.0377 7.7267 3.7177 8.2727 3.7177"></polygon>
                <polygon id="Fill-41" fill="#FFFFFF" points="5.4037 3.1977 5.5727 3.7177 6.1187 3.7177 5.6767 4.0377 5.8447 4.5577 5.4037 4.2367 4.9627 4.5577 5.1307 4.0377 4.6887 3.7177 5.2347 3.7177"></polygon>
                <polygon id="Fill-43" fill="#FFFFFF" points="11.4798 5.7812 11.6488 6.3012 12.1948 6.3012 11.7528 6.6222 11.9218 7.1412 11.4798 6.8202 11.0388 7.1412 11.2078 6.6222 10.7648 6.3012 11.3108 6.3012"></polygon>
                <polygon id="Fill-45" fill="#FFFFFF" points="8.4417 5.7812 8.6107 6.3012 9.1567 6.3012 8.7147 6.6222 8.8827 7.1412 8.4417 6.8202 8.0007 7.1412 8.1697 6.6222 7.7267 6.3012 8.2727 6.3012"></polygon>
                <polygon id="Fill-47" fill="#FFFFFF" points="5.4037 5.7812 5.5727 6.3012 6.1187 6.3012 5.6767 6.6222 5.8447 7.1412 5.4037 6.8202 4.9627 7.1412 5.1307 6.6222 4.6887 6.3012 5.2347 6.3012"></polygon>
                <path d="M2.639,6.622 L2.807,7.141 L2.365,6.821 L2.079,7.028 C2.208,6.745 2.349,6.467 2.5,6.196 L2.535,6.3 L3.079,6.3 L2.639,6.622 Z" id="Fill-49" fill="#FFFFFF"></path>
                <polygon id="Fill-51" fill="#FFFFFF" points="11.4798 8.3652 11.6488 8.8852 12.1948 8.8852 11.7528 9.2052 11.9218 9.7242 11.4798 9.4042 11.0388 9.7242 11.2078 9.2052 10.7648 8.8852 11.3108 8.8852"></polygon>
                <polygon id="Fill-53" fill="#FFFFFF" points="8.4417 8.3652 8.6107 8.8852 9.1567 8.8852 8.7147 9.2052 8.8827 9.7242 8.4417 9.4042 8.0007 9.7242 8.1697 9.2052 7.7267 8.8852 8.2727 8.8852"></polygon>
                <polygon id="Fill-55" fill="#FFFFFF" points="5.4037 8.3652 5.5727 8.8852 6.1187 8.8852 5.6767 9.2052 5.8447 9.7242 5.4037 9.4042 4.9627 9.7242 5.1307 9.2052 4.6887 8.8852 5.2347 8.8852"></polygon>
                <polygon id="Fill-57" fill="#FFFFFF" points="2.3656 8.3652 2.5346 8.8852 3.0806 8.8852 2.6376 9.2052 2.8066 9.7242 2.3656 9.4042 1.9236 9.7242 2.0926 9.2052 1.6506 8.8852 2.1966 8.8852"></polygon>
                <polygon id="Fill-59" fill="#FFFFFF" points="11.4798 10.9487 11.6488 11.4687 12.1948 11.4687 11.7528 11.7887 11.9218 12.3087 11.4798 11.9877 11.0388 12.3087 11.2078 11.7887 10.7648 11.4687 11.3108 11.4687"></polygon>
                <polygon id="Fill-61" fill="#FFFFFF" points="8.4417 10.9487 8.6107 11.4687 9.1567 11.4687 8.7147 11.7887 8.8827 12.3087 8.4417 11.9877 8.0007 12.3087 8.1697 11.7887 7.7267 11.4687 8.2727 11.4687"></polygon>
                <polygon id="Fill-63" fill="#FFFFFF" points="5.4037 10.9487 5.5727 11.4687 6.1187 11.4687 5.6767 11.7887 5.8447 12.3087 5.4037 11.9877 4.9627 12.3087 5.1307 11.7887 4.6887 11.4687 5.2347 11.4687"></polygon>
                <polygon id="Fill-65" fill="#FFFFFF" points="2.3656 10.9487 2.5346 11.4687 3.0806 11.4687 2.6376 11.7887 2.8066 12.3087 2.3656 11.9877 1.9236 12.3087 2.0926 11.7887 1.6506 11.4687 2.1966 11.4687"></polygon>
                <polygon id="Fill-67" fill="#FFFFFF" points="9.9613 9.6572 10.1303 10.1762 10.6763 10.1762 10.2333 10.4972 10.4023 11.0162 9.9613 10.6962 9.5193 11.0162 9.6883 10.4972 9.2463 10.1762 9.7923 10.1762"></polygon>
                <polygon id="Fill-69" fill="#FFFFFF" points="6.9232 9.6572 7.0912 10.1762 7.6382 10.1762 7.1952 10.4972 7.3642 11.0162 6.9232 10.6962 6.4812 11.0162 6.6502 10.4972 6.2082 10.1762 6.7542 10.1762"></polygon>
                <polygon id="Fill-71" fill="#FFFFFF" points="3.8841 9.6572 4.0531 10.1762 4.5991 10.1762 4.1571 10.4972 4.3261 11.0162 3.8841 10.6962 3.4431 11.0162 3.6121 10.4972 3.1691 10.1762 3.7161 10.1762"></polygon>
                <g id="Group-75" transform="translate(0.000000, 10.000200)">
                    <mask id="mask-10" fill="white">
                        <use xlink:href="#path-9"></use>
                    </mask>
                    <g id="Clip-74"></g>
                    <path d="M1.1195,0.4968 L1.2885,1.0168 L1.0565,0.8478 C1.0765,0.6218 1.1045,0.3988 1.1395,0.1768 L1.5605,0.1768 L1.1195,0.4968 Z" id="Fill-73" fill="#FFFFFF" mask="url(#mask-10)"></path>
                </g>
                <polygon id="Fill-76" fill="#FFFFFF" points="9.9613 7.0732 10.1303 7.5932 10.6763 7.5932 10.2333 7.9132 10.4023 8.4332 9.9613 8.1122 9.5193 8.4332 9.6883 7.9132 9.2463 7.5932 9.7923 7.5932"></polygon>
                <polygon id="Fill-78" fill="#FFFFFF" points="6.9232 7.0732 7.0912 7.5932 7.6382 7.5932 7.1952 7.9132 7.3642 8.4332 6.9232 8.1122 6.4812 8.4332 6.6502 7.9132 6.2082 7.5932 6.7542 7.5932"></polygon>
                <polygon id="Fill-80" fill="#FFFFFF" points="3.8841 7.0732 4.0531 7.5932 4.5991 7.5932 4.1571 7.9132 4.3261 8.4332 3.8841 8.1122 3.4431 8.4332 3.6121 7.9132 3.1691 7.5932 3.7161 7.5932"></polygon>
                <polygon id="Fill-82" fill="#FFFFFF" points="9.9613 4.4897 10.1303 5.0087 10.6763 5.0087 10.2333 5.3297 10.4023 5.8497 9.9613 5.5287 9.5193 5.8497 9.6883 5.3297 9.2463 5.0087 9.7923 5.0087"></polygon>
                <polygon id="Fill-84" fill="#FFFFFF" points="6.9232 4.4897 7.0912 5.0087 7.6382 5.0087 7.1952 5.3297 7.3642 5.8497 6.9232 5.5287 6.4812 5.8497 6.6502 5.3297 6.2082 5.0087 6.7542 5.0087"></polygon>
                <path d="M4.2249,5.538 L4.3269,5.849 L3.8979,5.538 L3.8849,5.528 L3.8709,5.538 L3.4429,5.849 L3.5439,5.538 L3.6119,5.33 L3.2239,5.049 C3.2339,5.036 3.2429,5.023 3.2529,5.01 L3.7149,5.01 L3.8849,4.489 L4.0529,5.01 L4.5999,5.01 L4.1579,5.33 L4.2249,5.538 Z" id="Fill-86" fill="#FFFFFF"></path>
                <polygon id="Fill-88" fill="#FFFFFF" points="9.9613 1.9062 10.1303 2.4252 10.6763 2.4252 10.2333 2.7462 10.4023 3.2652 9.9613 2.9452 9.5193 3.2652 9.6883 2.7462 9.2463 2.4252 9.7923 2.4252"></polygon>
                <polygon id="Fill-90" fill="#FFFFFF" points="6.9232 1.9062 7.0912 2.4252 7.6382 2.4252 7.1952 2.7462 7.3642 3.2652 6.9232 2.9452 6.4812 3.2652 6.6502 2.7462 6.2082 2.4252 6.7542 2.4252"></polygon>
            </g>
        </g>
    </g>
</svg>