<?xml version="1.0" encoding="UTF-8"?>
<svg width="22px" height="22px" viewBox="0 0 22 22" version="1.1" xmlns="http://www.w3.org/2000/svg" xmlns:xlink="http://www.w3.org/1999/xlink">
    <title>219C7777-B824-406A-ADEB-A82F807A4EBB</title>
    <g id="EID---Legacy-Login-/-Register" stroke="none" stroke-width="1" fill="none" fill-rule="evenodd">
        <g id="login-form---Passwordless---Device-Registration---Step-1" transform="translate(-523.000000, -645.000000)">
            <g id="question-circle" transform="translate(523.000000, 645.000000)">
                <circle id="Oval" fill="#D3A30D" cx="11" cy="11.001" r="11"></circle>
                <path d="M11,16 C10.8619288,16 10.75,16.1119288 10.75,16.25 C10.75,16.3880712 10.8619288,16.5 11,16.5 C11.1380712,16.5 11.25,16.3880712 11.25,16.25 C11.25,16.1119288 11.1380712,16 11,16 L11,16" id="Path" stroke="#FFFFFF" stroke-linecap="round" stroke-linejoin="round"></path>
                <path d="M8,9.005 C8.00022704,7.50672115 9.10584699,6.23832178 10.5900726,6.0335933 C12.0742983,5.82886482 13.4820149,6.75058404 13.8878499,8.19285223 C14.2936849,9.63512042 13.5731953,11.1556884 12.2,11.755 C11.4711566,12.0730933 11.000012,12.7927667 11,13.588 L11,14" id="Path" stroke="#FFFFFF" stroke-linecap="round" stroke-linejoin="round"></path>
            </g>
        </g>
    </g>
</svg>