<?xml version="1.0" encoding="UTF-8"?>
<svg width="51px" height="56px" viewBox="0 0 51 56" version="1.1" xmlns="http://www.w3.org/2000/svg" xmlns:xlink="http://www.w3.org/1999/xlink">
    <title>3F505550-7FA6-4E4A-862A-BDE6D90482D4</title>
    <g id="EID---Legacy-Login-/-Register" stroke="none" stroke-width="1" fill="none" fill-rule="evenodd">
        <g id="login-form---Passwordless---Device-Registration---Step-1" transform="translate(-605.000000, -494.000000)" fill="#D2D2D9">
            <g id="SMS-01" transform="translate(523.000000, 474.000000)">
                <g id="icon-comm-email" transform="translate(82.000000, 20.000000)">
                    <path d="M25.0036795,0.181128042 C25.2887363,-0.0603760141 25.7115171,-0.0603760141 25.9965739,0.181128042 L25.9965739,0.181128042 L50.7324031,21.1443517 C50.7614787,21.1685123 50.7890515,21.1951296 50.8148169,21.2241815 L50.7587163,21.1673846 C50.7739487,21.1812512 50.7885964,21.195724 50.8026189,21.2107637 L50.8180724,21.2276894 C50.8211495,21.2311926 50.8241881,21.2347184 50.8271881,21.2382663 C50.8320227,21.2441717 50.8371463,21.2504351 50.8421669,21.2567803 L50.8657065,21.2879605 C50.8750673,21.301165 50.8839448,21.314613 50.8923372,21.3282796 C50.9044054,21.3481035 50.9156835,21.3685348 50.9259804,21.3895141 C50.9296035,21.3969906 50.9329392,21.404092 50.9361529,21.4112305 C50.945104,21.4309588 50.9533089,21.451586 50.9605721,21.4726374 C50.9648016,21.4852112 50.9687052,21.4976543 50.9722683,21.5101762 C50.9904876,21.5737311 51.0001267,21.6404737 51.0001267,21.7094257 L51.0001267,21.7094257 L51.000094,55.2583666 C51.0001459,55.292845 50.9977492,55.3273586 50.9928845,55.361638 L50.9905766,55.3753774 C50.9887895,55.3862186 50.9867562,55.3970153 50.9844804,55.4077586 C50.9798971,55.4313325 50.9738182,55.4546469 50.9665524,55.477703 C50.9617882,55.4910165 50.9570756,55.5045085 50.9519753,55.5178574 C50.9447422,55.5384591 50.9359336,55.5587672 50.9261455,55.5787555 C50.917494,55.5952083 50.9088318,55.6113997 50.8995722,55.6272646 C50.8761241,55.6680989 50.8476848,55.7074426 50.8148169,55.744503 L50.8705068,55.6731288 C50.8435285,55.7124418 50.8126613,55.7492933 50.7782125,55.7829647 L50.8321267,55.72 L50.8148169,55.744503 C50.8088245,55.7512598 50.8027342,55.7578849 50.7965501,55.7643781 L50.7782125,55.7829647 C50.7716871,55.7893429 50.7650476,55.7955944 50.7582989,55.8017173 C50.7418032,55.8168291 50.7247065,55.8310601 50.7071204,55.8444397 C50.6957772,55.8527187 50.6840434,55.8610787 50.6720839,55.8690967 C50.6502869,55.8842315 50.6279362,55.8976458 50.6050519,55.9098366 C50.5955754,55.9142676 50.5854757,55.9193619 50.5752673,55.9242334 C50.547802,55.9379687 50.5200787,55.9492237 50.491863,55.9588154 C50.4851862,55.960524 50.4783931,55.9627418 50.4715689,55.9648663 C50.441849,55.9745981 50.4115342,55.9819933 50.3809106,55.9875437 C50.3351486,55.9955963 50.2889063,55.9998711 50.2424155,55.9998711 L50.3568216,55.9915199 C50.3149846,55.9977527 50.2726683,56.0005689 50.2303488,55.9999342 L0.76990456,55.9999342 C0.727585035,56.0005689 0.685268794,55.9977527 0.643431734,55.9915199 C0.635851789,55.9901171 0.627749013,55.9887674 0.619673461,55.9872901 C0.588719225,55.9819933 0.558404415,55.9745981 0.528587733,55.9653717 C0.521431301,55.9626498 0.514340095,55.9603318 0.507285605,55.9579131 C0.480574289,55.9493173 0.454210417,55.9386591 0.428434284,55.9265082 C0.415244617,55.919755 0.40209496,55.9131042 0.389150675,55.9060827 C0.368786879,55.8954949 0.348774711,55.883381 0.329275493,55.870288 C0.290872659,55.8442989 0.254970352,55.8152556 0.222040886,55.7829647 L0.293133013,55.8444397 C0.254678204,55.8151832 0.218563373,55.7818554 0.185436483,55.744503 L0.242126691,55.799 L0.222040886,55.7829647 C0.215635116,55.7767035 0.209353188,55.7703323 0.203197078,55.7638558 L0.185436483,55.744503 C0.178641223,55.7368409 0.172035255,55.7290813 0.165618187,55.7212295 C0.153297758,55.7059895 0.141173354,55.6897799 0.129746629,55.6731288 C0.118977163,55.6579976 0.109209603,55.6426641 0.100074362,55.6270906 C0.0914215406,55.6113997 0.0827593704,55.5952083 0.0747123549,55.578732 C0.0643197583,55.5587672 0.0555111938,55.5384591 0.0476775236,55.5178971 C0.04317781,55.5045085 0.0384651993,55.4910165 0.0341487097,55.4774011 C0.0264352045,55.4546469 0.020356312,55.4313325 0.0154580075,55.4078485 C0.0054607246,55.3590781 0.000126691339,55.3093009 0.000126691339,55.2592587 L0.00736884915,55.361638 C0.00250418996,55.3273586 0.000107440338,55.292845 0.000159349287,55.2583666 L0.000126691339,21.7094257 C0.000126691339,21.6404737 0.00975282576,21.5737311 0.0277639798,21.510411 C0.0314354244,21.4976543 0.0353441611,21.4852112 0.0395922942,21.4728612 C0.0468922517,21.451586 0.055089123,21.4309588 0.0641782645,21.4108034 C0.0673141555,21.4040946 0.070649902,21.3969929 0.0741079114,21.389931 C0.0832314661,21.3710878 0.0930241091,21.3530842 0.103534131,21.3355417 C0.11627119,21.314613 0.125153568,21.301165 0.134518903,21.2879605 C0.148939672,21.2677311 0.164173281,21.2483726 0.180328209,21.229804 L0.182170688,21.2276894 L0.197473998,21.2107637 C0.212897584,21.1942132 0.229078828,21.1783493 0.245964299,21.1632242 C0.252283994,21.1575868 0.258595056,21.1521084 0.264979556,21.1467493 L0.267126691,21.144 Z M30.4481267,39.464 L25.9965739,43.2377235 C25.7115171,43.4792275 25.2887363,43.4792275 25.0036795,43.2377235 L25.0036795,43.2377235 L20.5511267,39.464 L2.78812669,54.518 L48.2111267,54.518 L30.4481267,39.464 Z M1.51512669,23.331 L1.51512669,53.636 L19.3941267,38.484 L1.51512669,23.331 Z M49.4841267,23.331 L31.6051267,38.484 L49.4841267,53.636 L49.4841267,23.331 Z M41.4587314,19.2366925 L9.54152197,19.2366925 L9.54112669,28.173 L21.0416565,37.9193879 C21.042615,37.9201853 21.0435719,37.9209854 21.0445272,37.9217882 L21.0471267,37.924 L25.5001267,41.6979115 L41.4581267,28.173 L41.4587314,19.2366925 Z M25.5001267,1.72138725 L1.91412669,21.709 L8.02512669,26.888 L8.02564211,18.4960801 C8.02564211,18.3400864 8.07747395,18.1866687 8.17036128,18.061015 L8.24755631,17.9723741 C8.38894082,17.8341801 8.58385926,17.7554677 8.78381082,17.7554677 L8.78381082,17.7554677 L42.2164426,17.7554677 C42.4159366,17.7554677 42.6113126,17.8341801 42.7522395,17.9723741 C42.893624,18.1101208 42.9741537,18.3010879 42.9741537,18.4960801 L42.9741537,18.4960801 L42.9741267,26.888 L49.0851267,21.709 L25.5001267,1.72138725 Z" id="Combined-Shape"></path>
                </g>
            </g>
        </g>
    </g>
</svg>