<?xml version="1.0" encoding="UTF-8"?>
<svg width="62px" height="56px" viewBox="0 0 62 56" version="1.1" xmlns="http://www.w3.org/2000/svg" xmlns:xlink="http://www.w3.org/1999/xlink">
    <title>48197FAE-4BB1-4027-847B-399188AC8DAA</title>
    <g id="EID---Legacy-Login-/-Register" stroke="none" stroke-width="1" fill="none" fill-rule="evenodd">
        <g id="login-form---Passwordless---Device-Registration---Step-1" transform="translate(-823.000000, -333.000000)" fill="#848992">
            <g id="SMS-01-Copy" transform="translate(748.000000, 313.000000)">
                <g id="icon-device-call" transform="translate(75.000000, 20.000000)">
                    <path d="M42.8662008,1.49924517e-12 C45.1951594,1.49924517e-12 47.0755071,1.88512016 47.0755071,4.21407875 L47.0755071,4.21407875 L47.0755071,51.7906937 C47.0755071,54.1148798 45.1951594,56 42.8662008,56 L42.8662008,56 L18.7843873,56 C16.4602011,56 14.575081,54.1148798 14.575081,51.7906937 L14.575081,51.7906937 L14.575081,4.21407875 C14.575081,1.88512016 16.4602011,1.49924517e-12 18.7843873,1.49924517e-12 L18.7843873,1.49924517e-12 Z M42.8662008,1.58445543 L18.7843873,1.58445543 C18.0542015,1.58445543 17.4051474,1.87557525 16.9231294,2.35282086 C16.4458838,2.83006647 16.1547639,3.48389296 16.1547639,4.21407875 L16.1547639,4.21407875 L16.1547639,51.7906937 C16.1547639,52.516107 16.4458838,53.1699335 16.9231294,53.6471791 C17.4051474,54.1244247 18.0542015,54.420317 18.7843873,54.420317 L18.7843873,54.420317 L30.7319731,54.421688 C29.6942229,53.9993778 28.9640361,52.9815053 28.9640361,51.7906937 C28.9640361,50.2205557 30.2335095,48.9510823 31.8036475,48.9510823 C33.3737856,48.9510823 34.6480314,50.2205557 34.6480314,51.7906937 L34.6480314,51.7906937 L34.6428373,51.963867 C34.5757158,53.0795005 33.8643562,54.0200014 32.876023,54.421688 L42.8662008,54.420317 L43.0633739,54.4130669 C43.7138048,54.3650196 44.293599,54.0810388 44.7274587,53.6471791 C45.2047043,53.1699335 45.4958241,52.516107 45.4958241,51.7906937 L45.4958241,51.7906937 L45.4958241,4.21407875 C45.4958241,3.48389296 45.2047043,2.83006647 44.7274587,2.35282086 C44.2502131,1.87557525 43.5963866,1.58445543 42.8662008,1.58445543 L42.8662008,1.58445543 Z M31.8036475,50.5307653 C31.1116414,50.5307653 30.5437191,51.0939151 30.5437191,51.7906937 C30.5437191,52.4874723 31.1116414,53.0506221 31.8036475,53.0506221 C32.5004261,53.0506221 33.0635759,52.4874723 33.0635759,51.7906937 L33.0635759,51.7906937 L33.0570814,51.6617186 C32.9926602,51.0257212 32.4568775,50.5307653 31.8036475,50.5307653 Z M42.2696438,4.27134822 C42.4748594,4.27134822 42.680075,4.35725243 42.8280211,4.50519857 C42.9711948,4.64837225 43.057099,4.85358786 43.057099,5.06357593 L43.057099,5.06357593 L43.057099,47.2664053 L43.0470196,47.3890765 C43.0204466,47.5514164 42.9425601,47.7064258 42.8280211,47.8247827 C42.680075,47.9727288 42.4748594,48.0538606 42.2696438,48.0538606 L42.2696438,48.0538606 L19.3857167,48.0538606 C19.1757287,48.0538606 18.970513,47.9727288 18.8273394,47.8247827 C18.6793932,47.6768365 18.593489,47.4716209 18.593489,47.2664053 L18.593489,47.2664053 L18.593489,5.06357593 C18.593489,4.85358786 18.6793932,4.64837225 18.8273394,4.50519857 C18.970513,4.35725243 19.1757287,4.27134822 19.3857167,4.27134822 L19.3857167,4.27134822 Z M42.2696438,46.4741776 L41.477,46.474 L41.4774161,47.2664053 L42.2696438,47.2664053 L42.2696438,46.4741776 Z M41.4774161,5.85103119 L20.173172,5.85103119 L20.173172,46.4741776 L41.477,46.474 L41.4774161,5.85103119 Z M54.9261974,13.9546617 C55.236407,13.644452 55.7375149,13.644452 56.0429521,13.9546617 C59.5077552,17.4146923 61.6553605,22.2014658 61.6553605,27.4750298 C61.6553605,32.7485938 59.5077552,37.5353673 56.0429521,40.995398 C55.7375149,41.3008352 55.236407,41.3008352 54.9261974,40.995398 C54.6159877,40.6851883 54.6159877,40.1840804 54.9261974,39.8786433 C58.1046531,36.695415 60.0709051,32.3143003 60.0709051,27.4750298 C60.0709051,22.6357593 58.1046531,18.2546446 54.9261974,15.0714164 C54.6159877,14.7612067 54.6159877,14.2648713 54.9261974,13.9546617 Z M5.60763593,13.9546617 C5.91784558,13.644452 6.41418101,13.644452 6.72439066,13.9546617 C7.03460031,14.2648713 7.03460031,14.7612067 6.72439066,15.0714164 C3.54593489,18.2546446 1.57968297,22.6357593 1.57968297,27.4750298 C1.57968297,32.3143003 3.54593489,36.695415 6.72439066,39.8786433 C7.03460031,40.1840804 7.03460031,40.6851883 6.72439066,40.995398 C6.41418101,41.3008352 5.91784558,41.3008352 5.60763593,40.995398 C2.14283279,37.5353673 2.04281037e-14,32.7485938 2.04281037e-14,27.4750298 C2.04281037e-14,22.2014658 2.14283279,17.4146923 5.60763593,13.9546617 Z M51.8002386,17.0806204 C52.1056758,16.7751832 52.6067837,16.7751832 52.9169934,17.0806204 C55.5752514,19.7436509 57.2265212,23.4232146 57.2265212,27.4750298 C57.2265212,31.5268451 55.5752514,35.2064087 52.9169934,37.8646668 C52.6067837,38.1748764 52.1056758,38.1748764 51.8002386,37.8646668 C51.490029,37.5592296 51.490029,37.0581217 51.8002386,36.7479121 C54.1769218,34.3712289 55.6468382,31.0925516 55.6468382,27.4750298 C55.6468382,23.8527356 54.1769218,20.5788307 51.8002386,18.2021476 C51.490029,17.891938 51.490029,17.3908301 51.8002386,17.0806204 Z M8.73359468,17.0806204 C9.04380433,16.7751832 9.54491222,16.7751832 9.85512187,17.0806204 C10.1605591,17.3908301 10.1605591,17.891938 9.85512187,18.2021476 C7.47366627,20.5788307 6.00374979,23.8575081 6.00374979,27.4750298 C6.00374979,31.0925516 7.47366627,34.3712289 9.85512187,36.7479121 C10.1605591,37.0581217 10.1605591,37.5592296 9.85512187,37.8646668 C9.54491222,38.1748764 9.04380433,38.1748764 8.73359468,37.8646668 C6.07533663,35.2064087 4.42406681,31.5268451 4.42406681,27.4750298 C4.42406681,23.4232146 6.07533663,19.7436509 8.73359468,17.0806204 Z M48.6695074,20.2113516 C48.9797171,19.901142 49.480825,19.901142 49.7862621,20.2113516 C51.64752,22.0678371 52.8024544,24.6401909 52.8024544,27.4750298 C52.8024544,30.3050963 51.64752,32.8774501 49.7862621,34.738708 C49.480825,35.0441452 48.9797171,35.0441452 48.6695074,34.738708 C48.3592978,34.4284984 48.3592978,33.9273905 48.6695074,33.6171808 C50.2444179,32.0422703 51.217999,29.8708028 51.217999,27.4750298 C51.217999,25.0744844 50.2444179,22.9077893 48.6695074,21.3281064 C48.3592978,21.0178967 48.3592978,20.5215613 48.6695074,20.2113516 Z M11.8643259,20.2113516 C12.1745355,19.901142 12.670871,19.901142 12.9810806,20.2113516 C13.2912903,20.5215613 13.2912903,21.0178967 12.9810806,21.3281064 C11.4061701,22.9077893 10.4325891,25.0744844 10.4325891,27.4750298 C10.4325891,29.8708028 11.4061701,32.0422703 12.9810806,33.6171808 C13.2912903,33.9273905 13.2912903,34.4284984 12.9810806,34.738708 C12.670871,35.0441452 12.1745355,35.0441452 11.8643259,34.738708 C10.003068,32.8774501 8.85290608,30.3050963 8.85290608,27.4750298 C8.85290608,24.6401909 10.003068,22.0678371 11.8643259,20.2113516 Z" id="Combined-Shape"></path>
                </g>
            </g>
        </g>
    </g>
</svg>