<?xml version="1.0" encoding="UTF-8"?>
<svg width="56px" height="56px" viewBox="0 0 56 56" version="1.1" xmlns="http://www.w3.org/2000/svg" xmlns:xlink="http://www.w3.org/1999/xlink">
    <title>14FBBE1F-6613-41C8-BD19-14D89C2195A4</title>
    <g id="EID---Legacy-Login-/-Register" stroke="none" stroke-width="1" fill="none" fill-rule="evenodd">
        <g id="login-form---Passwordless---Device-Registration---Step-1" transform="translate(-603.000000, -333.000000)">
            <g id="SMS-01" transform="translate(523.000000, 313.000000)">
                <g id="icon-device-text" transform="translate(80.000000, 20.000000)">
                    <rect id="FakeFill" fill-opacity="0" fill="#000000" x="0" y="0" width="56" height="56"></rect>
                    <path d="M37.3443902,1.93267624e-12 C40.1125203,1.93267624e-12 42.3570732,2.24455285 42.3570732,5.01268293 L42.3570732,5.01268293 L42.3570732,13.9453659 C42.3570732,14.3642276 42.0201626,14.7011382 41.6058537,14.7011382 C41.1869919,14.7011382 40.8500813,14.3642276 40.8500813,13.9453659 L40.8500813,13.9453659 L40.8500813,5.01268293 C40.8500813,4.04292683 40.4585366,3.17333333 39.8256911,2.53593496 C39.1882927,1.89853659 38.3141463,1.50699187 37.3443902,1.50699187 L37.3443902,1.50699187 L15.0126829,1.50699187 C14.0429268,1.50699187 13.1687805,1.89853659 12.5313821,2.53593496 C11.8985366,3.17333333 11.5069919,4.04292683 11.5069919,5.01268293 L11.5069919,5.01268293 L11.5069919,50.7869919 C11.5069919,51.756748 11.8985366,52.6308943 12.5313821,53.2682927 C13.1687805,53.9011382 14.0429268,54.2926829 15.0126829,54.2926829 L15.0126829,54.2926829 L37.3443902,54.2926829 C38.3141463,54.2926829 39.1882927,53.9011382 39.8256911,53.2682927 C40.4585366,52.6308943 40.8500813,51.756748 40.8500813,50.7869919 L40.8500813,50.7869919 L40.8500813,36.3817886 C40.8500813,35.9674797 41.1869919,35.6305691 41.6058537,35.6305691 C42.0201626,35.6305691 42.3570732,35.9674797 42.3570732,36.3817886 L42.3570732,36.3817886 L42.3570732,50.7869919 C42.3570732,53.555122 40.1125203,55.7996748 37.3443902,55.7996748 L37.3443902,55.7996748 L15.0126829,55.7996748 C12.2445528,55.7996748 10,53.555122 10,50.7869919 L10,50.7869919 L10,5.01268293 C10,2.24455285 12.2445528,1.93267624e-12 15.0126829,1.93267624e-12 L15.0126829,1.93267624e-12 Z M26.1762602,48.1508943 C27.6878049,48.1508943 28.9125203,49.3756098 28.9125203,50.8871545 L28.9125203,50.8871545 L28.907528,51.0538759 C28.8214072,52.4877389 27.6318217,53.6234146 26.1762602,53.6234146 C24.6692683,53.6234146 23.4445528,52.3986992 23.4445528,50.8871545 C23.4445528,49.3756098 24.6692683,48.1508943 26.1762602,48.1508943 Z M26.1762602,49.6578862 C25.502439,49.662439 24.9515447,50.2087805 24.9515447,50.8871545 C24.9515447,51.5655285 25.502439,52.1118699 26.1762602,52.1118699 C26.8546341,52.1118699 27.4055285,51.5655285 27.4055285,50.8871545 L27.4055285,50.8871545 L27.399176,50.7616066 C27.3361687,50.1426042 26.8122358,49.6621545 26.1762602,49.6578862 Z M37.5947967,4.26146341 C37.7905691,4.26146341 37.9863415,4.33886179 38.1274797,4.48 C38.2686179,4.62113821 38.3460163,4.81691057 38.3460163,5.01268293 L38.3460163,5.01268293 L38.3460163,13.9453659 C38.3460163,14.3642276 38.0091057,14.7011382 37.5947967,14.7011382 C37.175935,14.7011382 36.8390244,14.3642276 36.8390244,13.9453659 L36.8390244,13.9453659 L36.8390244,5.76845528 L15.5180488,5.76845528 L15.5180488,46.3661789 L36.8390244,46.3661789 L36.8390244,36.3817886 C36.8390244,35.9674797 37.175935,35.6305691 37.5947967,35.6305691 C38.0091057,35.6305691 38.3460163,35.9674797 38.3460163,36.3817886 L38.3460163,36.3817886 L38.3460163,47.1219512 C38.3460163,47.3222764 38.2686179,47.5134959 38.1274797,47.6546341 C37.9863415,47.7957724 37.7905691,47.8777236 37.5947967,47.8777236 L37.5947967,47.8777236 L14.7622764,47.8777236 C14.5665041,47.8777236 14.3707317,47.7957724 14.2295935,47.6546341 C14.0884553,47.5134959 14.0065041,47.3222764 14.0065041,47.1219512 L14.0065041,47.1219512 L14.0065041,5.01268293 C14.0065041,4.81691057 14.0884553,4.62113821 14.2295935,4.48 C14.3707317,4.33886179 14.5619512,4.26146341 14.7622764,4.26146341 L14.7622764,4.26146341 Z M39.6708943,15.2292683 C42.9899187,15.2292683 45.6806504,17.92 45.6806504,21.2390244 L45.6806504,21.2390244 L45.6806504,28.5417886 C45.6806504,31.860813 42.9899187,34.5469919 39.6708943,34.5469919 L39.6708943,34.5469919 L24.4917073,34.5469919 L20.2302439,39.0543089 C20.0162602,39.2773984 19.6930081,39.3502439 19.401626,39.2364228 C19.1147967,39.1226016 18.9281301,38.844878 18.9281301,38.5352846 L18.9281301,38.5352846 L18.9281301,21.2390244 C18.9281301,17.92 21.6188618,15.2292683 24.9378862,15.2292683 L24.9378862,15.2292683 Z M39.6708943,16.7362602 L24.9378862,16.7362602 C23.6904065,16.7362602 22.5704065,17.241626 21.7554472,18.0565854 C20.9404878,18.8715447 20.435122,19.9915447 20.435122,21.2390244 L20.435122,21.2390244 L20.435122,36.6413008 L23.617561,33.276748 C23.763252,33.1265041 23.9590244,33.04 24.1684553,33.04 L24.1684553,33.04 L39.6708943,33.04 L39.9186379,33.0333778 C41.0663516,32.9718287 42.0927046,32.4848564 42.8533333,31.7242276 C43.6682927,30.9047154 44.1736585,29.7847154 44.1736585,28.5417886 L44.1736585,28.5417886 L44.1736585,21.2390244 C44.1736585,19.9915447 43.6682927,18.8715447 42.8533333,18.0565854 C42.038374,17.241626 40.918374,16.7362602 39.6708943,16.7362602 L39.6708943,16.7362602 Z M25.324878,23.7613008 C26.0169106,23.7613008 26.5769106,24.3213008 26.5769106,25.0178862 L26.5769106,25.0178862 L26.5704526,25.1459905 C26.5063948,25.7777312 25.9736585,26.2699187 25.324878,26.2699187 C24.6328455,26.2699187 24.0728455,25.7099187 24.0682927,25.0178862 C24.0728455,24.3213008 24.6328455,23.7613008 25.324878,23.7613008 Z M32.3043902,23.7613008 C32.9964228,23.7613008 33.5564228,24.3213008 33.5564228,25.0178862 L33.5564228,25.0178862 L33.5499647,25.1459905 C33.485907,25.7777312 32.9531707,26.2699187 32.3043902,26.2699187 C31.6123577,26.2699187 31.0523577,25.7099187 31.0523577,25.0178862 C31.0523577,24.3213008 31.6123577,23.7613008 32.3043902,23.7613008 Z M39.2839024,23.7613008 C39.975935,23.7613008 40.535935,24.3213008 40.5404878,25.0178862 L40.5404878,25.0178862 L40.5332284,25.1459905 C40.4654192,25.7777312 39.9326829,26.2699187 39.2839024,26.2699187 C38.5918699,26.2699187 38.0318699,25.7099187 38.0318699,25.0178862 C38.0318699,24.3213008 38.5918699,23.7613008 39.2839024,23.7613008 Z M25.324878,24.758374 C25.1837398,24.7629268 25.0699187,24.8721951 25.0699187,25.0178862 C25.0699187,25.1590244 25.1837398,25.2728455 25.324878,25.2728455 C25.4458537,25.2728455 25.5467596,25.1892218 25.573121,25.0764493 L25.579,25.017 L25.573121,24.9578762 C25.5511531,24.8622399 25.4774183,24.7901643 25.3834412,24.7665372 L25.324878,24.758374 Z M32.3043902,24.758374 C32.163252,24.7629268 32.0494309,24.8721951 32.0494309,25.0178862 C32.0494309,25.1590244 32.163252,25.2728455 32.3043902,25.2728455 C32.4253659,25.2728455 32.5262718,25.1892218 32.5526332,25.0764493 L32.559,25.017 L32.5526332,24.9578762 C32.5306653,24.8622399 32.4569305,24.7901643 32.3629534,24.7665372 L32.3043902,24.758374 Z M39.2839024,24.758374 C39.1427642,24.7629268 39.0289431,24.8721951 39.0289431,25.0178862 C39.0289431,25.1590244 39.1427642,25.2728455 39.2839024,25.2728455 C39.404878,25.2728455 39.505784,25.1892218 39.5321453,25.0764493 L39.538,25.017 L39.5321453,24.9578762 C39.5101775,24.8622399 39.4364427,24.7901643 39.3424656,24.7665372 L39.2839024,24.758374 Z" id="Combined-Shape" fill="#D2D2D9"></path>
                </g>
            </g>
        </g>
    </g>
</svg>